G04 Generated by Ultiboard 14.2 *
%FSLAX34Y34*%
%MOMM*%

%ADD10C,0.0001*%
%ADD11C,0.2540*%
%ADD12C,0.1270*%
%ADD13C,1.0000*%
%ADD14R,2.2000X0.7000*%
%ADD15R,0.6100X0.6800*%
%ADD16C,1.6088*%
%ADD17R,0.5291X0.5291*%
%ADD18C,0.9949*%


G04 ColorRGB 00FF00 for the following layer *
%LNCopper Top*%
%LPD*%
G54D10*
G36*
X80409Y454722D02*
X80409Y454722D01*
X50966Y454722D01*
X36291Y469396D01*
X36291Y481489D01*
X43075Y474705D01*
X43075Y474705D01*
X52677Y465103D01*
G75*
D01*
G03X57329Y463178I4647J4647*
G01*
X57329Y463178D01*
X80409Y463178D01*
G75*
D01*
G03X84650Y461055I4241J3172*
G01*
X84650Y461055D01*
X90750Y461055D01*
G74*
D01*
G03X92600Y461388I0J5295*
G01*
G75*
D01*
G03X94450Y461055I1850J4962*
G01*
X94450Y461055D01*
X100550Y461055D01*
G74*
D01*
G03X103323Y461839I0J5295*
G01*
G75*
D01*
G03X104550Y461695I1227J5151*
G01*
X104550Y461695D01*
X110650Y461695D01*
G74*
D01*
G03X112500Y462028I0J5295*
G01*
G75*
D01*
G03X114350Y461695I1850J4962*
G01*
X114350Y461695D01*
X114441Y461695D01*
X114441Y463292D01*
G75*
D01*
G03X115945Y466990I-3791J3698*
G01*
X115945Y466990D01*
X115945Y473790D01*
G74*
D01*
G03X114441Y477488I5295J0*
G01*
X114441Y477488D01*
X114441Y479085D01*
X114350Y479085D01*
G75*
D01*
G03X112500Y478752I0J-5295*
G01*
G74*
D01*
G03X110650Y479085I1850J4962*
G01*
X110650Y479085D01*
X104550Y479085D01*
G75*
D01*
G03X101777Y478301I0J-5295*
G01*
G74*
D01*
G03X100550Y478445I1227J5151*
G01*
X100550Y478445D01*
X94450Y478445D01*
G75*
D01*
G03X92600Y478112I0J-5295*
G01*
G74*
D01*
G03X90750Y478445I1850J4962*
G01*
X90750Y478445D01*
X84650Y478445D01*
G75*
D01*
G03X80409Y476322I0J-5295*
G01*
X80409Y476322D01*
X60046Y476322D01*
X42831Y493536D01*
X42831Y504518D01*
X60646Y486703D01*
G75*
D01*
G03X65301Y484778I4647J4647*
G01*
X65301Y484778D01*
X80409Y484778D01*
G75*
D01*
G03X84650Y482655I4241J3172*
G01*
X84650Y482655D01*
X90750Y482655D01*
G74*
D01*
G03X92600Y482988I0J5295*
G01*
G75*
D01*
G03X94450Y482655I1850J4962*
G01*
X94450Y482655D01*
X100550Y482655D01*
G74*
D01*
G03X103323Y483439I0J5295*
G01*
G75*
D01*
G03X104550Y483295I1227J5151*
G01*
X104550Y483295D01*
X110650Y483295D01*
G74*
D01*
G03X112500Y483628I0J5295*
G01*
G75*
D01*
G03X114350Y483295I1850J4962*
G01*
X114350Y483295D01*
X114441Y483295D01*
X114441Y484892D01*
G75*
D01*
G03X115945Y488590I-3791J3698*
G01*
X115945Y488590D01*
X115945Y495390D01*
G74*
D01*
G03X114441Y499088I5295J0*
G01*
X114441Y499088D01*
X114441Y500685D01*
X114350Y500685D01*
G75*
D01*
G03X112500Y500352I0J-5295*
G01*
G74*
D01*
G03X110650Y500685I1850J4962*
G01*
X110650Y500685D01*
X104550Y500685D01*
G75*
D01*
G03X101777Y499901I0J-5295*
G01*
G74*
D01*
G03X100550Y500045I1227J5151*
G01*
X100550Y500045D01*
X94450Y500045D01*
G75*
D01*
G03X92600Y499712I0J-5295*
G01*
G74*
D01*
G03X90750Y500045I1850J4962*
G01*
X90750Y500045D01*
X84650Y500045D01*
G75*
D01*
G03X80409Y497922I0J-5295*
G01*
X80409Y497922D01*
X68015Y497922D01*
X49371Y516565D01*
X49371Y517386D01*
X58455Y508303D01*
G75*
D01*
G03X63110Y506378I4646J4647*
G01*
X63110Y506378D01*
X80409Y506378D01*
G75*
D01*
G03X84650Y504255I4241J3172*
G01*
X84650Y504255D01*
X90750Y504255D01*
G74*
D01*
G03X92600Y504588I0J5295*
G01*
G75*
D01*
G03X94450Y504255I1850J4962*
G01*
X94450Y504255D01*
X100550Y504255D01*
G74*
D01*
G03X103323Y505039I0J5295*
G01*
G75*
D01*
G03X104550Y504895I1227J5151*
G01*
X104550Y504895D01*
X110650Y504895D01*
G74*
D01*
G03X112500Y505228I0J5295*
G01*
G75*
D01*
G03X114350Y504895I1850J4962*
G01*
X114350Y504895D01*
X114441Y504895D01*
X114441Y506492D01*
G75*
D01*
G03X115945Y510190I-3791J3698*
G01*
X115945Y510190D01*
X115945Y516990D01*
G74*
D01*
G03X114441Y520688I5295J0*
G01*
X114441Y520688D01*
X114441Y522285D01*
X114350Y522285D01*
G75*
D01*
G03X112500Y521952I0J-5295*
G01*
G74*
D01*
G03X110650Y522285I1850J4962*
G01*
X110650Y522285D01*
X104550Y522285D01*
G75*
D01*
G03X101777Y521501I0J-5295*
G01*
G74*
D01*
G03X100550Y521645I1227J5151*
G01*
X100550Y521645D01*
X94450Y521645D01*
G75*
D01*
G03X92600Y521312I0J-5295*
G01*
G74*
D01*
G03X90750Y521645I1850J4962*
G01*
X90750Y521645D01*
X84650Y521645D01*
G75*
D01*
G03X80409Y519522I0J-5295*
G01*
X80409Y519522D01*
X65824Y519522D01*
X55911Y529434D01*
X55911Y536129D01*
X62137Y529903D01*
G75*
D01*
G03X66792Y527978I4647J4647*
G01*
X66792Y527978D01*
X80409Y527978D01*
G75*
D01*
G03X84650Y525855I4241J3172*
G01*
X84650Y525855D01*
X90750Y525855D01*
G74*
D01*
G03X92600Y526188I0J5295*
G01*
G75*
D01*
G03X94450Y525855I1850J4962*
G01*
X94450Y525855D01*
X100550Y525855D01*
G74*
D01*
G03X103323Y526639I0J5295*
G01*
G75*
D01*
G03X104550Y526495I1227J5151*
G01*
X104550Y526495D01*
X110650Y526495D01*
G74*
D01*
G03X112500Y526828I0J5295*
G01*
G75*
D01*
G03X114350Y526495I1850J4962*
G01*
X114350Y526495D01*
X114441Y526495D01*
X114441Y528092D01*
G75*
D01*
G03X115945Y531790I-3791J3698*
G01*
X115945Y531790D01*
X115945Y538590D01*
G74*
D01*
G03X114441Y542288I5295J0*
G01*
X114441Y542288D01*
X114441Y543885D01*
X114350Y543885D01*
G75*
D01*
G03X112500Y543552I0J-5295*
G01*
G74*
D01*
G03X110650Y543885I1850J4962*
G01*
X110650Y543885D01*
X104550Y543885D01*
G75*
D01*
G03X101777Y543101I0J-5295*
G01*
G74*
D01*
G03X100550Y543245I1227J5151*
G01*
X100550Y543245D01*
X94450Y543245D01*
G75*
D01*
G03X92600Y542912I0J-5295*
G01*
G74*
D01*
G03X90750Y543245I1850J4962*
G01*
X90750Y543245D01*
X84650Y543245D01*
G75*
D01*
G03X80409Y541122I0J-5295*
G01*
X80409Y541122D01*
X69506Y541122D01*
X62451Y548176D01*
X62451Y609944D01*
X66496Y613989D01*
X77561Y613989D01*
X77561Y614775D01*
X83799Y614775D01*
X83799Y613989D01*
X92488Y613989D01*
X92488Y607751D01*
X83799Y607751D01*
X83799Y602075D01*
X91680Y602075D01*
G74*
D01*
G03X92488Y602137I0J5295*
G01*
X92488Y602137D01*
X92488Y600892D01*
X89988Y598392D01*
X83820Y598392D01*
G75*
D01*
G03X82493Y598256I0J-6572*
G01*
G74*
D01*
G03X79800Y597018I1327J6436*
G01*
G75*
D01*
G03X89473Y585248I-3600J-12818*
G01*
X89473Y585248D01*
X92710Y585248D01*
G74*
D01*
G03X97364Y587180I0J6572*
G01*
X97364Y587180D01*
X103700Y593516D01*
G75*
D01*
G03X105632Y598170I-4640J4654*
G01*
X105632Y598170D01*
X105632Y688158D01*
X109402Y691928D01*
X116562Y691928D01*
G74*
D01*
G03X116385Y690570I5118J1358*
G01*
X116385Y690570D01*
X116385Y683570D01*
G75*
D01*
G03X117217Y680720I5295J0*
G01*
G74*
D01*
G03X116385Y677870I4463J2850*
G01*
X116385Y677870D01*
X116385Y670870D01*
G75*
D01*
G03X117217Y668020I5295J0*
G01*
G74*
D01*
G03X116385Y665170I4463J2850*
G01*
X116385Y665170D01*
X116385Y664789D01*
X129561Y664789D01*
X129561Y665575D01*
X135799Y665575D01*
X135799Y664789D01*
X148975Y664789D01*
X148975Y665170D01*
G74*
D01*
G03X148277Y667798I5295J0*
G01*
X148277Y667798D01*
X162511Y667798D01*
G75*
D01*
G03X154873Y656926I2589J-9938*
G01*
X154873Y656926D01*
X153488Y655542D01*
X148277Y655542D01*
G75*
D01*
G03X148975Y658170I-4597J2628*
G01*
X148975Y658170D01*
X148975Y658551D01*
X135799Y658551D01*
X135799Y657765D01*
X129561Y657765D01*
X129561Y658551D01*
X116385Y658551D01*
X116385Y658170D01*
G75*
D01*
G03X117217Y655320I5295J0*
G01*
G74*
D01*
G03X116385Y652470I4463J2850*
G01*
X116385Y652470D01*
X116385Y645470D01*
G75*
D01*
G03X117217Y642620I5295J0*
G01*
G74*
D01*
G03X116385Y639770I4463J2850*
G01*
X116385Y639770D01*
X116385Y632770D01*
G75*
D01*
G03X117217Y629920I5295J0*
G01*
G74*
D01*
G03X116385Y627070I4463J2850*
G01*
X116385Y627070D01*
X116385Y620070D01*
G75*
D01*
G03X117217Y617220I5295J0*
G01*
G74*
D01*
G03X116385Y614370I4463J2850*
G01*
X116385Y614370D01*
X116385Y607370D01*
G75*
D01*
G03X121680Y602075I5295J0*
G01*
X121680Y602075D01*
X143680Y602075D01*
G74*
D01*
G03X145828Y602530I0J5295*
G01*
X145828Y602530D01*
X145828Y588232D01*
X142512Y588232D01*
G75*
D01*
G03X142512Y575088I-7892J-6572*
G01*
X142512Y575088D01*
X145828Y575088D01*
X145828Y566430D01*
G75*
D01*
G03X147753Y561773I6572J-10*
G01*
X147753Y561773D01*
X155373Y554153D01*
G75*
D01*
G03X160028Y552228I4647J4647*
G01*
X160028Y552228D01*
X166221Y552228D01*
G74*
D01*
G03X173803Y546100I11579J6572*
G01*
G74*
D01*
G03X166122Y539794I3997J12700*
G01*
G74*
D01*
G03X165888Y539734I1518J6394*
G01*
G74*
D01*
G03X162993Y538047I1752J6334*
G01*
X162993Y538047D01*
X141403Y516457D01*
G75*
D01*
G03X139478Y511797I4647J-4647*
G01*
X139478Y511797D01*
X139478Y145741D01*
X130720Y154500D01*
G74*
D01*
G03X128157Y156090I4654J4640*
G01*
G75*
D01*
G03X126058Y156432I-2091J-6230*
G01*
X126058Y156432D01*
X99242Y156432D01*
X92932Y162742D01*
X92932Y202077D01*
G75*
D01*
G03X94450Y201855I1518J5073*
G01*
X94450Y201855D01*
X100550Y201855D01*
G74*
D01*
G03X103323Y202639I0J5295*
G01*
G75*
D01*
G03X104550Y202495I1227J5151*
G01*
X104550Y202495D01*
X110650Y202495D01*
G74*
D01*
G03X112500Y202828I0J5295*
G01*
G75*
D01*
G03X114350Y202495I1850J4962*
G01*
X114350Y202495D01*
X114441Y202495D01*
X114441Y204092D01*
G75*
D01*
G03X115945Y207790I-3791J3698*
G01*
X115945Y207790D01*
X115945Y214590D01*
G74*
D01*
G03X114441Y218288I5295J0*
G01*
X114441Y218288D01*
X114441Y219885D01*
X114350Y219885D01*
G75*
D01*
G03X112500Y219552I0J-5295*
G01*
G74*
D01*
G03X110650Y219885I1850J4962*
G01*
X110650Y219885D01*
X104550Y219885D01*
G75*
D01*
G03X101777Y219101I0J-5295*
G01*
G74*
D01*
G03X100550Y219245I1227J5151*
G01*
X100550Y219245D01*
X94450Y219245D01*
G75*
D01*
G03X92600Y218912I0J-5295*
G01*
G74*
D01*
G03X90750Y219245I1850J4962*
G01*
X90750Y219245D01*
X84650Y219245D01*
G75*
D01*
G03X79355Y213950I0J-5295*
G01*
X79355Y213950D01*
X79355Y207150D01*
G75*
D01*
G03X79788Y205051I5295J0*
G01*
X79788Y205051D01*
X79788Y160033D01*
G75*
D01*
G03X81713Y155373I6572J-13*
G01*
X81713Y155373D01*
X91873Y145213D01*
G74*
D01*
G03X94883Y143496I4647J4647*
G01*
G75*
D01*
G03X96520Y143288I1637J6364*
G01*
X96520Y143288D01*
X123344Y143288D01*
X124284Y142348D01*
G75*
D01*
G03X115948Y126333I176J-10268*
G01*
X115948Y126333D01*
X115948Y124365D01*
X111520Y124365D01*
G75*
D01*
G03X106225Y119070I0J-5295*
G01*
X106225Y119070D01*
X106225Y112070D01*
G75*
D01*
G03X107057Y109220I5295J0*
G01*
G74*
D01*
G03X106225Y106370I4463J2850*
G01*
X106225Y106370D01*
X106225Y99370D01*
G75*
D01*
G03X107057Y96520I5295J0*
G01*
G74*
D01*
G03X106225Y93670I4463J2850*
G01*
X106225Y93670D01*
X106225Y86670D01*
G75*
D01*
G03X107057Y83820I5295J0*
G01*
G74*
D01*
G03X106225Y80970I4463J2850*
G01*
X106225Y80970D01*
X106225Y80589D01*
X119401Y80589D01*
X119401Y81375D01*
X125639Y81375D01*
X125639Y80589D01*
X138815Y80589D01*
X138815Y80970D01*
G74*
D01*
G03X138109Y83612I5295J0*
G01*
G74*
D01*
G03X140149Y84077I423J6558*
G01*
G74*
D01*
G03X142340Y85530I2463J6093*
G01*
X142340Y85530D01*
X150690Y93880D01*
G75*
D01*
G03X152622Y98534I-4640J4654*
G01*
X152622Y98534D01*
X152622Y509088D01*
X167962Y524429D01*
G75*
D01*
G03X181797Y546100I9838J8971*
G01*
G75*
D01*
G03X181797Y571500I-3997J12700*
G01*
G75*
D01*
G03X182113Y596796I-3997J12700*
G01*
G75*
D01*
G03X190740Y606955I-1668J10159*
G01*
X190740Y606955D01*
X190740Y612245D01*
G74*
D01*
G03X184372Y621761I10295J0*
G01*
X184372Y621761D01*
X184372Y662940D01*
G74*
D01*
G03X182440Y667594I6572J0*
G01*
X182440Y667594D01*
X171024Y679010D01*
G74*
D01*
G03X166370Y680942I4654J4640*
G01*
X166370Y680942D01*
X156825Y680942D01*
G74*
D01*
G03X157054Y681160I4425J4858*
G01*
X157054Y681160D01*
X167200Y691306D01*
G75*
D01*
G03X169132Y695960I-4640J4654*
G01*
X169132Y695960D01*
X169132Y705376D01*
G74*
D01*
G03X167200Y710030I6572J0*
G01*
X167200Y710030D01*
X162525Y714705D01*
X156310Y720920D01*
G74*
D01*
G03X151656Y722852I4654J4640*
G01*
X151656Y722852D01*
X31169Y722852D01*
G75*
D01*
G03X26517Y720927I-5J-6572*
G01*
X26517Y720927D01*
X20294Y714705D01*
X20294Y714705D01*
X5453Y699863D01*
G74*
D01*
G03X5295Y699700I4647J4647*
G01*
X5295Y699700D01*
X5295Y734705D01*
X219705Y734705D01*
X219705Y5295D01*
X5295Y5295D01*
X5295Y397390D01*
G74*
D01*
G03X5453Y397227I4805J4484*
G01*
X5453Y397227D01*
X23977Y378703D01*
G75*
D01*
G03X28630Y376778I4647J4647*
G01*
X28630Y376778D01*
X80409Y376778D01*
G75*
D01*
G03X84650Y374655I4241J3172*
G01*
X84650Y374655D01*
X90750Y374655D01*
G74*
D01*
G03X92600Y374988I0J5295*
G01*
G75*
D01*
G03X94450Y374655I1850J4962*
G01*
X94450Y374655D01*
X100550Y374655D01*
G74*
D01*
G03X103323Y375439I0J5295*
G01*
G75*
D01*
G03X104550Y375295I1227J5151*
G01*
X104550Y375295D01*
X110650Y375295D01*
G74*
D01*
G03X112500Y375628I0J5295*
G01*
G75*
D01*
G03X114350Y375295I1850J4962*
G01*
X114350Y375295D01*
X114441Y375295D01*
X114441Y376892D01*
G75*
D01*
G03X115945Y380590I-3791J3698*
G01*
X115945Y380590D01*
X115945Y387390D01*
G74*
D01*
G03X114441Y391088I5295J0*
G01*
X114441Y391088D01*
X114441Y392685D01*
X114350Y392685D01*
G75*
D01*
G03X112500Y392352I0J-5295*
G01*
G74*
D01*
G03X110650Y392685I1850J4962*
G01*
X110650Y392685D01*
X104550Y392685D01*
G75*
D01*
G03X101777Y391901I0J-5295*
G01*
G74*
D01*
G03X100550Y392045I1227J5151*
G01*
X100550Y392045D01*
X94450Y392045D01*
G75*
D01*
G03X92600Y391712I0J-5295*
G01*
G74*
D01*
G03X90750Y392045I1850J4962*
G01*
X90750Y392045D01*
X84650Y392045D01*
G75*
D01*
G03X80409Y389922I0J-5295*
G01*
X80409Y389922D01*
X31346Y389922D01*
X16671Y404596D01*
X16671Y415599D01*
X30517Y401753D01*
G75*
D01*
G03X35170Y399828I4647J4647*
G01*
X35170Y399828D01*
X79642Y399828D01*
G75*
D01*
G03X84650Y396255I5008J1722*
G01*
X84650Y396255D01*
X90750Y396255D01*
G74*
D01*
G03X92600Y396588I0J5295*
G01*
G75*
D01*
G03X94450Y396255I1850J4962*
G01*
X94450Y396255D01*
X100550Y396255D01*
G74*
D01*
G03X103323Y397039I0J5295*
G01*
G75*
D01*
G03X104550Y396895I1227J5151*
G01*
X104550Y396895D01*
X110650Y396895D01*
G74*
D01*
G03X112500Y397228I0J5295*
G01*
G75*
D01*
G03X114350Y396895I1850J4962*
G01*
X114350Y396895D01*
X114441Y396895D01*
X114441Y398492D01*
G75*
D01*
G03X115945Y402190I-3791J3698*
G01*
X115945Y402190D01*
X115945Y408990D01*
G74*
D01*
G03X114441Y412688I5295J0*
G01*
X114441Y412688D01*
X114441Y414285D01*
X114350Y414285D01*
G75*
D01*
G03X112500Y413952I0J-5295*
G01*
G74*
D01*
G03X110650Y414285I1850J4962*
G01*
X110650Y414285D01*
X104550Y414285D01*
G75*
D01*
G03X101777Y413501I0J-5295*
G01*
G74*
D01*
G03X100550Y413645I1227J5151*
G01*
X100550Y413645D01*
X94450Y413645D01*
G75*
D01*
G03X92600Y413312I0J-5295*
G01*
G74*
D01*
G03X90750Y413645I1850J4962*
G01*
X90750Y413645D01*
X84650Y413645D01*
G75*
D01*
G03X82065Y412972I0J-5295*
G01*
X82065Y412972D01*
X37886Y412972D01*
X23211Y427646D01*
X23211Y433547D01*
X34856Y421903D01*
G75*
D01*
G03X39511Y419978I4646J4647*
G01*
X39511Y419978D01*
X80409Y419978D01*
G75*
D01*
G03X84650Y417855I4241J3172*
G01*
X84650Y417855D01*
X90750Y417855D01*
G74*
D01*
G03X92600Y418188I0J5295*
G01*
G75*
D01*
G03X94450Y417855I1850J4962*
G01*
X94450Y417855D01*
X100550Y417855D01*
G74*
D01*
G03X103323Y418639I0J5295*
G01*
G75*
D01*
G03X104550Y418495I1227J5151*
G01*
X104550Y418495D01*
X110650Y418495D01*
G74*
D01*
G03X112500Y418828I0J5295*
G01*
G75*
D01*
G03X114350Y418495I1850J4962*
G01*
X114350Y418495D01*
X114441Y418495D01*
X114441Y420092D01*
G75*
D01*
G03X115945Y423790I-3791J3698*
G01*
X115945Y423790D01*
X115945Y430590D01*
G74*
D01*
G03X114441Y434288I5295J0*
G01*
X114441Y434288D01*
X114441Y435885D01*
X114350Y435885D01*
G75*
D01*
G03X112500Y435552I0J-5295*
G01*
G74*
D01*
G03X110650Y435885I1850J4962*
G01*
X110650Y435885D01*
X104550Y435885D01*
G75*
D01*
G03X101777Y435101I0J-5295*
G01*
G74*
D01*
G03X100550Y435245I1227J5151*
G01*
X100550Y435245D01*
X94450Y435245D01*
G75*
D01*
G03X92600Y434912I0J-5295*
G01*
G74*
D01*
G03X90750Y435245I1850J4962*
G01*
X90750Y435245D01*
X84650Y435245D01*
G75*
D01*
G03X80409Y433122I0J-5295*
G01*
X80409Y433122D01*
X42225Y433122D01*
X29751Y445595D01*
X29751Y457349D01*
X43597Y443503D01*
G75*
D01*
G03X48250Y441578I4647J4647*
G01*
X48250Y441578D01*
X80409Y441578D01*
G75*
D01*
G03X84650Y439455I4241J3172*
G01*
X84650Y439455D01*
X90750Y439455D01*
G74*
D01*
G03X92600Y439788I0J5295*
G01*
G75*
D01*
G03X94450Y439455I1850J4962*
G01*
X94450Y439455D01*
X100550Y439455D01*
G74*
D01*
G03X103323Y440239I0J5295*
G01*
G75*
D01*
G03X104550Y440095I1227J5151*
G01*
X104550Y440095D01*
X110650Y440095D01*
G74*
D01*
G03X112500Y440428I0J5295*
G01*
G75*
D01*
G03X114350Y440095I1850J4962*
G01*
X114350Y440095D01*
X114441Y440095D01*
X114441Y441692D01*
G75*
D01*
G03X115945Y445390I-3791J3698*
G01*
X115945Y445390D01*
X115945Y452190D01*
G74*
D01*
G03X114441Y455888I5295J0*
G01*
X114441Y455888D01*
X114441Y457485D01*
X114350Y457485D01*
G75*
D01*
G03X112500Y457152I0J-5295*
G01*
G74*
D01*
G03X110650Y457485I1850J4962*
G01*
X110650Y457485D01*
X104550Y457485D01*
G75*
D01*
G03X101777Y456701I0J-5295*
G01*
G74*
D01*
G03X100550Y456845I1227J5151*
G01*
X100550Y456845D01*
X94450Y456845D01*
G75*
D01*
G03X92600Y456512I0J-5295*
G01*
G74*
D01*
G03X90750Y456845I1850J4962*
G01*
X90750Y456845D01*
X84650Y456845D01*
G75*
D01*
G03X80409Y454722I0J-5295*
G01*
D02*
G37*
%LPC*%
G36*
X162993Y472007D02*
G75*
D01*
G03X161634Y464693I4647J-4647*
G01*
G75*
D01*
G03X167640Y460788I6006J2667*
G01*
X167640Y460788D01*
X171228Y460788D01*
X171228Y447040D01*
G75*
D01*
G03X184372Y447040I6572J0*
G01*
X184372Y447040D01*
X184372Y460788D01*
X187960Y460788D01*
G75*
D01*
G03X192600Y472014I0J6572*
G01*
X192600Y472014D01*
X187094Y477520D01*
X192607Y483033D01*
G75*
D01*
G03X192606Y492328I-4647J4647*
G01*
X192606Y492328D01*
X182454Y502480D01*
G74*
D01*
G03X179484Y504192I4654J4640*
G01*
G75*
D01*
G03X171228Y497827I-1684J-6352*
G01*
X171228Y497827D01*
X171228Y493185D01*
G75*
D01*
G03X162993Y483033I-3588J-5505*
G01*
X162993Y483033D01*
X168506Y477520D01*
X165691Y474705D01*
X162993Y472007D01*
D02*
G37*
G36*
X125745Y473790D02*
G74*
D01*
G03X120450Y479085I5295J0*
G01*
X120450Y479085D01*
X120359Y479085D01*
X120359Y473349D01*
X125745Y473349D01*
X125745Y473790D01*
D02*
G37*
G36*
X63277Y236797D02*
X63277Y236797D01*
X59592Y233111D01*
X59592Y238258D01*
X68762Y247428D01*
X80233Y247428D01*
G75*
D01*
G03X84650Y245055I4417J2922*
G01*
X84650Y245055D01*
X90750Y245055D01*
G74*
D01*
G03X92600Y245388I0J5295*
G01*
G75*
D01*
G03X94450Y245055I1850J4962*
G01*
X94450Y245055D01*
X100550Y245055D01*
G74*
D01*
G03X103323Y245839I0J5295*
G01*
G75*
D01*
G03X104550Y245695I1227J5151*
G01*
X104550Y245695D01*
X110650Y245695D01*
G74*
D01*
G03X112500Y246028I0J5295*
G01*
G75*
D01*
G03X114350Y245695I1850J4962*
G01*
X114350Y245695D01*
X114441Y245695D01*
X114441Y247292D01*
G75*
D01*
G03X115945Y250990I-3791J3698*
G01*
X115945Y250990D01*
X115945Y257790D01*
G74*
D01*
G03X114441Y261488I5295J0*
G01*
X114441Y261488D01*
X114441Y263085D01*
X114350Y263085D01*
G75*
D01*
G03X112500Y262752I0J-5295*
G01*
G74*
D01*
G03X110650Y263085I1850J4962*
G01*
X110650Y263085D01*
X104550Y263085D01*
G75*
D01*
G03X101777Y262301I0J-5295*
G01*
G74*
D01*
G03X100550Y262445I1227J5151*
G01*
X100550Y262445D01*
X94450Y262445D01*
G75*
D01*
G03X92600Y262112I0J-5295*
G01*
G74*
D01*
G03X90750Y262445I1850J4962*
G01*
X90750Y262445D01*
X84650Y262445D01*
G75*
D01*
G03X80608Y260572I0J-5295*
G01*
X80608Y260572D01*
X66049Y260572D01*
G75*
D01*
G03X61393Y258647I-9J-6572*
G01*
X61393Y258647D01*
X53052Y250305D01*
X53052Y251564D01*
X70266Y268778D01*
X80409Y268778D01*
G75*
D01*
G03X84650Y266655I4241J3172*
G01*
X84650Y266655D01*
X90750Y266655D01*
G74*
D01*
G03X92600Y266988I0J5295*
G01*
G75*
D01*
G03X94450Y266655I1850J4962*
G01*
X94450Y266655D01*
X100550Y266655D01*
G74*
D01*
G03X103323Y267439I0J5295*
G01*
G75*
D01*
G03X104550Y267295I1227J5151*
G01*
X104550Y267295D01*
X110650Y267295D01*
G74*
D01*
G03X112500Y267628I0J5295*
G01*
G75*
D01*
G03X114350Y267295I1850J4962*
G01*
X114350Y267295D01*
X114441Y267295D01*
X114441Y268892D01*
G75*
D01*
G03X115945Y272590I-3791J3698*
G01*
X115945Y272590D01*
X115945Y279390D01*
G74*
D01*
G03X114441Y283088I5295J0*
G01*
X114441Y283088D01*
X114441Y284685D01*
X114350Y284685D01*
G75*
D01*
G03X112500Y284352I0J-5295*
G01*
G74*
D01*
G03X110650Y284685I1850J4962*
G01*
X110650Y284685D01*
X104550Y284685D01*
G75*
D01*
G03X101777Y283901I0J-5295*
G01*
G74*
D01*
G03X100550Y284045I1227J5151*
G01*
X100550Y284045D01*
X94450Y284045D01*
G75*
D01*
G03X92600Y283712I0J-5295*
G01*
G74*
D01*
G03X90750Y284045I1850J4962*
G01*
X90750Y284045D01*
X84650Y284045D01*
G75*
D01*
G03X80409Y281922I0J-5295*
G01*
X80409Y281922D01*
X67550Y281922D01*
G75*
D01*
G03X62897Y279997I-6J-6572*
G01*
X62897Y279997D01*
X46512Y263611D01*
X46512Y275704D01*
X61186Y290378D01*
X80409Y290378D01*
G75*
D01*
G03X84650Y288255I4241J3172*
G01*
X84650Y288255D01*
X90750Y288255D01*
G74*
D01*
G03X92600Y288588I0J5295*
G01*
G75*
D01*
G03X94450Y288255I1850J4962*
G01*
X94450Y288255D01*
X100550Y288255D01*
G74*
D01*
G03X103323Y289039I0J5295*
G01*
G75*
D01*
G03X104550Y288895I1227J5151*
G01*
X104550Y288895D01*
X110650Y288895D01*
G74*
D01*
G03X112500Y289228I0J5295*
G01*
G75*
D01*
G03X114350Y288895I1850J4962*
G01*
X114350Y288895D01*
X114441Y288895D01*
X114441Y290492D01*
G75*
D01*
G03X115945Y294190I-3791J3698*
G01*
X115945Y294190D01*
X115945Y300990D01*
G74*
D01*
G03X114441Y304688I5295J0*
G01*
X114441Y304688D01*
X114441Y306285D01*
X114350Y306285D01*
G75*
D01*
G03X112500Y305952I0J-5295*
G01*
G74*
D01*
G03X110650Y306285I1850J4962*
G01*
X110650Y306285D01*
X104550Y306285D01*
G75*
D01*
G03X101777Y305501I0J-5295*
G01*
G74*
D01*
G03X100550Y305645I1227J5151*
G01*
X100550Y305645D01*
X94450Y305645D01*
G75*
D01*
G03X92600Y305312I0J-5295*
G01*
G74*
D01*
G03X90750Y305645I1850J4962*
G01*
X90750Y305645D01*
X84650Y305645D01*
G75*
D01*
G03X80409Y303522I0J-5295*
G01*
X80409Y303522D01*
X58470Y303522D01*
G75*
D01*
G03X53817Y301597I-6J-6572*
G01*
X53817Y301597D01*
X39972Y287751D01*
X39972Y294764D01*
X57186Y311978D01*
X80409Y311978D01*
G75*
D01*
G03X84650Y309855I4241J3172*
G01*
X84650Y309855D01*
X90750Y309855D01*
G74*
D01*
G03X92600Y310188I0J5295*
G01*
G75*
D01*
G03X94450Y309855I1850J4962*
G01*
X94450Y309855D01*
X100550Y309855D01*
G74*
D01*
G03X103323Y310639I0J5295*
G01*
G75*
D01*
G03X104550Y310495I1227J5151*
G01*
X104550Y310495D01*
X110650Y310495D01*
G74*
D01*
G03X112500Y310828I0J5295*
G01*
G75*
D01*
G03X114350Y310495I1850J4962*
G01*
X114350Y310495D01*
X114441Y310495D01*
X114441Y312092D01*
G75*
D01*
G03X115945Y315790I-3791J3698*
G01*
X115945Y315790D01*
X115945Y322590D01*
G74*
D01*
G03X114441Y326288I5295J0*
G01*
X114441Y326288D01*
X114441Y327885D01*
X114350Y327885D01*
G75*
D01*
G03X112500Y327552I0J-5295*
G01*
G74*
D01*
G03X110650Y327885I1850J4962*
G01*
X110650Y327885D01*
X104550Y327885D01*
G75*
D01*
G03X101777Y327101I0J-5295*
G01*
G74*
D01*
G03X100550Y327245I1227J5151*
G01*
X100550Y327245D01*
X94450Y327245D01*
G75*
D01*
G03X92600Y326912I0J-5295*
G01*
G74*
D01*
G03X90750Y327245I1850J4962*
G01*
X90750Y327245D01*
X84650Y327245D01*
G75*
D01*
G03X80409Y325122I0J-5295*
G01*
X80409Y325122D01*
X54470Y325122D01*
G75*
D01*
G03X49817Y323197I-6J-6572*
G01*
X49817Y323197D01*
X33432Y306811D01*
X33432Y313824D01*
X53186Y333578D01*
X80409Y333578D01*
G75*
D01*
G03X84650Y331455I4241J3172*
G01*
X84650Y331455D01*
X90750Y331455D01*
G74*
D01*
G03X92600Y331788I0J5295*
G01*
G75*
D01*
G03X94450Y331455I1850J4962*
G01*
X94450Y331455D01*
X100550Y331455D01*
G74*
D01*
G03X103323Y332239I0J5295*
G01*
G75*
D01*
G03X104550Y332095I1227J5151*
G01*
X104550Y332095D01*
X110650Y332095D01*
G74*
D01*
G03X112500Y332428I0J5295*
G01*
G75*
D01*
G03X114350Y332095I1850J4962*
G01*
X114350Y332095D01*
X114441Y332095D01*
X114441Y333692D01*
G75*
D01*
G03X115945Y337390I-3791J3698*
G01*
X115945Y337390D01*
X115945Y344190D01*
G74*
D01*
G03X114441Y347888I5295J0*
G01*
X114441Y347888D01*
X114441Y349485D01*
X114350Y349485D01*
G75*
D01*
G03X112500Y349152I0J-5295*
G01*
G74*
D01*
G03X110650Y349485I1850J4962*
G01*
X110650Y349485D01*
X104550Y349485D01*
G75*
D01*
G03X101777Y348701I0J-5295*
G01*
G74*
D01*
G03X100550Y348845I1227J5151*
G01*
X100550Y348845D01*
X94450Y348845D01*
G75*
D01*
G03X92600Y348512I0J-5295*
G01*
G74*
D01*
G03X90750Y348845I1850J4962*
G01*
X90750Y348845D01*
X84650Y348845D01*
G75*
D01*
G03X80409Y346722I0J-5295*
G01*
X80409Y346722D01*
X50468Y346722D01*
G75*
D01*
G03X45817Y344797I-4J-6572*
G01*
X45817Y344797D01*
X26892Y325871D01*
X26892Y332884D01*
X49186Y355178D01*
X80409Y355178D01*
G75*
D01*
G03X84650Y353055I4241J3172*
G01*
X84650Y353055D01*
X90750Y353055D01*
G74*
D01*
G03X92600Y353388I0J5295*
G01*
G75*
D01*
G03X94450Y353055I1850J4962*
G01*
X94450Y353055D01*
X100550Y353055D01*
G74*
D01*
G03X103323Y353839I0J5295*
G01*
G75*
D01*
G03X104550Y353695I1227J5151*
G01*
X104550Y353695D01*
X110650Y353695D01*
G74*
D01*
G03X112500Y354028I0J5295*
G01*
G75*
D01*
G03X114350Y353695I1850J4962*
G01*
X114350Y353695D01*
X114441Y353695D01*
X114441Y355292D01*
G75*
D01*
G03X115945Y358990I-3791J3698*
G01*
X115945Y358990D01*
X115945Y365790D01*
G74*
D01*
G03X114441Y369488I5295J0*
G01*
X114441Y369488D01*
X114441Y371085D01*
X114350Y371085D01*
G75*
D01*
G03X112500Y370752I0J-5295*
G01*
G74*
D01*
G03X110650Y371085I1850J4962*
G01*
X110650Y371085D01*
X104550Y371085D01*
G75*
D01*
G03X101777Y370301I0J-5295*
G01*
G74*
D01*
G03X100550Y370445I1227J5151*
G01*
X100550Y370445D01*
X94450Y370445D01*
G75*
D01*
G03X92600Y370112I0J-5295*
G01*
G74*
D01*
G03X90750Y370445I1850J4962*
G01*
X90750Y370445D01*
X84650Y370445D01*
G75*
D01*
G03X80409Y368322I0J-5295*
G01*
X80409Y368322D01*
X46467Y368322D01*
G75*
D01*
G03X41817Y366397I-3J-6572*
G01*
X41817Y366397D01*
X15673Y340253D01*
G75*
D01*
G03X13748Y335599I4647J-4647*
G01*
X13748Y335599D01*
X13748Y50285D01*
G75*
D01*
G03X15673Y45627I6572J-11*
G01*
X15673Y45627D01*
X26577Y34723D01*
G75*
D01*
G03X31233Y32798I4647J4647*
G01*
X31233Y32798D01*
X54923Y32798D01*
G74*
D01*
G03X54225Y30170I4597J2628*
G01*
X54225Y30170D01*
X54225Y29789D01*
X67401Y29789D01*
X67401Y30575D01*
X73639Y30575D01*
X73639Y29789D01*
X86815Y29789D01*
X86815Y30170D01*
G74*
D01*
G03X85983Y33020I5295J0*
G01*
G75*
D01*
G03X86815Y35870I-4463J2850*
G01*
X86815Y35870D01*
X86815Y42870D01*
G74*
D01*
G03X85983Y45720I5295J0*
G01*
G75*
D01*
G03X86815Y48570I-4463J2850*
G01*
X86815Y48570D01*
X86815Y55570D01*
G74*
D01*
G03X85983Y58420I5295J0*
G01*
G75*
D01*
G03X86815Y61270I-4463J2850*
G01*
X86815Y61270D01*
X86815Y68270D01*
G74*
D01*
G03X85983Y71120I5295J0*
G01*
G75*
D01*
G03X86815Y73970I-4463J2850*
G01*
X86815Y73970D01*
X86815Y80970D01*
G74*
D01*
G03X85983Y83820I5295J0*
G01*
G75*
D01*
G03X86815Y86670I-4463J2850*
G01*
X86815Y86670D01*
X86815Y93670D01*
G74*
D01*
G03X85983Y96520I5295J0*
G01*
G75*
D01*
G03X86815Y99370I-4463J2850*
G01*
X86815Y99370D01*
X86815Y106370D01*
G74*
D01*
G03X85983Y109220I5295J0*
G01*
G75*
D01*
G03X86815Y112070I-4463J2850*
G01*
X86815Y112070D01*
X86815Y119070D01*
G74*
D01*
G03X81520Y124365I5295J0*
G01*
X81520Y124365D01*
X66132Y124365D01*
X66132Y221064D01*
X70646Y225578D01*
X80409Y225578D01*
G75*
D01*
G03X84650Y223455I4241J3172*
G01*
X84650Y223455D01*
X90750Y223455D01*
G74*
D01*
G03X92600Y223788I0J5295*
G01*
G75*
D01*
G03X94450Y223455I1850J4962*
G01*
X94450Y223455D01*
X100550Y223455D01*
G74*
D01*
G03X103323Y224239I0J5295*
G01*
G75*
D01*
G03X104550Y224095I1227J5151*
G01*
X104550Y224095D01*
X110650Y224095D01*
G74*
D01*
G03X112500Y224428I0J5295*
G01*
G75*
D01*
G03X114350Y224095I1850J4962*
G01*
X114350Y224095D01*
X114441Y224095D01*
X114441Y225692D01*
G75*
D01*
G03X115945Y229390I-3791J3698*
G01*
X115945Y229390D01*
X115945Y236190D01*
G74*
D01*
G03X114441Y239888I5295J0*
G01*
X114441Y239888D01*
X114441Y241485D01*
X114350Y241485D01*
G75*
D01*
G03X112500Y241152I0J-5295*
G01*
G74*
D01*
G03X110650Y241485I1850J4962*
G01*
X110650Y241485D01*
X104550Y241485D01*
G75*
D01*
G03X101777Y240701I0J-5295*
G01*
G74*
D01*
G03X100550Y240845I1227J5151*
G01*
X100550Y240845D01*
X94450Y240845D01*
G75*
D01*
G03X92600Y240512I0J-5295*
G01*
G74*
D01*
G03X90750Y240845I1850J4962*
G01*
X90750Y240845D01*
X84650Y240845D01*
G75*
D01*
G03X80409Y238722I0J-5295*
G01*
X80409Y238722D01*
X67933Y238722D01*
G75*
D01*
G03X63277Y236797I-9J-6572*
G01*
D02*
G37*
G36*
X63445Y554212D02*
G74*
D01*
G03X71612Y546045I10110J1943*
G01*
X71612Y546045D01*
X71612Y554212D01*
X63445Y554212D01*
D02*
G37*
G36*
X64385Y607370D02*
G75*
D01*
G03X69680Y602075I5295J0*
G01*
X69680Y602075D01*
X77561Y602075D01*
X77561Y607751D01*
X64385Y607751D01*
X64385Y607370D01*
D02*
G37*
G36*
X71612Y571555D02*
G74*
D01*
G03X63445Y563388I1943J10110*
G01*
X63445Y563388D01*
X71612Y563388D01*
X71612Y571555D01*
D02*
G37*
G36*
X88955Y563388D02*
G74*
D01*
G03X80788Y571555I10110J1943*
G01*
X80788Y571555D01*
X80788Y563388D01*
X88955Y563388D01*
D02*
G37*
G36*
X80788Y546045D02*
G74*
D01*
G03X88955Y554212I1943J10110*
G01*
X88955Y554212D01*
X80788Y554212D01*
X80788Y546045D01*
D02*
G37*
G36*
X71225Y558800D02*
G75*
D01*
G03X71225Y558800I4975J0*
G01*
D02*
G37*
G36*
X125745Y531790D02*
X125745Y531790D01*
X125745Y532231D01*
X120359Y532231D01*
X120359Y526495D01*
X120450Y526495D01*
G75*
D01*
G03X125745Y531790I0J5295*
G01*
D02*
G37*
G36*
X125745Y538590D02*
G74*
D01*
G03X120450Y543885I5295J0*
G01*
X120450Y543885D01*
X120359Y543885D01*
X120359Y538149D01*
X125745Y538149D01*
X125745Y538590D01*
D02*
G37*
G36*
X125745Y510190D02*
X125745Y510190D01*
X125745Y510631D01*
X120359Y510631D01*
X120359Y504895D01*
X120450Y504895D01*
G75*
D01*
G03X125745Y510190I0J5295*
G01*
D02*
G37*
G36*
X125745Y516990D02*
G74*
D01*
G03X120450Y522285I5295J0*
G01*
X120450Y522285D01*
X120359Y522285D01*
X120359Y516549D01*
X125745Y516549D01*
X125745Y516990D01*
D02*
G37*
G36*
X125745Y488590D02*
X125745Y488590D01*
X125745Y489031D01*
X120359Y489031D01*
X120359Y483295D01*
X120450Y483295D01*
G75*
D01*
G03X125745Y488590I0J5295*
G01*
D02*
G37*
G36*
X125745Y495390D02*
G74*
D01*
G03X120450Y500685I5295J0*
G01*
X120450Y500685D01*
X120359Y500685D01*
X120359Y494949D01*
X125745Y494949D01*
X125745Y495390D01*
D02*
G37*
G36*
X125745Y466990D02*
X125745Y466990D01*
X125745Y467431D01*
X120359Y467431D01*
X120359Y461695D01*
X120450Y461695D01*
G75*
D01*
G03X125745Y466990I0J5295*
G01*
D02*
G37*
G36*
X125745Y445390D02*
X125745Y445390D01*
X125745Y445831D01*
X120359Y445831D01*
X120359Y440095D01*
X120450Y440095D01*
G75*
D01*
G03X125745Y445390I0J5295*
G01*
D02*
G37*
G36*
X125745Y452190D02*
G74*
D01*
G03X120450Y457485I5295J0*
G01*
X120450Y457485D01*
X120359Y457485D01*
X120359Y451749D01*
X125745Y451749D01*
X125745Y452190D01*
D02*
G37*
G36*
X125745Y430590D02*
G74*
D01*
G03X120450Y435885I5295J0*
G01*
X120450Y435885D01*
X120359Y435885D01*
X120359Y430149D01*
X125745Y430149D01*
X125745Y430590D01*
D02*
G37*
G36*
X125745Y408990D02*
G74*
D01*
G03X120450Y414285I5295J0*
G01*
X120450Y414285D01*
X120359Y414285D01*
X120359Y408549D01*
X125745Y408549D01*
X125745Y408990D01*
D02*
G37*
G36*
X125745Y423790D02*
X125745Y423790D01*
X125745Y424231D01*
X120359Y424231D01*
X120359Y418495D01*
X120450Y418495D01*
G75*
D01*
G03X125745Y423790I0J5295*
G01*
D02*
G37*
G36*
X125745Y387390D02*
G74*
D01*
G03X120450Y392685I5295J0*
G01*
X120450Y392685D01*
X120359Y392685D01*
X120359Y386949D01*
X125745Y386949D01*
X125745Y387390D01*
D02*
G37*
G36*
X125745Y402190D02*
X125745Y402190D01*
X125745Y402631D01*
X120359Y402631D01*
X120359Y396895D01*
X120450Y396895D01*
G75*
D01*
G03X125745Y402190I0J5295*
G01*
D02*
G37*
G36*
X125745Y365790D02*
G74*
D01*
G03X120450Y371085I5295J0*
G01*
X120450Y371085D01*
X120359Y371085D01*
X120359Y365349D01*
X125745Y365349D01*
X125745Y365790D01*
D02*
G37*
G36*
X125745Y380590D02*
X125745Y380590D01*
X125745Y381031D01*
X120359Y381031D01*
X120359Y375295D01*
X120450Y375295D01*
G75*
D01*
G03X125745Y380590I0J5295*
G01*
D02*
G37*
G36*
X125745Y358990D02*
X125745Y358990D01*
X125745Y359431D01*
X120359Y359431D01*
X120359Y353695D01*
X120450Y353695D01*
G75*
D01*
G03X125745Y358990I0J5295*
G01*
D02*
G37*
G36*
X125745Y344190D02*
G74*
D01*
G03X120450Y349485I5295J0*
G01*
X120450Y349485D01*
X120359Y349485D01*
X120359Y343749D01*
X125745Y343749D01*
X125745Y344190D01*
D02*
G37*
G36*
X125745Y337390D02*
X125745Y337390D01*
X125745Y337831D01*
X120359Y337831D01*
X120359Y332095D01*
X120450Y332095D01*
G75*
D01*
G03X125745Y337390I0J5295*
G01*
D02*
G37*
G36*
X125745Y322590D02*
G74*
D01*
G03X120450Y327885I5295J0*
G01*
X120450Y327885D01*
X120359Y327885D01*
X120359Y322149D01*
X125745Y322149D01*
X125745Y322590D01*
D02*
G37*
G36*
X125745Y315790D02*
X125745Y315790D01*
X125745Y316231D01*
X120359Y316231D01*
X120359Y310495D01*
X120450Y310495D01*
G75*
D01*
G03X125745Y315790I0J5295*
G01*
D02*
G37*
G36*
X125745Y300990D02*
G74*
D01*
G03X120450Y306285I5295J0*
G01*
X120450Y306285D01*
X120359Y306285D01*
X120359Y300549D01*
X125745Y300549D01*
X125745Y300990D01*
D02*
G37*
G36*
X125745Y294190D02*
X125745Y294190D01*
X125745Y294631D01*
X120359Y294631D01*
X120359Y288895D01*
X120450Y288895D01*
G75*
D01*
G03X125745Y294190I0J5295*
G01*
D02*
G37*
G36*
X125745Y272590D02*
X125745Y272590D01*
X125745Y273031D01*
X120359Y273031D01*
X120359Y267295D01*
X120450Y267295D01*
G75*
D01*
G03X125745Y272590I0J5295*
G01*
D02*
G37*
G36*
X125745Y279390D02*
G74*
D01*
G03X120450Y284685I5295J0*
G01*
X120450Y284685D01*
X120359Y284685D01*
X120359Y278949D01*
X125745Y278949D01*
X125745Y279390D01*
D02*
G37*
G36*
X125745Y250990D02*
X125745Y250990D01*
X125745Y251431D01*
X120359Y251431D01*
X120359Y245695D01*
X120450Y245695D01*
G75*
D01*
G03X125745Y250990I0J5295*
G01*
D02*
G37*
G36*
X125745Y257790D02*
G74*
D01*
G03X120450Y263085I5295J0*
G01*
X120450Y263085D01*
X120359Y263085D01*
X120359Y257349D01*
X125745Y257349D01*
X125745Y257790D01*
D02*
G37*
G36*
X125745Y236190D02*
G74*
D01*
G03X120450Y241485I5295J0*
G01*
X120450Y241485D01*
X120359Y241485D01*
X120359Y235749D01*
X125745Y235749D01*
X125745Y236190D01*
D02*
G37*
G36*
X125745Y229390D02*
X125745Y229390D01*
X125745Y229831D01*
X120359Y229831D01*
X120359Y224095D01*
X120450Y224095D01*
G75*
D01*
G03X125745Y229390I0J5295*
G01*
D02*
G37*
G36*
X125745Y214590D02*
G74*
D01*
G03X120450Y219885I5295J0*
G01*
X120450Y219885D01*
X120359Y219885D01*
X120359Y214149D01*
X125745Y214149D01*
X125745Y214590D01*
D02*
G37*
G36*
X125745Y207790D02*
X125745Y207790D01*
X125745Y208231D01*
X120359Y208231D01*
X120359Y202495D01*
X120450Y202495D01*
G75*
D01*
G03X125745Y207790I0J5295*
G01*
D02*
G37*
G36*
X106225Y73970D02*
G75*
D01*
G03X107057Y71120I5295J0*
G01*
G74*
D01*
G03X106225Y68270I4463J2850*
G01*
X106225Y68270D01*
X106225Y61270D01*
G75*
D01*
G03X107057Y58420I5295J0*
G01*
G74*
D01*
G03X106225Y55570I4463J2850*
G01*
X106225Y55570D01*
X106225Y48570D01*
G75*
D01*
G03X107057Y45720I5295J0*
G01*
G74*
D01*
G03X106225Y42870I4463J2850*
G01*
X106225Y42870D01*
X106225Y35870D01*
G75*
D01*
G03X107057Y33020I5295J0*
G01*
G74*
D01*
G03X106225Y30170I4463J2850*
G01*
X106225Y30170D01*
X106225Y23170D01*
G75*
D01*
G03X111520Y17875I5295J0*
G01*
X111520Y17875D01*
X133520Y17875D01*
G75*
D01*
G03X138815Y23170I0J5295*
G01*
X138815Y23170D01*
X138815Y30170D01*
G74*
D01*
G03X137983Y33020I5295J0*
G01*
G75*
D01*
G03X138815Y35870I-4463J2850*
G01*
X138815Y35870D01*
X138815Y42870D01*
G74*
D01*
G03X138117Y45498I5295J0*
G01*
X138117Y45498D01*
X146144Y45498D01*
G75*
D01*
G03X161825Y58420I8796J5302*
G01*
G75*
D01*
G03X146144Y71342I-6885J7620*
G01*
X146144Y71342D01*
X138117Y71342D01*
G75*
D01*
G03X138815Y73970I-4597J2628*
G01*
X138815Y73970D01*
X138815Y74351D01*
X125639Y74351D01*
X125639Y73565D01*
X119401Y73565D01*
X119401Y74351D01*
X106225Y74351D01*
X106225Y73970D01*
D02*
G37*
G36*
X81520Y17875D02*
G75*
D01*
G03X86815Y23170I0J5295*
G01*
X86815Y23170D01*
X86815Y23551D01*
X73639Y23551D01*
X73639Y17875D01*
X81520Y17875D01*
D02*
G37*
G36*
X54225Y23170D02*
G75*
D01*
G03X59520Y17875I5295J0*
G01*
X59520Y17875D01*
X67401Y17875D01*
X67401Y23551D01*
X54225Y23551D01*
X54225Y23170D01*
D02*
G37*
%LPD*%
G36*
X102033Y703147D02*
G75*
D01*
G02X106688Y705072I4647J-4647*
G01*
X106688Y705072D01*
X116700Y705072D01*
G75*
D01*
G02X121680Y708565I4980J-1802*
G01*
X121680Y708565D01*
X143680Y708565D01*
G74*
D01*
G02X148975Y703270I0J5295*
G01*
X148975Y703270D01*
X148975Y696270D01*
G75*
D01*
G02X148143Y693420I-5295J0*
G01*
G74*
D01*
G02X148660Y692372I4463J2850*
G01*
X148660Y692372D01*
X149678Y692372D01*
X155988Y698682D01*
X155988Y702654D01*
X148934Y709708D01*
X33886Y709708D01*
X29188Y705010D01*
G75*
D01*
G02X30092Y705072I896J-6510*
G01*
X30092Y705072D01*
X64700Y705072D01*
G75*
D01*
G02X69680Y708565I4980J-1802*
G01*
X69680Y708565D01*
X91680Y708565D01*
G74*
D01*
G02X96975Y703270I0J5295*
G01*
X96975Y703270D01*
X96975Y698089D01*
X102033Y703147D01*
D02*
G37*
G36*
X165206Y579880D02*
X165206Y579880D01*
X158972Y586115D01*
X158972Y569142D01*
X162742Y565372D01*
X166221Y565372D01*
G74*
D01*
G02X173803Y571500I11579J6572*
G01*
G74*
D01*
G02X165206Y579880I3997J12700*
G01*
D02*
G37*
G36*
X37057Y691717D02*
G74*
D01*
G02X37278Y691928I4647J4647*
G01*
X37278Y691928D01*
X32806Y691928D01*
X23211Y682334D01*
X23211Y677871D01*
X37057Y691717D01*
D02*
G37*
G36*
X166750Y647723D02*
X166750Y647723D01*
X167200Y647274D01*
G74*
D01*
G02X169132Y642620I4640J4654*
G01*
X169132Y642620D01*
X169132Y620594D01*
G74*
D01*
G02X171228Y621761I6023J8349*
G01*
X171228Y621761D01*
X171228Y649619D01*
G74*
D01*
G02X166750Y647723I6128J8241*
G01*
D02*
G37*
G36*
X53871Y655098D02*
X53871Y655098D01*
X52426Y655098D01*
X42831Y645504D01*
X42831Y644851D01*
X51597Y653617D01*
G74*
D01*
G02X53871Y655098I4647J4647*
G01*
D02*
G37*
G36*
X149434Y639640D02*
X149434Y639640D01*
X155988Y633085D01*
X155988Y639898D01*
X153488Y642398D01*
X148277Y642398D01*
G74*
D01*
G02X148967Y640065I4597J2628*
G01*
G74*
D01*
G02X149434Y639640I4187J5065*
G01*
D02*
G37*
G36*
X53075Y85523D02*
G74*
D01*
G03X54790Y84288I4647J4647*
G01*
G74*
D01*
G03X54923Y84042I4730J2382*
G01*
X54923Y84042D01*
X51195Y84042D01*
X46512Y88725D01*
X46512Y92086D01*
X53075Y85523D01*
D02*
G37*
G36*
X41931Y58642D02*
X41931Y58642D01*
X38115Y58642D01*
X33432Y63325D01*
X33432Y66349D01*
X39657Y60123D01*
G74*
D01*
G03X41931Y58642I4647J4647*
G01*
D02*
G37*
G36*
X43031Y679104D02*
G75*
D01*
G02X45711Y679672I2673J-6004*
G01*
X45711Y679672D01*
X64700Y679672D01*
G74*
D01*
G02X65083Y680498I4980J1802*
G01*
X65083Y680498D01*
X44426Y680498D01*
X43031Y679104D01*
D02*
G37*
G36*
X169132Y598606D02*
X169132Y598606D01*
X169132Y594542D01*
X169260Y594414D01*
G74*
D01*
G02X173487Y596796I8540J10214*
G01*
G74*
D01*
G02X169132Y598606I1668J10159*
G01*
D02*
G37*
G36*
X131239Y124365D02*
G74*
D01*
G03X132938Y126284I6779J7715*
G01*
X132938Y126284D01*
X132938Y124365D01*
X131239Y124365D01*
D02*
G37*
G36*
X64111Y629574D02*
G74*
D01*
G02X65199Y629948I2673J6004*
G01*
G74*
D01*
G02X64942Y630405I4481J2822*
G01*
X64942Y630405D01*
X64111Y629574D01*
D02*
G37*
G54D11*
X162993Y472007D02*
G75*
D01*
G03X161634Y464693I4647J-4647*
G01*
G75*
D01*
G03X167640Y460788I6006J2667*
G01*
X171228Y460788D01*
X171228Y447040D01*
G75*
D01*
G03X184372Y447040I6572J0*
G01*
X184372Y460788D01*
X187960Y460788D01*
G75*
D01*
G03X192600Y472014I0J6572*
G01*
X187094Y477520D01*
X192607Y483033D01*
G75*
D01*
G03X192606Y492328I-4647J4647*
G01*
X182454Y502480D01*
G74*
D01*
G03X179484Y504192I4654J4640*
G01*
G75*
D01*
G03X171228Y497827I-1684J-6352*
G01*
X171228Y493185D01*
G75*
D01*
G03X162993Y483033I-3588J-5505*
G01*
X168506Y477520D01*
X165691Y474705D01*
X162993Y472007D01*
X125745Y473790D02*
G74*
D01*
G03X120450Y479085I5295J0*
G01*
X120359Y479085D01*
X120359Y473349D01*
X125745Y473349D01*
X125745Y473790D01*
X63277Y236797D02*
X59592Y233111D01*
X59592Y238258D01*
X68762Y247428D01*
X80233Y247428D01*
G75*
D01*
G03X84650Y245055I4417J2922*
G01*
X90750Y245055D01*
G74*
D01*
G03X92600Y245388I0J5295*
G01*
G75*
D01*
G03X94450Y245055I1850J4962*
G01*
X100550Y245055D01*
G74*
D01*
G03X103323Y245839I0J5295*
G01*
G75*
D01*
G03X104550Y245695I1227J5151*
G01*
X110650Y245695D01*
G74*
D01*
G03X112500Y246028I0J5295*
G01*
G75*
D01*
G03X114350Y245695I1850J4962*
G01*
X114441Y245695D01*
X114441Y247292D01*
G75*
D01*
G03X115945Y250990I-3791J3698*
G01*
X115945Y257790D01*
G74*
D01*
G03X114441Y261488I5295J0*
G01*
X114441Y263085D01*
X114350Y263085D01*
G75*
D01*
G03X112500Y262752I0J-5295*
G01*
G74*
D01*
G03X110650Y263085I1850J4962*
G01*
X104550Y263085D01*
G75*
D01*
G03X101777Y262301I0J-5295*
G01*
G74*
D01*
G03X100550Y262445I1227J5151*
G01*
X94450Y262445D01*
G75*
D01*
G03X92600Y262112I0J-5295*
G01*
G74*
D01*
G03X90750Y262445I1850J4962*
G01*
X84650Y262445D01*
G75*
D01*
G03X80608Y260572I0J-5295*
G01*
X66049Y260572D01*
G75*
D01*
G03X61393Y258647I-9J-6572*
G01*
X53052Y250305D01*
X53052Y251564D01*
X70266Y268778D01*
X80409Y268778D01*
G75*
D01*
G03X84650Y266655I4241J3172*
G01*
X90750Y266655D01*
G74*
D01*
G03X92600Y266988I0J5295*
G01*
G75*
D01*
G03X94450Y266655I1850J4962*
G01*
X100550Y266655D01*
G74*
D01*
G03X103323Y267439I0J5295*
G01*
G75*
D01*
G03X104550Y267295I1227J5151*
G01*
X110650Y267295D01*
G74*
D01*
G03X112500Y267628I0J5295*
G01*
G75*
D01*
G03X114350Y267295I1850J4962*
G01*
X114441Y267295D01*
X114441Y268892D01*
G75*
D01*
G03X115945Y272590I-3791J3698*
G01*
X115945Y279390D01*
G74*
D01*
G03X114441Y283088I5295J0*
G01*
X114441Y284685D01*
X114350Y284685D01*
G75*
D01*
G03X112500Y284352I0J-5295*
G01*
G74*
D01*
G03X110650Y284685I1850J4962*
G01*
X104550Y284685D01*
G75*
D01*
G03X101777Y283901I0J-5295*
G01*
G74*
D01*
G03X100550Y284045I1227J5151*
G01*
X94450Y284045D01*
G75*
D01*
G03X92600Y283712I0J-5295*
G01*
G74*
D01*
G03X90750Y284045I1850J4962*
G01*
X84650Y284045D01*
G75*
D01*
G03X80409Y281922I0J-5295*
G01*
X67550Y281922D01*
G75*
D01*
G03X62897Y279997I-6J-6572*
G01*
X46512Y263611D01*
X46512Y275704D01*
X61186Y290378D01*
X80409Y290378D01*
G75*
D01*
G03X84650Y288255I4241J3172*
G01*
X90750Y288255D01*
G74*
D01*
G03X92600Y288588I0J5295*
G01*
G75*
D01*
G03X94450Y288255I1850J4962*
G01*
X100550Y288255D01*
G74*
D01*
G03X103323Y289039I0J5295*
G01*
G75*
D01*
G03X104550Y288895I1227J5151*
G01*
X110650Y288895D01*
G74*
D01*
G03X112500Y289228I0J5295*
G01*
G75*
D01*
G03X114350Y288895I1850J4962*
G01*
X114441Y288895D01*
X114441Y290492D01*
G75*
D01*
G03X115945Y294190I-3791J3698*
G01*
X115945Y300990D01*
G74*
D01*
G03X114441Y304688I5295J0*
G01*
X114441Y306285D01*
X114350Y306285D01*
G75*
D01*
G03X112500Y305952I0J-5295*
G01*
G74*
D01*
G03X110650Y306285I1850J4962*
G01*
X104550Y306285D01*
G75*
D01*
G03X101777Y305501I0J-5295*
G01*
G74*
D01*
G03X100550Y305645I1227J5151*
G01*
X94450Y305645D01*
G75*
D01*
G03X92600Y305312I0J-5295*
G01*
G74*
D01*
G03X90750Y305645I1850J4962*
G01*
X84650Y305645D01*
G75*
D01*
G03X80409Y303522I0J-5295*
G01*
X58470Y303522D01*
G75*
D01*
G03X53817Y301597I-6J-6572*
G01*
X39972Y287751D01*
X39972Y294764D01*
X57186Y311978D01*
X80409Y311978D01*
G75*
D01*
G03X84650Y309855I4241J3172*
G01*
X90750Y309855D01*
G74*
D01*
G03X92600Y310188I0J5295*
G01*
G75*
D01*
G03X94450Y309855I1850J4962*
G01*
X100550Y309855D01*
G74*
D01*
G03X103323Y310639I0J5295*
G01*
G75*
D01*
G03X104550Y310495I1227J5151*
G01*
X110650Y310495D01*
G74*
D01*
G03X112500Y310828I0J5295*
G01*
G75*
D01*
G03X114350Y310495I1850J4962*
G01*
X114441Y310495D01*
X114441Y312092D01*
G75*
D01*
G03X115945Y315790I-3791J3698*
G01*
X115945Y322590D01*
G74*
D01*
G03X114441Y326288I5295J0*
G01*
X114441Y327885D01*
X114350Y327885D01*
G75*
D01*
G03X112500Y327552I0J-5295*
G01*
G74*
D01*
G03X110650Y327885I1850J4962*
G01*
X104550Y327885D01*
G75*
D01*
G03X101777Y327101I0J-5295*
G01*
G74*
D01*
G03X100550Y327245I1227J5151*
G01*
X94450Y327245D01*
G75*
D01*
G03X92600Y326912I0J-5295*
G01*
G74*
D01*
G03X90750Y327245I1850J4962*
G01*
X84650Y327245D01*
G75*
D01*
G03X80409Y325122I0J-5295*
G01*
X54470Y325122D01*
G75*
D01*
G03X49817Y323197I-6J-6572*
G01*
X33432Y306811D01*
X33432Y313824D01*
X53186Y333578D01*
X80409Y333578D01*
G75*
D01*
G03X84650Y331455I4241J3172*
G01*
X90750Y331455D01*
G74*
D01*
G03X92600Y331788I0J5295*
G01*
G75*
D01*
G03X94450Y331455I1850J4962*
G01*
X100550Y331455D01*
G74*
D01*
G03X103323Y332239I0J5295*
G01*
G75*
D01*
G03X104550Y332095I1227J5151*
G01*
X110650Y332095D01*
G74*
D01*
G03X112500Y332428I0J5295*
G01*
G75*
D01*
G03X114350Y332095I1850J4962*
G01*
X114441Y332095D01*
X114441Y333692D01*
G75*
D01*
G03X115945Y337390I-3791J3698*
G01*
X115945Y344190D01*
G74*
D01*
G03X114441Y347888I5295J0*
G01*
X114441Y349485D01*
X114350Y349485D01*
G75*
D01*
G03X112500Y349152I0J-5295*
G01*
G74*
D01*
G03X110650Y349485I1850J4962*
G01*
X104550Y349485D01*
G75*
D01*
G03X101777Y348701I0J-5295*
G01*
G74*
D01*
G03X100550Y348845I1227J5151*
G01*
X94450Y348845D01*
G75*
D01*
G03X92600Y348512I0J-5295*
G01*
G74*
D01*
G03X90750Y348845I1850J4962*
G01*
X84650Y348845D01*
G75*
D01*
G03X80409Y346722I0J-5295*
G01*
X50468Y346722D01*
G75*
D01*
G03X45817Y344797I-4J-6572*
G01*
X26892Y325871D01*
X26892Y332884D01*
X49186Y355178D01*
X80409Y355178D01*
G75*
D01*
G03X84650Y353055I4241J3172*
G01*
X90750Y353055D01*
G74*
D01*
G03X92600Y353388I0J5295*
G01*
G75*
D01*
G03X94450Y353055I1850J4962*
G01*
X100550Y353055D01*
G74*
D01*
G03X103323Y353839I0J5295*
G01*
G75*
D01*
G03X104550Y353695I1227J5151*
G01*
X110650Y353695D01*
G74*
D01*
G03X112500Y354028I0J5295*
G01*
G75*
D01*
G03X114350Y353695I1850J4962*
G01*
X114441Y353695D01*
X114441Y355292D01*
G75*
D01*
G03X115945Y358990I-3791J3698*
G01*
X115945Y365790D01*
G74*
D01*
G03X114441Y369488I5295J0*
G01*
X114441Y371085D01*
X114350Y371085D01*
G75*
D01*
G03X112500Y370752I0J-5295*
G01*
G74*
D01*
G03X110650Y371085I1850J4962*
G01*
X104550Y371085D01*
G75*
D01*
G03X101777Y370301I0J-5295*
G01*
G74*
D01*
G03X100550Y370445I1227J5151*
G01*
X94450Y370445D01*
G75*
D01*
G03X92600Y370112I0J-5295*
G01*
G74*
D01*
G03X90750Y370445I1850J4962*
G01*
X84650Y370445D01*
G75*
D01*
G03X80409Y368322I0J-5295*
G01*
X46467Y368322D01*
G75*
D01*
G03X41817Y366397I-3J-6572*
G01*
X15673Y340253D01*
G75*
D01*
G03X13748Y335599I4647J-4647*
G01*
X13748Y50285D01*
G75*
D01*
G03X15673Y45627I6572J-11*
G01*
X26577Y34723D01*
G75*
D01*
G03X31233Y32798I4647J4647*
G01*
X54923Y32798D01*
G74*
D01*
G03X54225Y30170I4597J2628*
G01*
X54225Y29789D01*
X67401Y29789D01*
X67401Y30575D01*
X73639Y30575D01*
X73639Y29789D01*
X86815Y29789D01*
X86815Y30170D01*
G74*
D01*
G03X85983Y33020I5295J0*
G01*
G75*
D01*
G03X86815Y35870I-4463J2850*
G01*
X86815Y42870D01*
G74*
D01*
G03X85983Y45720I5295J0*
G01*
G75*
D01*
G03X86815Y48570I-4463J2850*
G01*
X86815Y55570D01*
G74*
D01*
G03X85983Y58420I5295J0*
G01*
G75*
D01*
G03X86815Y61270I-4463J2850*
G01*
X86815Y68270D01*
G74*
D01*
G03X85983Y71120I5295J0*
G01*
G75*
D01*
G03X86815Y73970I-4463J2850*
G01*
X86815Y80970D01*
G74*
D01*
G03X85983Y83820I5295J0*
G01*
G75*
D01*
G03X86815Y86670I-4463J2850*
G01*
X86815Y93670D01*
G74*
D01*
G03X85983Y96520I5295J0*
G01*
G75*
D01*
G03X86815Y99370I-4463J2850*
G01*
X86815Y106370D01*
G74*
D01*
G03X85983Y109220I5295J0*
G01*
G75*
D01*
G03X86815Y112070I-4463J2850*
G01*
X86815Y119070D01*
G74*
D01*
G03X81520Y124365I5295J0*
G01*
X66132Y124365D01*
X66132Y221064D01*
X70646Y225578D01*
X80409Y225578D01*
G75*
D01*
G03X84650Y223455I4241J3172*
G01*
X90750Y223455D01*
G74*
D01*
G03X92600Y223788I0J5295*
G01*
G75*
D01*
G03X94450Y223455I1850J4962*
G01*
X100550Y223455D01*
G74*
D01*
G03X103323Y224239I0J5295*
G01*
G75*
D01*
G03X104550Y224095I1227J5151*
G01*
X110650Y224095D01*
G74*
D01*
G03X112500Y224428I0J5295*
G01*
G75*
D01*
G03X114350Y224095I1850J4962*
G01*
X114441Y224095D01*
X114441Y225692D01*
G75*
D01*
G03X115945Y229390I-3791J3698*
G01*
X115945Y236190D01*
G74*
D01*
G03X114441Y239888I5295J0*
G01*
X114441Y241485D01*
X114350Y241485D01*
G75*
D01*
G03X112500Y241152I0J-5295*
G01*
G74*
D01*
G03X110650Y241485I1850J4962*
G01*
X104550Y241485D01*
G75*
D01*
G03X101777Y240701I0J-5295*
G01*
G74*
D01*
G03X100550Y240845I1227J5151*
G01*
X94450Y240845D01*
G75*
D01*
G03X92600Y240512I0J-5295*
G01*
G74*
D01*
G03X90750Y240845I1850J4962*
G01*
X84650Y240845D01*
G75*
D01*
G03X80409Y238722I0J-5295*
G01*
X67933Y238722D01*
G75*
D01*
G03X63277Y236797I-9J-6572*
G01*
X63445Y554212D02*
G74*
D01*
G03X71612Y546045I10110J1943*
G01*
X71612Y554212D01*
X63445Y554212D01*
X64385Y607370D02*
G75*
D01*
G03X69680Y602075I5295J0*
G01*
X77561Y602075D01*
X77561Y607751D01*
X64385Y607751D01*
X64385Y607370D01*
X71612Y571555D02*
G74*
D01*
G03X63445Y563388I1943J10110*
G01*
X71612Y563388D01*
X71612Y571555D01*
X88955Y563388D02*
G74*
D01*
G03X80788Y571555I10110J1943*
G01*
X80788Y563388D01*
X88955Y563388D01*
X80788Y546045D02*
G74*
D01*
G03X88955Y554212I1943J10110*
G01*
X80788Y554212D01*
X80788Y546045D01*
X71225Y558800D02*
G75*
D01*
G03X71225Y558800I4975J0*
G01*
X125745Y531790D02*
X125745Y532231D01*
X120359Y532231D01*
X120359Y526495D01*
X120450Y526495D01*
G75*
D01*
G03X125745Y531790I0J5295*
G01*
X125745Y538590D02*
G74*
D01*
G03X120450Y543885I5295J0*
G01*
X120359Y543885D01*
X120359Y538149D01*
X125745Y538149D01*
X125745Y538590D01*
X125745Y510190D02*
X125745Y510631D01*
X120359Y510631D01*
X120359Y504895D01*
X120450Y504895D01*
G75*
D01*
G03X125745Y510190I0J5295*
G01*
X125745Y516990D02*
G74*
D01*
G03X120450Y522285I5295J0*
G01*
X120359Y522285D01*
X120359Y516549D01*
X125745Y516549D01*
X125745Y516990D01*
X125745Y488590D02*
X125745Y489031D01*
X120359Y489031D01*
X120359Y483295D01*
X120450Y483295D01*
G75*
D01*
G03X125745Y488590I0J5295*
G01*
X125745Y495390D02*
G74*
D01*
G03X120450Y500685I5295J0*
G01*
X120359Y500685D01*
X120359Y494949D01*
X125745Y494949D01*
X125745Y495390D01*
X125745Y466990D02*
X125745Y467431D01*
X120359Y467431D01*
X120359Y461695D01*
X120450Y461695D01*
G75*
D01*
G03X125745Y466990I0J5295*
G01*
X125745Y445390D02*
X125745Y445831D01*
X120359Y445831D01*
X120359Y440095D01*
X120450Y440095D01*
G75*
D01*
G03X125745Y445390I0J5295*
G01*
X125745Y452190D02*
G74*
D01*
G03X120450Y457485I5295J0*
G01*
X120359Y457485D01*
X120359Y451749D01*
X125745Y451749D01*
X125745Y452190D01*
X125745Y430590D02*
G74*
D01*
G03X120450Y435885I5295J0*
G01*
X120359Y435885D01*
X120359Y430149D01*
X125745Y430149D01*
X125745Y430590D01*
X125745Y408990D02*
G74*
D01*
G03X120450Y414285I5295J0*
G01*
X120359Y414285D01*
X120359Y408549D01*
X125745Y408549D01*
X125745Y408990D01*
X125745Y423790D02*
X125745Y424231D01*
X120359Y424231D01*
X120359Y418495D01*
X120450Y418495D01*
G75*
D01*
G03X125745Y423790I0J5295*
G01*
X125745Y387390D02*
G74*
D01*
G03X120450Y392685I5295J0*
G01*
X120359Y392685D01*
X120359Y386949D01*
X125745Y386949D01*
X125745Y387390D01*
X125745Y402190D02*
X125745Y402631D01*
X120359Y402631D01*
X120359Y396895D01*
X120450Y396895D01*
G75*
D01*
G03X125745Y402190I0J5295*
G01*
X125745Y365790D02*
G74*
D01*
G03X120450Y371085I5295J0*
G01*
X120359Y371085D01*
X120359Y365349D01*
X125745Y365349D01*
X125745Y365790D01*
X125745Y380590D02*
X125745Y381031D01*
X120359Y381031D01*
X120359Y375295D01*
X120450Y375295D01*
G75*
D01*
G03X125745Y380590I0J5295*
G01*
X125745Y358990D02*
X125745Y359431D01*
X120359Y359431D01*
X120359Y353695D01*
X120450Y353695D01*
G75*
D01*
G03X125745Y358990I0J5295*
G01*
X125745Y344190D02*
G74*
D01*
G03X120450Y349485I5295J0*
G01*
X120359Y349485D01*
X120359Y343749D01*
X125745Y343749D01*
X125745Y344190D01*
X125745Y337390D02*
X125745Y337831D01*
X120359Y337831D01*
X120359Y332095D01*
X120450Y332095D01*
G75*
D01*
G03X125745Y337390I0J5295*
G01*
X125745Y322590D02*
G74*
D01*
G03X120450Y327885I5295J0*
G01*
X120359Y327885D01*
X120359Y322149D01*
X125745Y322149D01*
X125745Y322590D01*
X125745Y315790D02*
X125745Y316231D01*
X120359Y316231D01*
X120359Y310495D01*
X120450Y310495D01*
G75*
D01*
G03X125745Y315790I0J5295*
G01*
X125745Y300990D02*
G74*
D01*
G03X120450Y306285I5295J0*
G01*
X120359Y306285D01*
X120359Y300549D01*
X125745Y300549D01*
X125745Y300990D01*
X125745Y294190D02*
X125745Y294631D01*
X120359Y294631D01*
X120359Y288895D01*
X120450Y288895D01*
G75*
D01*
G03X125745Y294190I0J5295*
G01*
X125745Y272590D02*
X125745Y273031D01*
X120359Y273031D01*
X120359Y267295D01*
X120450Y267295D01*
G75*
D01*
G03X125745Y272590I0J5295*
G01*
X125745Y279390D02*
G74*
D01*
G03X120450Y284685I5295J0*
G01*
X120359Y284685D01*
X120359Y278949D01*
X125745Y278949D01*
X125745Y279390D01*
X125745Y250990D02*
X125745Y251431D01*
X120359Y251431D01*
X120359Y245695D01*
X120450Y245695D01*
G75*
D01*
G03X125745Y250990I0J5295*
G01*
X125745Y257790D02*
G74*
D01*
G03X120450Y263085I5295J0*
G01*
X120359Y263085D01*
X120359Y257349D01*
X125745Y257349D01*
X125745Y257790D01*
X125745Y236190D02*
G74*
D01*
G03X120450Y241485I5295J0*
G01*
X120359Y241485D01*
X120359Y235749D01*
X125745Y235749D01*
X125745Y236190D01*
X125745Y229390D02*
X125745Y229831D01*
X120359Y229831D01*
X120359Y224095D01*
X120450Y224095D01*
G75*
D01*
G03X125745Y229390I0J5295*
G01*
X125745Y214590D02*
G74*
D01*
G03X120450Y219885I5295J0*
G01*
X120359Y219885D01*
X120359Y214149D01*
X125745Y214149D01*
X125745Y214590D01*
X125745Y207790D02*
X125745Y208231D01*
X120359Y208231D01*
X120359Y202495D01*
X120450Y202495D01*
G75*
D01*
G03X125745Y207790I0J5295*
G01*
X106225Y73970D02*
G75*
D01*
G03X107057Y71120I5295J0*
G01*
G74*
D01*
G03X106225Y68270I4463J2850*
G01*
X106225Y61270D01*
G75*
D01*
G03X107057Y58420I5295J0*
G01*
G74*
D01*
G03X106225Y55570I4463J2850*
G01*
X106225Y48570D01*
G75*
D01*
G03X107057Y45720I5295J0*
G01*
G74*
D01*
G03X106225Y42870I4463J2850*
G01*
X106225Y35870D01*
G75*
D01*
G03X107057Y33020I5295J0*
G01*
G74*
D01*
G03X106225Y30170I4463J2850*
G01*
X106225Y23170D01*
G75*
D01*
G03X111520Y17875I5295J0*
G01*
X133520Y17875D01*
G75*
D01*
G03X138815Y23170I0J5295*
G01*
X138815Y30170D01*
G74*
D01*
G03X137983Y33020I5295J0*
G01*
G75*
D01*
G03X138815Y35870I-4463J2850*
G01*
X138815Y42870D01*
G74*
D01*
G03X138117Y45498I5295J0*
G01*
X146144Y45498D01*
G75*
D01*
G03X161825Y58420I8796J5302*
G01*
G75*
D01*
G03X146144Y71342I-6885J7620*
G01*
X138117Y71342D01*
G75*
D01*
G03X138815Y73970I-4597J2628*
G01*
X138815Y74351D01*
X125639Y74351D01*
X125639Y73565D01*
X119401Y73565D01*
X119401Y74351D01*
X106225Y74351D01*
X106225Y73970D01*
X81520Y17875D02*
G75*
D01*
G03X86815Y23170I0J5295*
G01*
X86815Y23551D01*
X73639Y23551D01*
X73639Y17875D01*
X81520Y17875D01*
X54225Y23170D02*
G75*
D01*
G03X59520Y17875I5295J0*
G01*
X67401Y17875D01*
X67401Y23551D01*
X54225Y23551D01*
X54225Y23170D01*
X80409Y454722D02*
X50966Y454722D01*
X36291Y469396D01*
X36291Y481489D01*
X43075Y474705D01*
X43075Y474705D01*
X52677Y465103D01*
G75*
D01*
G03X57329Y463178I4647J4647*
G01*
X80409Y463178D01*
G75*
D01*
G03X84650Y461055I4241J3172*
G01*
X90750Y461055D01*
G74*
D01*
G03X92600Y461388I0J5295*
G01*
G75*
D01*
G03X94450Y461055I1850J4962*
G01*
X100550Y461055D01*
G74*
D01*
G03X103323Y461839I0J5295*
G01*
G75*
D01*
G03X104550Y461695I1227J5151*
G01*
X110650Y461695D01*
G74*
D01*
G03X112500Y462028I0J5295*
G01*
G75*
D01*
G03X114350Y461695I1850J4962*
G01*
X114441Y461695D01*
X114441Y463292D01*
G75*
D01*
G03X115945Y466990I-3791J3698*
G01*
X115945Y473790D01*
G74*
D01*
G03X114441Y477488I5295J0*
G01*
X114441Y479085D01*
X114350Y479085D01*
G75*
D01*
G03X112500Y478752I0J-5295*
G01*
G74*
D01*
G03X110650Y479085I1850J4962*
G01*
X104550Y479085D01*
G75*
D01*
G03X101777Y478301I0J-5295*
G01*
G74*
D01*
G03X100550Y478445I1227J5151*
G01*
X94450Y478445D01*
G75*
D01*
G03X92600Y478112I0J-5295*
G01*
G74*
D01*
G03X90750Y478445I1850J4962*
G01*
X84650Y478445D01*
G75*
D01*
G03X80409Y476322I0J-5295*
G01*
X60046Y476322D01*
X42831Y493536D01*
X42831Y504518D01*
X60646Y486703D01*
G75*
D01*
G03X65301Y484778I4647J4647*
G01*
X80409Y484778D01*
G75*
D01*
G03X84650Y482655I4241J3172*
G01*
X90750Y482655D01*
G74*
D01*
G03X92600Y482988I0J5295*
G01*
G75*
D01*
G03X94450Y482655I1850J4962*
G01*
X100550Y482655D01*
G74*
D01*
G03X103323Y483439I0J5295*
G01*
G75*
D01*
G03X104550Y483295I1227J5151*
G01*
X110650Y483295D01*
G74*
D01*
G03X112500Y483628I0J5295*
G01*
G75*
D01*
G03X114350Y483295I1850J4962*
G01*
X114441Y483295D01*
X114441Y484892D01*
G75*
D01*
G03X115945Y488590I-3791J3698*
G01*
X115945Y495390D01*
G74*
D01*
G03X114441Y499088I5295J0*
G01*
X114441Y500685D01*
X114350Y500685D01*
G75*
D01*
G03X112500Y500352I0J-5295*
G01*
G74*
D01*
G03X110650Y500685I1850J4962*
G01*
X104550Y500685D01*
G75*
D01*
G03X101777Y499901I0J-5295*
G01*
G74*
D01*
G03X100550Y500045I1227J5151*
G01*
X94450Y500045D01*
G75*
D01*
G03X92600Y499712I0J-5295*
G01*
G74*
D01*
G03X90750Y500045I1850J4962*
G01*
X84650Y500045D01*
G75*
D01*
G03X80409Y497922I0J-5295*
G01*
X68015Y497922D01*
X49371Y516565D01*
X49371Y517386D01*
X58455Y508303D01*
G75*
D01*
G03X63110Y506378I4646J4647*
G01*
X80409Y506378D01*
G75*
D01*
G03X84650Y504255I4241J3172*
G01*
X90750Y504255D01*
G74*
D01*
G03X92600Y504588I0J5295*
G01*
G75*
D01*
G03X94450Y504255I1850J4962*
G01*
X100550Y504255D01*
G74*
D01*
G03X103323Y505039I0J5295*
G01*
G75*
D01*
G03X104550Y504895I1227J5151*
G01*
X110650Y504895D01*
G74*
D01*
G03X112500Y505228I0J5295*
G01*
G75*
D01*
G03X114350Y504895I1850J4962*
G01*
X114441Y504895D01*
X114441Y506492D01*
G75*
D01*
G03X115945Y510190I-3791J3698*
G01*
X115945Y516990D01*
G74*
D01*
G03X114441Y520688I5295J0*
G01*
X114441Y522285D01*
X114350Y522285D01*
G75*
D01*
G03X112500Y521952I0J-5295*
G01*
G74*
D01*
G03X110650Y522285I1850J4962*
G01*
X104550Y522285D01*
G75*
D01*
G03X101777Y521501I0J-5295*
G01*
G74*
D01*
G03X100550Y521645I1227J5151*
G01*
X94450Y521645D01*
G75*
D01*
G03X92600Y521312I0J-5295*
G01*
G74*
D01*
G03X90750Y521645I1850J4962*
G01*
X84650Y521645D01*
G75*
D01*
G03X80409Y519522I0J-5295*
G01*
X65824Y519522D01*
X55911Y529434D01*
X55911Y536129D01*
X62137Y529903D01*
G75*
D01*
G03X66792Y527978I4647J4647*
G01*
X80409Y527978D01*
G75*
D01*
G03X84650Y525855I4241J3172*
G01*
X90750Y525855D01*
G74*
D01*
G03X92600Y526188I0J5295*
G01*
G75*
D01*
G03X94450Y525855I1850J4962*
G01*
X100550Y525855D01*
G74*
D01*
G03X103323Y526639I0J5295*
G01*
G75*
D01*
G03X104550Y526495I1227J5151*
G01*
X110650Y526495D01*
G74*
D01*
G03X112500Y526828I0J5295*
G01*
G75*
D01*
G03X114350Y526495I1850J4962*
G01*
X114441Y526495D01*
X114441Y528092D01*
G75*
D01*
G03X115945Y531790I-3791J3698*
G01*
X115945Y538590D01*
G74*
D01*
G03X114441Y542288I5295J0*
G01*
X114441Y543885D01*
X114350Y543885D01*
G75*
D01*
G03X112500Y543552I0J-5295*
G01*
G74*
D01*
G03X110650Y543885I1850J4962*
G01*
X104550Y543885D01*
G75*
D01*
G03X101777Y543101I0J-5295*
G01*
G74*
D01*
G03X100550Y543245I1227J5151*
G01*
X94450Y543245D01*
G75*
D01*
G03X92600Y542912I0J-5295*
G01*
G74*
D01*
G03X90750Y543245I1850J4962*
G01*
X84650Y543245D01*
G75*
D01*
G03X80409Y541122I0J-5295*
G01*
X69506Y541122D01*
X62451Y548176D01*
X62451Y609944D01*
X66496Y613989D01*
X77561Y613989D01*
X77561Y614775D01*
X83799Y614775D01*
X83799Y613989D01*
X92488Y613989D01*
X92488Y607751D01*
X83799Y607751D01*
X83799Y602075D01*
X91680Y602075D01*
G74*
D01*
G03X92488Y602137I0J5295*
G01*
X92488Y600892D01*
X89988Y598392D01*
X83820Y598392D01*
G75*
D01*
G03X82493Y598256I0J-6572*
G01*
G74*
D01*
G03X79800Y597018I1327J6436*
G01*
G75*
D01*
G03X89473Y585248I-3600J-12818*
G01*
X92710Y585248D01*
G74*
D01*
G03X97364Y587180I0J6572*
G01*
X103700Y593516D01*
G75*
D01*
G03X105632Y598170I-4640J4654*
G01*
X105632Y688158D01*
X109402Y691928D01*
X116562Y691928D01*
G74*
D01*
G03X116385Y690570I5118J1358*
G01*
X116385Y683570D01*
G75*
D01*
G03X117217Y680720I5295J0*
G01*
G74*
D01*
G03X116385Y677870I4463J2850*
G01*
X116385Y670870D01*
G75*
D01*
G03X117217Y668020I5295J0*
G01*
G74*
D01*
G03X116385Y665170I4463J2850*
G01*
X116385Y664789D01*
X129561Y664789D01*
X129561Y665575D01*
X135799Y665575D01*
X135799Y664789D01*
X148975Y664789D01*
X148975Y665170D01*
G74*
D01*
G03X148277Y667798I5295J0*
G01*
X162511Y667798D01*
G75*
D01*
G03X154873Y656926I2589J-9938*
G01*
X153488Y655542D01*
X148277Y655542D01*
G75*
D01*
G03X148975Y658170I-4597J2628*
G01*
X148975Y658551D01*
X135799Y658551D01*
X135799Y657765D01*
X129561Y657765D01*
X129561Y658551D01*
X116385Y658551D01*
X116385Y658170D01*
G75*
D01*
G03X117217Y655320I5295J0*
G01*
G74*
D01*
G03X116385Y652470I4463J2850*
G01*
X116385Y645470D01*
G75*
D01*
G03X117217Y642620I5295J0*
G01*
G74*
D01*
G03X116385Y639770I4463J2850*
G01*
X116385Y632770D01*
G75*
D01*
G03X117217Y629920I5295J0*
G01*
G74*
D01*
G03X116385Y627070I4463J2850*
G01*
X116385Y620070D01*
G75*
D01*
G03X117217Y617220I5295J0*
G01*
G74*
D01*
G03X116385Y614370I4463J2850*
G01*
X116385Y607370D01*
G75*
D01*
G03X121680Y602075I5295J0*
G01*
X143680Y602075D01*
G74*
D01*
G03X145828Y602530I0J5295*
G01*
X145828Y588232D01*
X142512Y588232D01*
G75*
D01*
G03X142512Y575088I-7892J-6572*
G01*
X145828Y575088D01*
X145828Y566430D01*
G75*
D01*
G03X147753Y561773I6572J-10*
G01*
X155373Y554153D01*
G75*
D01*
G03X160028Y552228I4647J4647*
G01*
X166221Y552228D01*
G74*
D01*
G03X173803Y546100I11579J6572*
G01*
G74*
D01*
G03X166122Y539794I3997J12700*
G01*
G74*
D01*
G03X165888Y539734I1518J6394*
G01*
G74*
D01*
G03X162993Y538047I1752J6334*
G01*
X141403Y516457D01*
G75*
D01*
G03X139478Y511797I4647J-4647*
G01*
X139478Y145741D01*
X130720Y154500D01*
G74*
D01*
G03X128157Y156090I4654J4640*
G01*
G75*
D01*
G03X126058Y156432I-2091J-6230*
G01*
X99242Y156432D01*
X92932Y162742D01*
X92932Y202077D01*
G75*
D01*
G03X94450Y201855I1518J5073*
G01*
X100550Y201855D01*
G74*
D01*
G03X103323Y202639I0J5295*
G01*
G75*
D01*
G03X104550Y202495I1227J5151*
G01*
X110650Y202495D01*
G74*
D01*
G03X112500Y202828I0J5295*
G01*
G75*
D01*
G03X114350Y202495I1850J4962*
G01*
X114441Y202495D01*
X114441Y204092D01*
G75*
D01*
G03X115945Y207790I-3791J3698*
G01*
X115945Y214590D01*
G74*
D01*
G03X114441Y218288I5295J0*
G01*
X114441Y219885D01*
X114350Y219885D01*
G75*
D01*
G03X112500Y219552I0J-5295*
G01*
G74*
D01*
G03X110650Y219885I1850J4962*
G01*
X104550Y219885D01*
G75*
D01*
G03X101777Y219101I0J-5295*
G01*
G74*
D01*
G03X100550Y219245I1227J5151*
G01*
X94450Y219245D01*
G75*
D01*
G03X92600Y218912I0J-5295*
G01*
G74*
D01*
G03X90750Y219245I1850J4962*
G01*
X84650Y219245D01*
G75*
D01*
G03X79355Y213950I0J-5295*
G01*
X79355Y207150D01*
G75*
D01*
G03X79788Y205051I5295J0*
G01*
X79788Y160033D01*
G75*
D01*
G03X81713Y155373I6572J-13*
G01*
X91873Y145213D01*
G74*
D01*
G03X94883Y143496I4647J4647*
G01*
G75*
D01*
G03X96520Y143288I1637J6364*
G01*
X123344Y143288D01*
X124284Y142348D01*
G75*
D01*
G03X115948Y126333I176J-10268*
G01*
X115948Y124365D01*
X111520Y124365D01*
G75*
D01*
G03X106225Y119070I0J-5295*
G01*
X106225Y112070D01*
G75*
D01*
G03X107057Y109220I5295J0*
G01*
G74*
D01*
G03X106225Y106370I4463J2850*
G01*
X106225Y99370D01*
G75*
D01*
G03X107057Y96520I5295J0*
G01*
G74*
D01*
G03X106225Y93670I4463J2850*
G01*
X106225Y86670D01*
G75*
D01*
G03X107057Y83820I5295J0*
G01*
G74*
D01*
G03X106225Y80970I4463J2850*
G01*
X106225Y80589D01*
X119401Y80589D01*
X119401Y81375D01*
X125639Y81375D01*
X125639Y80589D01*
X138815Y80589D01*
X138815Y80970D01*
G74*
D01*
G03X138109Y83612I5295J0*
G01*
G74*
D01*
G03X140149Y84077I423J6558*
G01*
G74*
D01*
G03X142340Y85530I2463J6093*
G01*
X150690Y93880D01*
G75*
D01*
G03X152622Y98534I-4640J4654*
G01*
X152622Y509088D01*
X167962Y524429D01*
G75*
D01*
G03X181797Y546100I9838J8971*
G01*
G75*
D01*
G03X181797Y571500I-3997J12700*
G01*
G75*
D01*
G03X182113Y596796I-3997J12700*
G01*
G75*
D01*
G03X190740Y606955I-1668J10159*
G01*
X190740Y612245D01*
G74*
D01*
G03X184372Y621761I10295J0*
G01*
X184372Y662940D01*
G74*
D01*
G03X182440Y667594I6572J0*
G01*
X171024Y679010D01*
G74*
D01*
G03X166370Y680942I4654J4640*
G01*
X156825Y680942D01*
G74*
D01*
G03X157054Y681160I4425J4858*
G01*
X167200Y691306D01*
G75*
D01*
G03X169132Y695960I-4640J4654*
G01*
X169132Y705376D01*
G74*
D01*
G03X167200Y710030I6572J0*
G01*
X162525Y714705D01*
X156310Y720920D01*
G74*
D01*
G03X151656Y722852I4654J4640*
G01*
X31169Y722852D01*
G75*
D01*
G03X26517Y720927I-5J-6572*
G01*
X20294Y714705D01*
X20294Y714705D01*
X5453Y699863D01*
G74*
D01*
G03X5295Y699700I4647J4647*
G01*
X5295Y734705D01*
X219705Y734705D01*
X219705Y5295D01*
X5295Y5295D01*
X5295Y397390D01*
G74*
D01*
G03X5453Y397227I4805J4484*
G01*
X23977Y378703D01*
G75*
D01*
G03X28630Y376778I4647J4647*
G01*
X80409Y376778D01*
G75*
D01*
G03X84650Y374655I4241J3172*
G01*
X90750Y374655D01*
G74*
D01*
G03X92600Y374988I0J5295*
G01*
G75*
D01*
G03X94450Y374655I1850J4962*
G01*
X100550Y374655D01*
G74*
D01*
G03X103323Y375439I0J5295*
G01*
G75*
D01*
G03X104550Y375295I1227J5151*
G01*
X110650Y375295D01*
G74*
D01*
G03X112500Y375628I0J5295*
G01*
G75*
D01*
G03X114350Y375295I1850J4962*
G01*
X114441Y375295D01*
X114441Y376892D01*
G75*
D01*
G03X115945Y380590I-3791J3698*
G01*
X115945Y387390D01*
G74*
D01*
G03X114441Y391088I5295J0*
G01*
X114441Y392685D01*
X114350Y392685D01*
G75*
D01*
G03X112500Y392352I0J-5295*
G01*
G74*
D01*
G03X110650Y392685I1850J4962*
G01*
X104550Y392685D01*
G75*
D01*
G03X101777Y391901I0J-5295*
G01*
G74*
D01*
G03X100550Y392045I1227J5151*
G01*
X94450Y392045D01*
G75*
D01*
G03X92600Y391712I0J-5295*
G01*
G74*
D01*
G03X90750Y392045I1850J4962*
G01*
X84650Y392045D01*
G75*
D01*
G03X80409Y389922I0J-5295*
G01*
X31346Y389922D01*
X16671Y404596D01*
X16671Y415599D01*
X30517Y401753D01*
G75*
D01*
G03X35170Y399828I4647J4647*
G01*
X79642Y399828D01*
G75*
D01*
G03X84650Y396255I5008J1722*
G01*
X90750Y396255D01*
G74*
D01*
G03X92600Y396588I0J5295*
G01*
G75*
D01*
G03X94450Y396255I1850J4962*
G01*
X100550Y396255D01*
G74*
D01*
G03X103323Y397039I0J5295*
G01*
G75*
D01*
G03X104550Y396895I1227J5151*
G01*
X110650Y396895D01*
G74*
D01*
G03X112500Y397228I0J5295*
G01*
G75*
D01*
G03X114350Y396895I1850J4962*
G01*
X114441Y396895D01*
X114441Y398492D01*
G75*
D01*
G03X115945Y402190I-3791J3698*
G01*
X115945Y408990D01*
G74*
D01*
G03X114441Y412688I5295J0*
G01*
X114441Y414285D01*
X114350Y414285D01*
G75*
D01*
G03X112500Y413952I0J-5295*
G01*
G74*
D01*
G03X110650Y414285I1850J4962*
G01*
X104550Y414285D01*
G75*
D01*
G03X101777Y413501I0J-5295*
G01*
G74*
D01*
G03X100550Y413645I1227J5151*
G01*
X94450Y413645D01*
G75*
D01*
G03X92600Y413312I0J-5295*
G01*
G74*
D01*
G03X90750Y413645I1850J4962*
G01*
X84650Y413645D01*
G75*
D01*
G03X82065Y412972I0J-5295*
G01*
X37886Y412972D01*
X23211Y427646D01*
X23211Y433547D01*
X34856Y421903D01*
G75*
D01*
G03X39511Y419978I4646J4647*
G01*
X80409Y419978D01*
G75*
D01*
G03X84650Y417855I4241J3172*
G01*
X90750Y417855D01*
G74*
D01*
G03X92600Y418188I0J5295*
G01*
G75*
D01*
G03X94450Y417855I1850J4962*
G01*
X100550Y417855D01*
G74*
D01*
G03X103323Y418639I0J5295*
G01*
G75*
D01*
G03X104550Y418495I1227J5151*
G01*
X110650Y418495D01*
G74*
D01*
G03X112500Y418828I0J5295*
G01*
G75*
D01*
G03X114350Y418495I1850J4962*
G01*
X114441Y418495D01*
X114441Y420092D01*
G75*
D01*
G03X115945Y423790I-3791J3698*
G01*
X115945Y430590D01*
G74*
D01*
G03X114441Y434288I5295J0*
G01*
X114441Y435885D01*
X114350Y435885D01*
G75*
D01*
G03X112500Y435552I0J-5295*
G01*
G74*
D01*
G03X110650Y435885I1850J4962*
G01*
X104550Y435885D01*
G75*
D01*
G03X101777Y435101I0J-5295*
G01*
G74*
D01*
G03X100550Y435245I1227J5151*
G01*
X94450Y435245D01*
G75*
D01*
G03X92600Y434912I0J-5295*
G01*
G74*
D01*
G03X90750Y435245I1850J4962*
G01*
X84650Y435245D01*
G75*
D01*
G03X80409Y433122I0J-5295*
G01*
X42225Y433122D01*
X29751Y445595D01*
X29751Y457349D01*
X43597Y443503D01*
G75*
D01*
G03X48250Y441578I4647J4647*
G01*
X80409Y441578D01*
G75*
D01*
G03X84650Y439455I4241J3172*
G01*
X90750Y439455D01*
G74*
D01*
G03X92600Y439788I0J5295*
G01*
G75*
D01*
G03X94450Y439455I1850J4962*
G01*
X100550Y439455D01*
G74*
D01*
G03X103323Y440239I0J5295*
G01*
G75*
D01*
G03X104550Y440095I1227J5151*
G01*
X110650Y440095D01*
G74*
D01*
G03X112500Y440428I0J5295*
G01*
G75*
D01*
G03X114350Y440095I1850J4962*
G01*
X114441Y440095D01*
X114441Y441692D01*
G75*
D01*
G03X115945Y445390I-3791J3698*
G01*
X115945Y452190D01*
G74*
D01*
G03X114441Y455888I5295J0*
G01*
X114441Y457485D01*
X114350Y457485D01*
G75*
D01*
G03X112500Y457152I0J-5295*
G01*
G74*
D01*
G03X110650Y457485I1850J4962*
G01*
X104550Y457485D01*
G75*
D01*
G03X101777Y456701I0J-5295*
G01*
G74*
D01*
G03X100550Y456845I1227J5151*
G01*
X94450Y456845D01*
G75*
D01*
G03X92600Y456512I0J-5295*
G01*
G74*
D01*
G03X90750Y456845I1850J4962*
G01*
X84650Y456845D01*
G75*
D01*
G03X80409Y454722I0J-5295*
G01*
X41931Y58642D02*
X38115Y58642D01*
X33432Y63325D01*
X33432Y66349D01*
X39657Y60123D01*
G74*
D01*
G03X41931Y58642I4647J4647*
G01*
X53075Y85523D02*
G74*
D01*
G03X54790Y84288I4647J4647*
G01*
G74*
D01*
G03X54923Y84042I4730J2382*
G01*
X51195Y84042D01*
X46512Y88725D01*
X46512Y92086D01*
X53075Y85523D01*
X131239Y124365D02*
G74*
D01*
G03X132938Y126284I6779J7715*
G01*
X132938Y124365D01*
X131239Y124365D01*
X165206Y579880D02*
X158972Y586115D01*
X158972Y569142D01*
X162742Y565372D01*
X166221Y565372D01*
G74*
D01*
G02X173803Y571500I11579J6572*
G01*
G74*
D01*
G02X165206Y579880I3997J12700*
G01*
X169132Y598606D02*
X169132Y594542D01*
X169260Y594414D01*
G74*
D01*
G02X173487Y596796I8540J10214*
G01*
G74*
D01*
G02X169132Y598606I1668J10159*
G01*
X166750Y647723D02*
X167200Y647274D01*
G74*
D01*
G02X169132Y642620I4640J4654*
G01*
X169132Y620594D01*
G74*
D01*
G02X171228Y621761I6023J8349*
G01*
X171228Y649619D01*
G74*
D01*
G02X166750Y647723I6128J8241*
G01*
X53871Y655098D02*
X52426Y655098D01*
X42831Y645504D01*
X42831Y644851D01*
X51597Y653617D01*
G74*
D01*
G02X53871Y655098I4647J4647*
G01*
X64111Y629574D02*
G74*
D01*
G02X65199Y629948I2673J6004*
G01*
G74*
D01*
G02X64942Y630405I4481J2822*
G01*
X64111Y629574D01*
X149434Y639640D02*
X155988Y633085D01*
X155988Y639898D01*
X153488Y642398D01*
X148277Y642398D01*
G74*
D01*
G02X148967Y640065I4597J2628*
G01*
G74*
D01*
G02X149434Y639640I4187J5065*
G01*
X37057Y691717D02*
G74*
D01*
G02X37278Y691928I4647J4647*
G01*
X32806Y691928D01*
X23211Y682334D01*
X23211Y677871D01*
X37057Y691717D01*
X43031Y679104D02*
G75*
D01*
G02X45711Y679672I2673J-6004*
G01*
X64700Y679672D01*
G74*
D01*
G02X65083Y680498I4980J1802*
G01*
X44426Y680498D01*
X43031Y679104D01*
X102033Y703147D02*
G75*
D01*
G02X106688Y705072I4647J-4647*
G01*
X116700Y705072D01*
G75*
D01*
G02X121680Y708565I4980J-1802*
G01*
X143680Y708565D01*
G74*
D01*
G02X148975Y703270I0J5295*
G01*
X148975Y696270D01*
G75*
D01*
G02X148143Y693420I-5295J0*
G01*
G74*
D01*
G02X148660Y692372I4463J2850*
G01*
X149678Y692372D01*
X155988Y698682D01*
X155988Y702654D01*
X148934Y709708D01*
X33886Y709708D01*
X29188Y705010D01*
G75*
D01*
G02X30092Y705072I896J-6510*
G01*
X64700Y705072D01*
G75*
D01*
G02X69680Y708565I4980J-1802*
G01*
X91680Y708565D01*
G74*
D01*
G02X96975Y703270I0J5295*
G01*
X96975Y698089D01*
X102033Y703147D01*
X20320Y50274D02*
X31224Y39370D01*
X70520Y39370D01*
X26860Y60603D02*
X35393Y52070D01*
X33400Y75674D02*
X44304Y64770D01*
X26860Y60603D02*
X26860Y316546D01*
X20320Y50274D02*
X20320Y335606D01*
X70520Y52070D02*
X35393Y52070D01*
X44304Y64770D02*
X70520Y64770D01*
X122520Y64770D02*
X153670Y64770D01*
X122520Y52070D02*
X153670Y52070D01*
X153670Y64770D02*
X154940Y66040D01*
X33400Y297486D02*
X33400Y75674D01*
X39940Y86003D02*
X48473Y77470D01*
X70520Y77470D02*
X48473Y77470D01*
X39940Y86003D02*
X39940Y278426D01*
X59690Y102870D02*
X53020Y109540D01*
X46480Y101412D02*
X57722Y90170D01*
X46480Y254286D02*
X46480Y101412D01*
X70520Y102870D02*
X59690Y102870D01*
X57722Y90170D02*
X70520Y90170D01*
X139510Y108694D02*
X133686Y102870D01*
X122520Y102870D02*
X133686Y102870D01*
X122520Y90170D02*
X137686Y90170D01*
X139510Y108694D02*
X139510Y136416D01*
X146050Y98534D02*
X137686Y90170D01*
X146050Y98534D02*
X146050Y511810D01*
X53020Y109540D02*
X53020Y240980D01*
X62230Y115570D02*
X73660Y115570D01*
X59560Y118240D02*
X59560Y223786D01*
X62230Y115570D02*
X59560Y118240D01*
X122520Y115570D02*
X130810Y115570D01*
X122520Y115570D02*
X122520Y130140D01*
X124460Y132080D01*
X139510Y136416D02*
X126066Y149860D01*
X96520Y149860D02*
X86360Y160020D01*
X86360Y209210D01*
X126066Y149860D02*
X96520Y149860D01*
X86360Y209210D02*
X87700Y210550D01*
X59560Y223786D02*
X67924Y232150D01*
X97500Y210550D02*
X106960Y210550D01*
X107600Y211190D01*
X53020Y240980D02*
X66040Y254000D01*
X67924Y232150D02*
X87700Y232150D01*
X97500Y232150D02*
X106960Y232150D01*
X107600Y232790D01*
X46480Y254286D02*
X67544Y275350D01*
X66040Y254000D02*
X87450Y254000D01*
X87700Y253750D01*
X97500Y253750D02*
X106960Y253750D01*
X107600Y254390D01*
X39940Y278426D02*
X58464Y296950D01*
X67544Y275350D02*
X87700Y275350D01*
X97500Y275350D02*
X106960Y275350D01*
X107600Y275990D01*
X117400Y275990D02*
X117400Y274320D01*
X33400Y297486D02*
X54464Y318550D01*
X58464Y296950D02*
X87700Y296950D01*
X97500Y296950D02*
X106960Y296950D01*
X107600Y297590D01*
X117400Y299720D02*
X117400Y297590D01*
X117400Y299720D01*
X26860Y316546D02*
X50464Y340150D01*
X54464Y318550D02*
X87700Y318550D01*
X97500Y318550D02*
X106960Y318550D01*
X107600Y319190D01*
X20320Y335606D02*
X46464Y361750D01*
X50464Y340150D02*
X87700Y340150D01*
X97500Y340150D02*
X106960Y340150D01*
X107600Y340790D01*
X87700Y361750D02*
X46464Y361750D01*
X97500Y361750D02*
X106960Y361750D01*
X107600Y362390D01*
X117400Y362390D02*
X117400Y363220D01*
X117400Y362390D01*
X10100Y401874D02*
X28624Y383350D01*
X87700Y383350D02*
X28624Y383350D01*
X97500Y383350D02*
X106960Y383350D01*
X107600Y383990D01*
X117400Y383990D02*
X119600Y383990D01*
X10100Y401874D02*
X10100Y695216D01*
X16640Y424924D02*
X35164Y406400D01*
X86360Y406400D02*
X35164Y406400D01*
X87700Y404950D02*
X86360Y404950D01*
X97500Y404950D02*
X106960Y404950D01*
X107600Y405590D01*
X23180Y442873D02*
X39503Y426550D01*
X16640Y424924D02*
X16640Y685056D01*
X87700Y426550D02*
X39503Y426550D01*
X97500Y426550D02*
X106960Y426550D01*
X107600Y427190D01*
X117400Y427190D02*
X117400Y426720D01*
X29720Y466674D02*
X48244Y448150D01*
X23180Y442873D02*
X23180Y668546D01*
X87700Y448150D02*
X48244Y448150D01*
X97500Y448150D02*
X106960Y448150D01*
X107600Y448790D01*
X29720Y466674D02*
X29720Y657116D01*
X36260Y490814D02*
X57324Y469750D01*
X87700Y469750D02*
X57324Y469750D01*
X97500Y469750D02*
X106960Y469750D01*
X107600Y470390D01*
X42800Y513843D02*
X65293Y491350D01*
X36260Y490814D02*
X36260Y648226D01*
X65293Y491350D02*
X87700Y491350D01*
X97500Y491350D02*
X106960Y491350D01*
X107600Y491990D01*
X117400Y491990D02*
X117400Y490220D01*
X49340Y526712D02*
X63102Y512950D01*
X49340Y526712D02*
X49340Y624096D01*
X42800Y635526D02*
X42800Y513843D01*
X87700Y512950D02*
X63102Y512950D01*
X97500Y512950D02*
X106960Y512950D01*
X107600Y513590D01*
X117400Y515620D02*
X117400Y513590D01*
X117400Y515620D01*
X167640Y533400D02*
X146050Y511810D01*
X55880Y545454D02*
X66784Y534550D01*
X87700Y534550D01*
X55880Y612666D02*
X55880Y545454D01*
X97500Y534550D02*
X106960Y534550D01*
X177800Y533400D02*
X167640Y533400D01*
X152400Y566420D02*
X152400Y627380D01*
X152400Y566420D02*
X160020Y558800D01*
X177800Y558800D01*
X83820Y591820D02*
X76200Y584200D01*
X134620Y581660D02*
X152400Y581660D01*
X162560Y591820D02*
X170180Y584200D01*
X177800Y584200D01*
X92710Y591820D02*
X99060Y598170D01*
X92710Y591820D02*
X83820Y591820D01*
X99060Y598170D02*
X99060Y690880D01*
X162560Y642620D02*
X162560Y591820D01*
X49340Y624096D02*
X62784Y637540D01*
X55880Y612666D02*
X66784Y623570D01*
X80680Y623570D02*
X66784Y623570D01*
X144780Y635000D02*
X152400Y627380D01*
X177800Y609600D02*
X177800Y662940D01*
X42800Y635526D02*
X56244Y648970D01*
X36260Y648226D02*
X49704Y661670D01*
X62784Y637540D02*
X79410Y637540D01*
X80680Y648970D02*
X56244Y648970D01*
X79410Y637540D02*
X80680Y636270D01*
X132680Y636270D02*
X133950Y635000D01*
X144780Y635000D01*
X132680Y648970D02*
X156210Y648970D01*
X165100Y657860D01*
X156210Y648970D02*
X162560Y642620D01*
X29720Y657116D02*
X45704Y673100D01*
X23180Y668546D02*
X41704Y687070D01*
X49704Y661670D02*
X80680Y661670D01*
X166370Y674370D02*
X177800Y662940D01*
X16640Y685056D02*
X30084Y698500D01*
X45704Y673100D02*
X79410Y673100D01*
X41704Y687070D02*
X80680Y687070D01*
X79410Y673100D02*
X80680Y674370D01*
X133950Y685800D02*
X132680Y687070D01*
X152400Y685800D02*
X133950Y685800D01*
X132680Y674370D02*
X166370Y674370D01*
X162560Y695960D02*
X152400Y685800D01*
X10100Y695216D02*
X31164Y716280D01*
X30084Y698500D02*
X73660Y698500D01*
X73660Y699770D02*
X80680Y699770D01*
X99060Y690880D02*
X106680Y698500D01*
X131410Y698500D01*
X124460Y699770D02*
X132680Y699770D01*
X131410Y698500D02*
X132680Y699770D01*
X151656Y716280D02*
X162560Y705376D01*
X162560Y695960D01*
X31164Y716280D02*
X151656Y716280D01*
X177800Y497840D02*
X177800Y447040D01*
X167640Y467360D02*
X187960Y467360D01*
X167640Y487680D01*
X167640Y467360D02*
X187960Y487680D01*
X177800Y497840D01*
X106960Y534550D02*
X107600Y535190D01*
G54D12*
X-2540Y-2540D02*
X-2540Y71968D01*
X-2540Y-2540D02*
X20468Y-2540D01*
X227540Y-2540D02*
X204532Y-2540D01*
X227540Y-2540D02*
X227540Y71968D01*
X227540Y742540D02*
X227540Y668032D01*
X227540Y742540D02*
X204532Y742540D01*
X-2540Y742540D02*
X20468Y742540D01*
X-2540Y742540D02*
X-2540Y668032D01*
X-52540Y-2540D02*
X-152540Y-2540D01*
X-102540Y-52540D02*
X-102540Y47460D01*
X-140040Y-2540D02*
G75*
D01*
G02X-140040Y-2540I37500J0*
G01*
X277540Y-2540D02*
X377540Y-2540D01*
X327540Y-52540D02*
X327540Y47460D01*
X290040Y-2540D02*
G75*
D01*
G02X290040Y-2540I37500J0*
G01*
X315040Y-2540D02*
G75*
D01*
G02X315040Y-2540I12500J0*
G01*
X-52540Y742540D02*
X-152540Y742540D01*
X-102540Y692540D02*
X-102540Y792540D01*
X-140040Y742540D02*
G75*
D01*
G02X-140040Y742540I37500J0*
G01*
X-127540Y742540D02*
G75*
D01*
G02X-127540Y742540I25000J0*
G01*
X-115040Y742540D02*
G75*
D01*
G02X-115040Y742540I12500J0*
G01*
G54D13*
X154940Y50800D03*
X154940Y66040D03*
X124460Y132080D03*
X134620Y581660D03*
X165100Y657860D03*
G54D14*
X70520Y26670D03*
X122520Y26670D03*
X70520Y39370D03*
X122520Y39370D03*
X70520Y64770D03*
X70520Y52070D03*
X122520Y64770D03*
X122520Y52070D03*
X70520Y77470D03*
X122520Y77470D03*
X70520Y102870D03*
X70520Y90170D03*
X122520Y102870D03*
X122520Y90170D03*
X70520Y115570D03*
X122520Y115570D03*
X80680Y623570D03*
X80680Y610870D03*
X132680Y623570D03*
X132680Y610870D03*
X80680Y636270D03*
X132680Y636270D03*
X80680Y661670D03*
X80680Y648970D03*
X132680Y661670D03*
X132680Y648970D03*
X80680Y687070D03*
X80680Y674370D03*
X132680Y687070D03*
X132680Y674370D03*
X80680Y699770D03*
X132680Y699770D03*
G54D15*
X97500Y210550D03*
X87700Y210550D03*
X117400Y211190D03*
X107600Y211190D03*
X97500Y232150D03*
X87700Y232150D03*
X117400Y232790D03*
X107600Y232790D03*
X97500Y253750D03*
X87700Y253750D03*
X117400Y254390D03*
X107600Y254390D03*
X87700Y275350D03*
X97500Y275350D03*
X107600Y275990D03*
X117400Y275990D03*
X87700Y296950D03*
X97500Y296950D03*
X107600Y297590D03*
X117400Y297590D03*
X87700Y318550D03*
X97500Y318550D03*
X107600Y319190D03*
X117400Y319190D03*
X87700Y340150D03*
X97500Y340150D03*
X107600Y340790D03*
X117400Y340790D03*
X87700Y361750D03*
X97500Y361750D03*
X107600Y362390D03*
X117400Y362390D03*
X87700Y383350D03*
X97500Y383350D03*
X107600Y383990D03*
X117400Y383990D03*
X87700Y404950D03*
X97500Y404950D03*
X117400Y405590D03*
X107600Y405590D03*
X97500Y426550D03*
X87700Y426550D03*
X117400Y427190D03*
X107600Y427190D03*
X97500Y448150D03*
X87700Y448150D03*
X117400Y448790D03*
X107600Y448790D03*
X97500Y469750D03*
X87700Y469750D03*
X117400Y470390D03*
X107600Y470390D03*
X97500Y491350D03*
X87700Y491350D03*
X117400Y491990D03*
X107600Y491990D03*
X97500Y512950D03*
X87700Y512950D03*
X117400Y513590D03*
X107600Y513590D03*
X97500Y534550D03*
X87700Y534550D03*
X107600Y535190D03*
X117400Y535190D03*
G54D16*
X177800Y558800D03*
X177800Y584200D03*
X177800Y533400D03*
X76200Y584200D03*
G54D17*
X177800Y609600D03*
X76200Y558800D03*
G54D18*
X175155Y606955D02*
X180445Y606955D01*
X180445Y612245D01*
X175155Y612245D01*
X175155Y606955D01*D02*
X73555Y556155D02*
X78845Y556155D01*
X78845Y561445D01*
X73555Y561445D01*
X73555Y556155D01*D02*

M02*
