G04 Generated by Ultiboard 14.2 *
%FSLAX24Y24*%
%MOIN*%

%ADD10C,0.0001*%
%ADD11C,0.0100*%
%ADD12C,0.0050*%
%ADD13C,0.0394*%
%ADD14C,0.0591*%
%ADD15R,0.0669X0.0984*%
%ADD16R,0.0669X0.0394*%
%ADD17R,0.0669X0.1299*%
%ADD18R,0.0208X0.0208*%
%ADD19C,0.0392*%
%ADD20C,0.0633*%
%ADD21R,0.2343X0.2185*%
%ADD22R,0.1122X0.0492*%
%ADD23R,0.0984X0.0669*%


G04 ColorRGB 00FF00 for the following layer *
%LNCopper Top*%
%LPD*%
G54D10*
G36*
X208Y22195D02*
X208Y22195D01*
X31292Y22195D01*
X31292Y234D01*
X208Y234D01*
X208Y22195D01*
D02*
G37*
%LPC*%
G36*
X9144Y6976D02*
G74*
D01*
G03X8935Y7184I209J0*
G01*
X8935Y7184D01*
X8266Y7184D01*
G75*
D01*
G03X8057Y6976I0J-208*
G01*
X8057Y6976D01*
X8057Y6459D01*
X6663Y6459D01*
X6663Y6523D01*
G74*
D01*
G03X6455Y6732I208J0*
G01*
X6455Y6732D01*
X5786Y6732D01*
G75*
D01*
G03X5577Y6523I0J-209*
G01*
X5577Y6523D01*
X5577Y6130D01*
G75*
D01*
G03X5786Y5921I209J0*
G01*
X5786Y5921D01*
X6455Y5921D01*
G74*
D01*
G03X6544Y5941I0J209*
G01*
X6544Y5941D01*
X8057Y5941D01*
X8057Y5677D01*
G75*
D01*
G03X8266Y5468I209J0*
G01*
X8266Y5468D01*
X8935Y5468D01*
G75*
D01*
G03X9144Y5677I0J209*
G01*
X9144Y5677D01*
X9144Y5941D01*
X9700Y5941D01*
G74*
D01*
G03X9894Y6029I0J259*
G01*
X9894Y6029D01*
X10585Y6029D01*
G75*
D01*
G03X10794Y6238I0J209*
G01*
X10794Y6238D01*
X10794Y6907D01*
G74*
D01*
G03X10585Y7116I209J0*
G01*
X10585Y7116D01*
X9601Y7116D01*
G75*
D01*
G03X9392Y6907I0J-209*
G01*
X9392Y6907D01*
X9392Y6459D01*
X9144Y6459D01*
X9144Y6976D01*
D02*
G37*
G36*
X12717Y8979D02*
G75*
D01*
G03X11717Y8979I-500J-52*
G01*
G75*
D01*
G03X10717Y8979I-500J-52*
G01*
G75*
D01*
G03X9717Y8979I-500J-52*
G01*
G75*
D01*
G03X8717Y8979I-500J-52*
G01*
G75*
D01*
G03X7717Y8979I-500J-52*
G01*
G75*
D01*
G03X7717Y8874I-500J-52*
G01*
G75*
D01*
G03X8717Y8874I500J53*
G01*
G75*
D01*
G03X9717Y8874I500J53*
G01*
G75*
D01*
G03X10717Y8874I500J53*
G01*
G74*
D01*
G03X11114Y8435I500J53*
G01*
X11114Y8435D01*
X11514Y8020D01*
G74*
D01*
G03X11609Y7958I186J180*
G01*
G75*
D01*
G03X11700Y7941I91J242*
G01*
X11700Y7941D01*
X14857Y7941D01*
G74*
D01*
G03X14767Y7883I93J241*
G01*
X14767Y7883D01*
X14517Y7633D01*
G75*
D01*
G03X14441Y7450I183J-183*
G01*
X14441Y7450D01*
X14441Y6307D01*
X14093Y5959D01*
X10402Y5959D01*
G75*
D01*
G03X10335Y5950I0J-259*
G01*
G74*
D01*
G03X10292Y5934I67J250*
G01*
X10292Y5934D01*
X9601Y5934D01*
G75*
D01*
G03X9392Y5726I0J-208*
G01*
X9392Y5726D01*
X9392Y5057D01*
G75*
D01*
G03X9417Y4959I209J0*
G01*
X9417Y4959D01*
X5993Y4959D01*
X5993Y4959D01*
G74*
D01*
G03X6081Y5016I94J241*
G01*
X6081Y5016D01*
X6455Y5016D01*
G75*
D01*
G03X6663Y5224I0J208*
G01*
X6663Y5224D01*
X6663Y5618D01*
G74*
D01*
G03X6455Y5826I208J0*
G01*
X6455Y5826D01*
X5786Y5826D01*
G75*
D01*
G03X5577Y5618I0J-208*
G01*
X5577Y5618D01*
X5577Y5459D01*
X5368Y5459D01*
X5368Y5651D01*
G74*
D01*
G03X5159Y5860I209J0*
G01*
X5159Y5860D01*
X4037Y5860D01*
G75*
D01*
G03X3959Y5844I0J-209*
G01*
X3959Y5844D01*
X3959Y6769D01*
G75*
D01*
G03X4037Y6754I78J193*
G01*
X4037Y6754D01*
X5159Y6754D01*
G75*
D01*
G03X5368Y6962I0J208*
G01*
X5368Y6962D01*
X5368Y7454D01*
G74*
D01*
G03X5159Y7663I209J0*
G01*
X5159Y7663D01*
X4037Y7663D01*
G75*
D01*
G03X3959Y7648I0J-209*
G01*
X3959Y7648D01*
X3959Y7700D01*
G74*
D01*
G03X3883Y7883I259J0*
G01*
X3883Y7883D01*
X3425Y8340D01*
G75*
D01*
G03X3208Y9189I-387J354*
G01*
G75*
D01*
G03X3547Y9589I-66J400*
G01*
X3547Y9589D01*
X3547Y9798D01*
G74*
D01*
G03X3431Y10083I405J0*
G01*
G75*
D01*
G03X3459Y10200I-231J117*
G01*
X3459Y10200D01*
X3459Y18593D01*
X3581Y18715D01*
X3807Y18941D01*
X17093Y18941D01*
X17319Y18715D01*
X17517Y18517D01*
G74*
D01*
G03X17542Y18495I183J183*
G01*
X17542Y18495D01*
X17542Y18129D01*
G75*
D01*
G03X17751Y17920I209J0*
G01*
X17751Y17920D01*
X18873Y17920D01*
G75*
D01*
G03X19081Y18129I0J209*
G01*
X19081Y18129D01*
X19081Y18621D01*
G74*
D01*
G03X18959Y18811I208J0*
G01*
X18959Y18811D01*
X18959Y20843D01*
X19057Y20941D01*
X29593Y20941D01*
X29941Y20593D01*
X29941Y7307D01*
X29593Y6959D01*
X29574Y6959D01*
G75*
D01*
G03X29416Y6905I0J-259*
G01*
X29416Y6905D01*
X27307Y6905D01*
G75*
D01*
G03X27098Y6697I0J-208*
G01*
X27098Y6697D01*
X27098Y4512D01*
G75*
D01*
G03X27307Y4303I209J0*
G01*
X27307Y4303D01*
X29649Y4303D01*
G75*
D01*
G03X29858Y4512I0J209*
G01*
X29858Y4512D01*
X29858Y6495D01*
G74*
D01*
G03X29883Y6517I158J205*
G01*
X29883Y6517D01*
X30383Y7017D01*
G75*
D01*
G03X30459Y7200I-183J183*
G01*
X30459Y7200D01*
X30459Y20700D01*
G74*
D01*
G03X30383Y20883I259J0*
G01*
X30383Y20883D01*
X29883Y21383D01*
G74*
D01*
G03X29754Y21453I183J183*
G01*
G75*
D01*
G03X29700Y21459I-54J-253*
G01*
X29700Y21459D01*
X18950Y21459D01*
G75*
D01*
G03X18862Y21443I0J-259*
G01*
G74*
D01*
G03X18767Y21383I88J243*
G01*
X18767Y21383D01*
X18689Y21305D01*
X18517Y21133D01*
G75*
D01*
G03X18441Y20950I183J-183*
G01*
X18441Y20950D01*
X18441Y18829D01*
X18223Y18829D01*
X18170Y18883D01*
G74*
D01*
G03X17987Y18959I183J183*
G01*
X17987Y18959D01*
X17807Y18959D01*
X17383Y19383D01*
G74*
D01*
G03X17254Y19453I183J183*
G01*
G75*
D01*
G03X17200Y19459I-54J-253*
G01*
X17200Y19459D01*
X3700Y19459D01*
G75*
D01*
G03X3625Y19448I0J-259*
G01*
G74*
D01*
G03X3517Y19383I75J248*
G01*
X3517Y19383D01*
X3017Y18883D01*
G75*
D01*
G03X2941Y18699I183J-183*
G01*
X2941Y18699D01*
X2941Y10307D01*
X2855Y10221D01*
G74*
D01*
G03X2828Y10189I183J183*
G01*
G74*
D01*
G03X2529Y9798I106J391*
G01*
X2529Y9798D01*
X2529Y9589D01*
G75*
D01*
G03X2868Y9189I405J0*
G01*
G75*
D01*
G03X2826Y8214I170J-495*
G01*
G74*
D01*
G03X2855Y8179I212J148*
G01*
X2855Y8179D01*
X3441Y7593D01*
X3441Y5293D01*
G74*
D01*
G03X3320Y5429I241J93*
G01*
X3320Y5429D01*
X3320Y7399D01*
G74*
D01*
G03X3112Y7608I208J0*
G01*
X3112Y7608D01*
X769Y7608D01*
G75*
D01*
G03X561Y7399I0J-209*
G01*
X561Y7399D01*
X561Y5214D01*
G75*
D01*
G03X769Y5006I208J0*
G01*
X769Y5006D01*
X2876Y5006D01*
G74*
D01*
G03X2941Y4964I171J194*
G01*
X2941Y4964D01*
X2941Y1701D01*
G75*
D01*
G03X3017Y1517I259J-1*
G01*
X3017Y1517D01*
X3517Y1017D01*
G74*
D01*
G03X3625Y952I183J183*
G01*
G75*
D01*
G03X3700Y941I75J248*
G01*
X3700Y941D01*
X24700Y941D01*
G75*
D01*
G03X24754Y947I0J259*
G01*
G74*
D01*
G03X24883Y1017I54J253*
G01*
X24883Y1017D01*
X25383Y1517D01*
G75*
D01*
G03X25459Y1700I-183J183*
G01*
X25459Y1700D01*
X25459Y4248D01*
X26382Y4248D01*
G75*
D01*
G03X26590Y4457I0J209*
G01*
X26590Y4457D01*
X26590Y4949D01*
G74*
D01*
G03X26382Y5157I208J0*
G01*
X26382Y5157D01*
X25260Y5157D01*
G75*
D01*
G03X25051Y4949I0J-208*
G01*
X25051Y4949D01*
X25051Y4912D01*
G74*
D01*
G03X24941Y4700I149J212*
G01*
X24941Y4700D01*
X24941Y1807D01*
X24593Y1459D01*
X3807Y1459D01*
X3459Y1807D01*
X3459Y4857D01*
G74*
D01*
G03X3517Y4767I241J93*
G01*
X3517Y4767D01*
X3767Y4517D01*
G75*
D01*
G03X3950Y4441I183J183*
G01*
X3950Y4441D01*
X14597Y4441D01*
X14597Y3107D01*
G75*
D01*
G03X14805Y2899I208J0*
G01*
X14805Y2899D01*
X17148Y2899D01*
G75*
D01*
G03X17356Y3107I0J208*
G01*
X17356Y3107D01*
X17356Y5293D01*
G74*
D01*
G03X17148Y5501I208J0*
G01*
X17148Y5501D01*
X14805Y5501D01*
G75*
D01*
G03X14597Y5293I0J-208*
G01*
X14597Y5293D01*
X14597Y4959D01*
X10769Y4959D01*
G75*
D01*
G03X10794Y5057I-184J98*
G01*
X10794Y5057D01*
X10794Y5441D01*
X14200Y5441D01*
G75*
D01*
G03X14254Y5447I0J259*
G01*
G74*
D01*
G03X14383Y5517I54J253*
G01*
X14383Y5517D01*
X14883Y6017D01*
G75*
D01*
G03X14959Y6200I-183J183*
G01*
X14959Y6200D01*
X14959Y7343D01*
X15057Y7441D01*
X15317Y7441D01*
G75*
D01*
G03X15433Y6503I283J-441*
G01*
G75*
D01*
G03X16011Y5941I267J-303*
G01*
X16011Y5941D01*
X17593Y5941D01*
X17941Y5593D01*
X17941Y5509D01*
G74*
D01*
G03X17864Y5348I132J161*
G01*
X17864Y5348D01*
X17864Y4856D01*
G75*
D01*
G03X18073Y4647I209J0*
G01*
X18073Y4647D01*
X19195Y4647D01*
G75*
D01*
G03X19403Y4856I0J209*
G01*
X19403Y4856D01*
X19403Y5348D01*
G74*
D01*
G03X19195Y5556I208J0*
G01*
X19195Y5556D01*
X18459Y5556D01*
X18459Y5700D01*
G74*
D01*
G03X18383Y5883I259J0*
G01*
X18383Y5883D01*
X17883Y6383D01*
G74*
D01*
G03X17754Y6453I183J183*
G01*
G75*
D01*
G03X17700Y6459I-54J-253*
G01*
X17700Y6459D01*
X16011Y6459D01*
G74*
D01*
G03X15885Y6560I311J259*
G01*
G75*
D01*
G03X15883Y7441I-285J440*
G01*
X15883Y7441D01*
X16317Y7441D01*
G74*
D01*
G03X16110Y7186I283J441*
G01*
X16110Y7186D01*
X16414Y7186D01*
X16414Y7441D01*
X16786Y7441D01*
X16786Y7186D01*
X16942Y7186D01*
G74*
D01*
G03X17017Y7017I258J14*
G01*
X17017Y7017D01*
X17091Y6944D01*
X17091Y6896D01*
G75*
D01*
G03X17496Y6491I405J0*
G01*
X17496Y6491D01*
X17704Y6491D01*
G75*
D01*
G03X18109Y6896I0J405*
G01*
X18109Y6896D01*
X18109Y7104D01*
G74*
D01*
G03X17704Y7509I405J0*
G01*
X17704Y7509D01*
X17496Y7509D01*
G75*
D01*
G03X17452Y7507I0J-405*
G01*
G74*
D01*
G03X17383Y7633I252J57*
G01*
X17383Y7633D01*
X17133Y7883D01*
G74*
D01*
G03X17043Y7941I183J183*
G01*
X17043Y7941D01*
X23100Y7941D01*
G74*
D01*
G03X23283Y8017I0J259*
G01*
X23283Y8017D01*
X24083Y8817D01*
G75*
D01*
G03X24159Y9000I-183J183*
G01*
X24159Y9000D01*
X24159Y14593D01*
X25283Y15717D01*
G75*
D01*
G03X25359Y15900I-183J183*
G01*
X25359Y15900D01*
X25359Y18400D01*
G74*
D01*
G03X25283Y18583I259J0*
G01*
X25283Y18583D01*
X25151Y18715D01*
X25151Y18715D01*
X23683Y20183D01*
G74*
D01*
G03X23507Y20259I183J183*
G01*
X23500Y20259D01*
X23500Y20259D01*
X21607Y20259D01*
X21607Y20462D01*
G74*
D01*
G03X21399Y20670I208J0*
G01*
X21399Y20670D01*
X20730Y20670D01*
G75*
D01*
G03X20521Y20462I0J-208*
G01*
X20521Y20462D01*
X20521Y19478D01*
G75*
D01*
G03X20730Y19269I209J0*
G01*
X20730Y19269D01*
X21399Y19269D01*
G75*
D01*
G03X21607Y19478I0J209*
G01*
X21607Y19478D01*
X21607Y19741D01*
X23393Y19741D01*
X24841Y18293D01*
X24841Y16007D01*
X23717Y14883D01*
G75*
D01*
G03X23641Y14700I183J-183*
G01*
X23641Y14700D01*
X23641Y9107D01*
X22993Y8459D01*
X21401Y8459D01*
G75*
D01*
G03X21720Y8941I-184J468*
G01*
X21720Y8941D01*
X22700Y8941D01*
G75*
D01*
G03X22754Y8947I0J259*
G01*
G74*
D01*
G03X22883Y9017I54J253*
G01*
X22883Y9017D01*
X23132Y9266D01*
X23383Y9517D01*
G75*
D01*
G03X23459Y9700I-183J183*
G01*
X23459Y9700D01*
X23459Y15941D01*
X23498Y15941D01*
G75*
D01*
G03X23608Y15966I0J259*
G01*
X23608Y15966D01*
X24299Y15966D01*
G75*
D01*
G03X24507Y16174I0J208*
G01*
X24507Y16174D01*
X24507Y16843D01*
G74*
D01*
G03X24299Y17052I208J0*
G01*
X24299Y17052D01*
X23315Y17052D01*
G75*
D01*
G03X23106Y16843I0J-209*
G01*
X23106Y16843D01*
X23106Y16441D01*
G74*
D01*
G03X22941Y16200I94J241*
G01*
X22941Y16200D01*
X22941Y9807D01*
X22593Y9459D01*
X21217Y9459D01*
G75*
D01*
G03X21057Y9403I0J-259*
G01*
G75*
D01*
G03X21033Y8459I160J-476*
G01*
X21033Y8459D01*
X20401Y8459D01*
G74*
D01*
G03X20687Y8748I184J468*
G01*
X20687Y8748D01*
X20396Y8748D01*
X20396Y8459D01*
X20039Y8459D01*
X20039Y8748D01*
X19747Y8748D01*
G74*
D01*
G03X20033Y8459I470J179*
G01*
X20033Y8459D01*
X19401Y8459D01*
G75*
D01*
G03X18717Y8979I-184J468*
G01*
G75*
D01*
G03X17717Y8979I-500J-52*
G01*
G75*
D01*
G03X16717Y8979I-500J-52*
G01*
G75*
D01*
G03X15717Y8979I-500J-52*
G01*
G75*
D01*
G03X14717Y8979I-500J-52*
G01*
G75*
D01*
G03X13717Y8979I-500J-52*
G01*
G74*
D01*
G03X13356Y9410I500J52*
G01*
X13356Y9410D01*
X12883Y9883D01*
G74*
D01*
G03X12793Y9941I183J183*
G01*
X12793Y9941D01*
X13900Y9941D01*
G74*
D01*
G03X14159Y10193I0J259*
G01*
X14159Y10193D01*
X14280Y10314D01*
G75*
D01*
G03X14001Y10767I120J386*
G01*
X14001Y10767D01*
X13693Y10459D01*
X10511Y10459D01*
G75*
D01*
G03X9876Y9959I-311J-259*
G01*
X9876Y9959D01*
X5328Y9959D01*
X5328Y10161D01*
G74*
D01*
G03X5120Y10370I208J0*
G01*
X5120Y10370D01*
X4136Y10370D01*
G75*
D01*
G03X3927Y10161I0J-209*
G01*
X3927Y10161D01*
X3927Y9492D01*
G75*
D01*
G03X4136Y9284I209J0*
G01*
X4136Y9284D01*
X5120Y9284D01*
G74*
D01*
G03X5322Y9441I0J208*
G01*
X5322Y9441D01*
X12593Y9441D01*
X12768Y9266D01*
X12811Y9223D01*
G74*
D01*
G03X12717Y8979I406J296*
G01*
D02*
G37*
G36*
X9717Y14874D02*
G75*
D01*
G03X10717Y14874I500J53*
G01*
G75*
D01*
G03X11717Y14874I500J53*
G01*
G75*
D01*
G03X12717Y14874I500J53*
G01*
G75*
D01*
G03X13717Y14874I500J53*
G01*
G75*
D01*
G03X14717Y14874I500J53*
G01*
G75*
D01*
G03X15717Y14874I500J53*
G01*
G75*
D01*
G03X16717Y14874I500J53*
G01*
G75*
D01*
G03X17717Y14874I500J53*
G01*
G75*
D01*
G03X18717Y14874I500J53*
G01*
G75*
D01*
G03X19717Y14874I500J53*
G01*
G75*
D01*
G03X20717Y14874I500J53*
G01*
G75*
D01*
G03X20717Y14979I500J53*
G01*
G75*
D01*
G03X19717Y14979I-500J-52*
G01*
G75*
D01*
G03X18717Y14979I-500J-52*
G01*
G75*
D01*
G03X17717Y14979I-500J-52*
G01*
G75*
D01*
G03X16717Y14979I-500J-52*
G01*
G75*
D01*
G03X15717Y14979I-500J-52*
G01*
G75*
D01*
G03X14717Y14979I-500J-52*
G01*
G75*
D01*
G03X13717Y14979I-500J-52*
G01*
G75*
D01*
G03X12717Y14979I-500J-52*
G01*
G74*
D01*
G03X12356Y15410I500J52*
G01*
X12356Y15410D01*
X11959Y15807D01*
X11959Y16557D01*
G74*
D01*
G03X11700Y16815I259J0*
G01*
X11700Y16815D01*
X11696Y16815D01*
G74*
D01*
G03X11321Y17066I375J154*
G01*
X11321Y17066D01*
X11113Y17066D01*
G75*
D01*
G03X10713Y16726I0J-405*
G01*
G75*
D01*
G03X9717Y16714I-496J-169*
G01*
G75*
D01*
G03X8717Y16714I-500J-157*
G01*
G75*
D01*
G03X7717Y16714I-500J-157*
G01*
G75*
D01*
G03X6717Y16714I-500J-157*
G01*
G75*
D01*
G03X5941Y16111I-500J-157*
G01*
X5941Y16111D01*
X5941Y15701D01*
G75*
D01*
G03X6017Y15517I259J-1*
G01*
X6017Y15517D01*
X6517Y15017D01*
G74*
D01*
G03X6625Y14952I183J183*
G01*
G75*
D01*
G03X6700Y14941I75J248*
G01*
X6700Y14941D01*
X6715Y14941D01*
G75*
D01*
G03X7717Y14874I502J-14*
G01*
G75*
D01*
G03X8717Y14874I500J53*
G01*
G75*
D01*
G03X9717Y14874I500J53*
G01*
D02*
G37*
G36*
X13200Y18059D02*
X13200Y18059D01*
X5300Y18059D01*
G75*
D01*
G03X5225Y18048I0J-259*
G01*
G74*
D01*
G03X5117Y17983I75J248*
G01*
X5117Y17983D01*
X4617Y17483D01*
G75*
D01*
G03X4541Y17299I183J-183*
G01*
X4541Y17299D01*
X4541Y12600D01*
G75*
D01*
G03X4617Y12417I259J0*
G01*
X4617Y12417D01*
X6297Y10737D01*
G75*
D01*
G03X6663Y11103I403J-37*
G01*
X6663Y11103D01*
X5059Y12707D01*
X5059Y17193D01*
X5407Y17541D01*
X13093Y17541D01*
X13344Y17290D01*
G75*
D01*
G03X13527Y17215I183J183*
G01*
X13527Y17215D01*
X14275Y17215D01*
X14275Y16381D01*
G75*
D01*
G03X14483Y16172I208J0*
G01*
X14483Y16172D01*
X16826Y16172D01*
G75*
D01*
G03X17034Y16381I0J209*
G01*
X17034Y16381D01*
X17034Y18566D01*
G74*
D01*
G03X16826Y18774I208J0*
G01*
X16826Y18774D01*
X14483Y18774D01*
G75*
D01*
G03X14275Y18566I0J-208*
G01*
X14275Y18566D01*
X14275Y17732D01*
X13634Y17732D01*
X13383Y17983D01*
G74*
D01*
G03X13215Y18058I183J183*
G01*
G75*
D01*
G03X13200Y18059I-15J-258*
G01*
D02*
G37*
G36*
X18700Y15941D02*
X18700Y15941D01*
X19700Y15941D01*
G74*
D01*
G03X19950Y16133I0J259*
G01*
X19950Y16133D01*
X20169Y16133D01*
G75*
D01*
G03X20377Y16341I0J208*
G01*
X20377Y16341D01*
X20377Y16735D01*
G74*
D01*
G03X20199Y16941I208J0*
G01*
X20199Y16941D01*
X21593Y16941D01*
X21774Y16760D01*
G74*
D01*
G03X21946Y16588I206J34*
G01*
X21946Y16588D01*
X22017Y16517D01*
G75*
D01*
G03X22432Y16586I183J183*
G01*
X22432Y16586D01*
X22649Y16586D01*
G75*
D01*
G03X22857Y16794I0J208*
G01*
X22857Y16794D01*
X22857Y17441D01*
X23106Y17441D01*
X23106Y17355D01*
G75*
D01*
G03X23315Y17147I209J0*
G01*
X23315Y17147D01*
X24299Y17147D01*
G75*
D01*
G03X24507Y17355I0J208*
G01*
X24507Y17355D01*
X24507Y18024D01*
G74*
D01*
G03X24299Y18233I208J0*
G01*
X24299Y18233D01*
X23315Y18233D01*
G75*
D01*
G03X23106Y18024I0J-209*
G01*
X23106Y18024D01*
X23106Y17959D01*
X22857Y17959D01*
X22857Y18093D01*
G74*
D01*
G03X22649Y18302I208J0*
G01*
X22649Y18302D01*
X21980Y18302D01*
G75*
D01*
G03X21771Y18093I0J-209*
G01*
X21771Y18093D01*
X21771Y17449D01*
G74*
D01*
G03X21754Y17453I71J249*
G01*
G75*
D01*
G03X21700Y17459I-54J-253*
G01*
X21700Y17459D01*
X20377Y17459D01*
X20377Y17641D01*
G74*
D01*
G03X20169Y17849I208J0*
G01*
X20169Y17849D01*
X19499Y17849D01*
G75*
D01*
G03X19291Y17641I0J-208*
G01*
X19291Y17641D01*
X19291Y17247D01*
G75*
D01*
G03X19499Y17038I208J0*
G01*
X19499Y17038D01*
X19873Y17038D01*
X19895Y17017D01*
G74*
D01*
G03X20044Y16944I183J183*
G01*
X20044Y16944D01*
X19499Y16944D01*
G75*
D01*
G03X19291Y16735I0J-209*
G01*
X19291Y16735D01*
X19291Y16459D01*
X19081Y16459D01*
X19081Y16818D01*
G74*
D01*
G03X18873Y17026I208J0*
G01*
X18873Y17026D01*
X17751Y17026D01*
G75*
D01*
G03X17542Y16818I0J-208*
G01*
X17542Y16818D01*
X17542Y16326D01*
G75*
D01*
G03X17751Y16117I209J0*
G01*
X17751Y16117D01*
X18455Y16117D01*
G75*
D01*
G03X18700Y15941I245J83*
G01*
D02*
G37*
G36*
X20396Y9397D02*
X20396Y9397D01*
X20396Y9105D01*
X20687Y9105D01*
G74*
D01*
G03X20396Y9397I470J178*
G01*
D02*
G37*
G36*
X20039Y9397D02*
G74*
D01*
G03X19747Y9105I178J470*
G01*
X19747Y9105D01*
X20039Y9105D01*
X20039Y9397D01*
D02*
G37*
G36*
X20169Y18755D02*
X20169Y18755D01*
X19959Y18755D01*
X19959Y19269D01*
X20218Y19269D01*
G75*
D01*
G03X20426Y19478I0J209*
G01*
X20426Y19478D01*
X20426Y20462D01*
G74*
D01*
G03X20218Y20670I208J0*
G01*
X20218Y20670D01*
X19549Y20670D01*
G75*
D01*
G03X19340Y20462I0J-208*
G01*
X19340Y20462D01*
X19340Y19478D01*
G75*
D01*
G03X19441Y19299I209J0*
G01*
X19441Y19299D01*
X19441Y18746D01*
G74*
D01*
G03X19291Y18546I58J200*
G01*
X19291Y18546D01*
X19291Y18152D01*
G75*
D01*
G03X19499Y17944I208J0*
G01*
X19499Y17944D01*
X20169Y17944D01*
G75*
D01*
G03X20377Y18152I0J208*
G01*
X20377Y18152D01*
X20377Y18546D01*
G74*
D01*
G03X20169Y18755I208J0*
G01*
D02*
G37*
G36*
X28104Y8931D02*
X28104Y8931D01*
X28104Y9441D01*
X28359Y9441D01*
G75*
D01*
G03X28561Y9284I202J51*
G01*
X28561Y9284D01*
X29545Y9284D01*
G75*
D01*
G03X29754Y9492I0J208*
G01*
X29754Y9492D01*
X29754Y10161D01*
G74*
D01*
G03X29545Y10370I209J0*
G01*
X29545Y10370D01*
X28561Y10370D01*
G75*
D01*
G03X28352Y10161I0J-209*
G01*
X28352Y10161D01*
X28352Y9959D01*
X28104Y9959D01*
X28104Y10230D01*
G74*
D01*
G03X27895Y10439I209J0*
G01*
X27895Y10439D01*
X27226Y10439D01*
G75*
D01*
G03X27017Y10230I0J-209*
G01*
X27017Y10230D01*
X27017Y9459D01*
X25623Y9459D01*
X25623Y9778D01*
G74*
D01*
G03X25415Y9986I208J0*
G01*
X25415Y9986D01*
X24746Y9986D01*
G75*
D01*
G03X24537Y9778I0J-208*
G01*
X24537Y9778D01*
X24537Y9384D01*
G75*
D01*
G03X24746Y9175I209J0*
G01*
X24746Y9175D01*
X24942Y9175D01*
G74*
D01*
G03X24971Y9081I258J25*
G01*
X24971Y9081D01*
X24746Y9081D01*
G75*
D01*
G03X24537Y8872I0J-209*
G01*
X24537Y8872D01*
X24537Y8478D01*
G75*
D01*
G03X24746Y8270I209J0*
G01*
X24746Y8270D01*
X24941Y8270D01*
X24941Y6700D01*
G75*
D01*
G03X25051Y6488I259J0*
G01*
X25051Y6488D01*
X25051Y6260D01*
G75*
D01*
G03X25260Y6051I209J0*
G01*
X25260Y6051D01*
X26382Y6051D01*
G74*
D01*
G03X26441Y6060I0J209*
G01*
X26441Y6060D01*
X26441Y6057D01*
X26343Y5959D01*
X24793Y5959D01*
X24793Y6165D01*
G74*
D01*
G03X24584Y6374I209J0*
G01*
X24584Y6374D01*
X23892Y6374D01*
G74*
D01*
G03X23700Y6459I192J174*
G01*
X23700Y6459D01*
X21459Y6459D01*
X21459Y6626D01*
G75*
D01*
G03X21475Y6716I-243J90*
G01*
X21475Y6716D01*
X21475Y6758D01*
G75*
D01*
G03X20949Y6763I-259J456*
G01*
G75*
D01*
G03X20941Y6699I251J-63*
G01*
X20941Y6699D01*
X20941Y6200D01*
G75*
D01*
G03X20992Y6047I259J0*
G01*
G74*
D01*
G03X20889Y5959I208J347*
G01*
X20889Y5959D01*
X20662Y5959D01*
G74*
D01*
G03X20454Y6157I208J10*
G01*
X20454Y6157D01*
X19784Y6157D01*
G75*
D01*
G03X19576Y5949I0J-208*
G01*
X19576Y5949D01*
X19576Y5555D01*
G75*
D01*
G03X19784Y5347I208J0*
G01*
X19784Y5347D01*
X20454Y5347D01*
G74*
D01*
G03X20628Y5441I0J208*
G01*
X20628Y5441D01*
X20889Y5441D01*
G75*
D01*
G03X21524Y5941I311J259*
G01*
X21524Y5941D01*
X23391Y5941D01*
X23391Y5496D01*
G75*
D01*
G03X23600Y5287I209J0*
G01*
X23600Y5287D01*
X24584Y5287D01*
G74*
D01*
G03X24785Y5441I0J209*
G01*
X24785Y5441D01*
X26450Y5441D01*
G75*
D01*
G03X26481Y5443I0J259*
G01*
G74*
D01*
G03X26633Y5517I31J257*
G01*
X26633Y5517D01*
X26883Y5767D01*
G75*
D01*
G03X26959Y5950I-183J183*
G01*
X26959Y5950D01*
X26959Y7593D01*
X27307Y7941D01*
X28700Y7941D01*
G74*
D01*
G03X28940Y8103I0J259*
G01*
X28940Y8103D01*
X29545Y8103D01*
G75*
D01*
G03X29754Y8311I0J208*
G01*
X29754Y8311D01*
X29754Y8980D01*
G74*
D01*
G03X29545Y9189I209J0*
G01*
X29545Y9189D01*
X28561Y9189D01*
G75*
D01*
G03X28352Y8980I0J-209*
G01*
X28352Y8980D01*
X28352Y8459D01*
X27200Y8459D01*
G75*
D01*
G03X27125Y8448I0J-259*
G01*
G74*
D01*
G03X27017Y8383I75J248*
G01*
X27017Y8383D01*
X26517Y7883D01*
G75*
D01*
G03X26441Y7699I183J-183*
G01*
X26441Y7699D01*
X26441Y6952D01*
G74*
D01*
G03X26382Y6960I59J200*
G01*
X26382Y6960D01*
X25459Y6960D01*
X25459Y8275D01*
G75*
D01*
G03X25623Y8478I-44J203*
G01*
X25623Y8478D01*
X25623Y8872D01*
G74*
D01*
G03X25611Y8941I208J0*
G01*
X25611Y8941D01*
X27017Y8941D01*
X27017Y8931D01*
G75*
D01*
G03X27226Y8723I209J0*
G01*
X27226Y8723D01*
X27895Y8723D01*
G75*
D01*
G03X28104Y8931I0J208*
G01*
D02*
G37*
G36*
X28199Y15670D02*
X28199Y15670D01*
X28138Y15731D01*
X28138Y15731D01*
X27982Y15887D01*
X28138Y16043D01*
X28199Y16104D01*
G75*
D01*
G03X28199Y16470I-183J183*
G01*
X28199Y16470D01*
X28138Y16531D01*
X28138Y16531D01*
X27799Y16869D01*
G74*
D01*
G03X27682Y16937I183J182*
G01*
G75*
D01*
G03X27357Y16686I-66J-250*
G01*
X27357Y16686D01*
X27357Y16503D01*
G75*
D01*
G03X27033Y16104I-141J-216*
G01*
X27033Y16104D01*
X27250Y15887D01*
X27033Y15670D01*
G75*
D01*
G03X26980Y15382I183J-183*
G01*
G75*
D01*
G03X27216Y15228I236J105*
G01*
X27216Y15228D01*
X27357Y15228D01*
X27357Y14887D01*
G75*
D01*
G03X27875Y14887I259J0*
G01*
X27875Y14887D01*
X27875Y15228D01*
X28016Y15228D01*
G75*
D01*
G03X28199Y15670I0J259*
G01*
D02*
G37*
G36*
X19195Y2844D02*
G75*
D01*
G03X19403Y3052I0J208*
G01*
X19403Y3052D01*
X19403Y3441D01*
X19878Y3441D01*
G75*
D01*
G03X19970Y3458I0J259*
G01*
G74*
D01*
G03X20061Y3517I92J242*
G01*
X20061Y3517D01*
X20080Y3536D01*
X20441Y3536D01*
X20441Y3021D01*
X19834Y3021D01*
G75*
D01*
G03X19625Y2813I0J-208*
G01*
X19625Y2813D01*
X19625Y1828D01*
G75*
D01*
G03X19834Y1620I209J0*
G01*
X19834Y1620D01*
X20503Y1620D01*
G75*
D01*
G03X20711Y1828I0J208*
G01*
X20711Y1828D01*
X20711Y2442D01*
G74*
D01*
G03X20806Y2464I11J258*
G01*
X20806Y2464D01*
X20806Y1828D01*
G75*
D01*
G03X21015Y1620I209J0*
G01*
X21015Y1620D01*
X21684Y1620D01*
G75*
D01*
G03X21893Y1828I0J208*
G01*
X21893Y1828D01*
X21893Y2441D01*
X22389Y2441D01*
G75*
D01*
G03X22389Y2959I311J259*
G01*
X22389Y2959D01*
X21833Y2959D01*
G74*
D01*
G03X21684Y3021I149J146*
G01*
X21684Y3021D01*
X21015Y3021D01*
G75*
D01*
G03X20959Y3013I0J-208*
G01*
X20959Y3013D01*
X20959Y3593D01*
X21163Y3797D01*
G75*
D01*
G03X21524Y4441I37J403*
G01*
X21524Y4441D01*
X22056Y4441D01*
X22056Y4197D01*
G75*
D01*
G03X22265Y3988I209J0*
G01*
X22265Y3988D01*
X22934Y3988D01*
G75*
D01*
G03X23143Y4197I0J209*
G01*
X23143Y4197D01*
X23143Y4441D01*
X23391Y4441D01*
X23391Y4315D01*
G75*
D01*
G03X23600Y4106I209J0*
G01*
X23600Y4106D01*
X24584Y4106D01*
G75*
D01*
G03X24793Y4315I0J209*
G01*
X24793Y4315D01*
X24793Y4984D01*
G74*
D01*
G03X24584Y5193I209J0*
G01*
X24584Y5193D01*
X23600Y5193D01*
G75*
D01*
G03X23391Y4984I0J-209*
G01*
X23391Y4984D01*
X23391Y4959D01*
X23143Y4959D01*
X23143Y5496D01*
G74*
D01*
G03X22934Y5704I209J0*
G01*
X22934Y5704D01*
X22265Y5704D01*
G75*
D01*
G03X22056Y5496I0J-208*
G01*
X22056Y5496D01*
X22056Y4959D01*
X20662Y4959D01*
X20662Y5043D01*
G74*
D01*
G03X20454Y5252I208J0*
G01*
X20454Y5252D01*
X19784Y5252D01*
G75*
D01*
G03X19576Y5043I0J-209*
G01*
X19576Y5043D01*
X19576Y4650D01*
G75*
D01*
G03X19784Y4441I208J0*
G01*
X19784Y4441D01*
X20454Y4441D01*
G74*
D01*
G03X20464Y4441I0J209*
G01*
X20464Y4441D01*
X20876Y4441D01*
G75*
D01*
G03X20797Y4163I324J-241*
G01*
X20797Y4163D01*
X20662Y4028D01*
X20662Y4138D01*
G74*
D01*
G03X20454Y4346I208J0*
G01*
X20454Y4346D01*
X19784Y4346D01*
G75*
D01*
G03X19576Y4138I0J-208*
G01*
X19576Y4138D01*
X19576Y3959D01*
X19035Y3959D01*
G75*
D01*
G03X18941Y3941I0J-259*
G01*
G74*
D01*
G03X18852Y3883I94J241*
G01*
X18852Y3883D01*
X18723Y3753D01*
X18073Y3753D01*
G75*
D01*
G03X17864Y3544I0J-209*
G01*
X17864Y3544D01*
X17864Y3052D01*
G75*
D01*
G03X18073Y2844I209J0*
G01*
X18073Y2844D01*
X19195Y2844D01*
D02*
G37*
G36*
X20020Y8927D02*
G75*
D01*
G03X20020Y8927I197J0*
G01*
D02*
G37*
G36*
X17090Y6814D02*
X17090Y6814D01*
X16786Y6814D01*
X16786Y6510D01*
G74*
D01*
G03X17090Y6814I186J490*
G01*
D02*
G37*
G36*
X16414Y6510D02*
X16414Y6510D01*
X16414Y6814D01*
X16110Y6814D01*
G74*
D01*
G03X16414Y6510I490J186*
G01*
D02*
G37*
G36*
X16425Y7000D02*
G75*
D01*
G03X16425Y7000I175J0*
G01*
D02*
G37*
G36*
X5060Y7942D02*
G75*
D01*
G03X5073Y7941I13J258*
G01*
X5073Y7941D01*
X5093Y7941D01*
X5441Y7593D01*
X5441Y7232D01*
G75*
D01*
G03X5580Y7003I259J0*
G01*
G75*
D01*
G03X5786Y6827I206J32*
G01*
X5786Y6827D01*
X6455Y6827D01*
G75*
D01*
G03X6663Y7035I0J208*
G01*
X6663Y7035D01*
X6663Y7429D01*
G74*
D01*
G03X6455Y7637I208J0*
G01*
X6455Y7637D01*
X5959Y7637D01*
X5959Y7700D01*
G74*
D01*
G03X5883Y7883I259J0*
G01*
X5883Y7883D01*
X5383Y8383D01*
G74*
D01*
G03X5328Y8425I183J183*
G01*
X5328Y8425D01*
X5328Y8980D01*
G74*
D01*
G03X5120Y9189I208J0*
G01*
X5120Y9189D01*
X4136Y9189D01*
G75*
D01*
G03X3927Y8980I0J-209*
G01*
X3927Y8980D01*
X3927Y8311D01*
G75*
D01*
G03X4136Y8103I209J0*
G01*
X4136Y8103D01*
X4805Y8103D01*
X4890Y8017D01*
G74*
D01*
G03X5060Y7942I183J183*
G01*
D02*
G37*
G36*
X25941Y11360D02*
X25941Y11360D01*
X25941Y11011D01*
G75*
D01*
G03X26459Y11011I259J-311*
G01*
X26459Y11011D01*
X26459Y11357D01*
X26645Y11357D01*
G75*
D01*
G03X26854Y11565I0J208*
G01*
X26854Y11565D01*
X26854Y12550D01*
G74*
D01*
G03X26645Y12758I209J0*
G01*
X26645Y12758D01*
X25976Y12758D01*
G75*
D01*
G03X25767Y12550I0J-208*
G01*
X25767Y12550D01*
X25767Y11565D01*
G75*
D01*
G03X25941Y11360I209J0*
G01*
D02*
G37*
G36*
X24586Y11932D02*
G74*
D01*
G03X24441Y11700I114J232*
G01*
X24441Y11700D01*
X24441Y10700D01*
G75*
D01*
G03X24537Y10499I259J0*
G01*
X24537Y10499D01*
X24537Y10289D01*
G75*
D01*
G03X24746Y10081I209J0*
G01*
X24746Y10081D01*
X25415Y10081D01*
G75*
D01*
G03X25623Y10289I0J208*
G01*
X25623Y10289D01*
X25623Y10683D01*
G74*
D01*
G03X25415Y10892I208J0*
G01*
X25415Y10892D01*
X25040Y10892D01*
G74*
D01*
G03X24959Y10942I174J192*
G01*
X24959Y10942D01*
X24959Y11357D01*
X25464Y11357D01*
G75*
D01*
G03X25672Y11565I0J208*
G01*
X25672Y11565D01*
X25672Y12550D01*
G74*
D01*
G03X25464Y12758I208J0*
G01*
X25464Y12758D01*
X24795Y12758D01*
G75*
D01*
G03X24586Y12550I0J-208*
G01*
X24586Y12550D01*
X24586Y11932D01*
D02*
G37*
G36*
X20397Y6711D02*
G74*
D01*
G03X20718Y7033I77J398*
G01*
X20718Y7033D01*
X20397Y7033D01*
X20397Y6711D01*
D02*
G37*
G36*
X20718Y7394D02*
G74*
D01*
G03X20397Y7716I398J76*
G01*
X20397Y7716D01*
X20397Y7394D01*
X20718Y7394D01*
D02*
G37*
G36*
X20035Y7716D02*
G74*
D01*
G03X19714Y7394I77J398*
G01*
X19714Y7394D01*
X20035Y7394D01*
X20035Y7716D01*
D02*
G37*
G36*
X19714Y7033D02*
G74*
D01*
G03X20035Y6711I398J76*
G01*
X20035Y6711D01*
X20035Y7033D01*
X19714Y7033D01*
D02*
G37*
G36*
X20020Y7214D02*
G75*
D01*
G03X20020Y7214I196J0*
G01*
D02*
G37*
%LPD*%
G36*
X6985Y16087D02*
G74*
D01*
G02X6717Y16399I232J470*
G01*
G74*
D01*
G02X6459Y16091I500J158*
G01*
X6459Y16091D01*
X6459Y15807D01*
X6807Y15459D01*
X7200Y15459D01*
G75*
D01*
G02X7283Y15445I0J-259*
G01*
G74*
D01*
G02X7348Y15412I83J245*
G01*
G74*
D01*
G02X7717Y14979I131J485*
G01*
G74*
D01*
G02X7813Y15225I500J52*
G01*
X7813Y15225D01*
X7033Y16019D01*
G74*
D01*
G02X6985Y16087I184J181*
G01*
D02*
G37*
G36*
X7591Y16189D02*
X7591Y16189D01*
X8357Y15409D01*
G74*
D01*
G02X8717Y14979I140J482*
G01*
G74*
D01*
G02X8813Y15225I500J52*
G01*
X8813Y15225D01*
X8033Y16019D01*
G74*
D01*
G02X7985Y16087I184J181*
G01*
G74*
D01*
G02X7717Y16399I232J470*
G01*
G74*
D01*
G02X7591Y16189I500J158*
G01*
D02*
G37*
G36*
X9591Y16189D02*
G74*
D01*
G03X9717Y16399I374J368*
G01*
G74*
D01*
G03X9985Y16087I500J158*
G01*
G74*
D01*
G03X10033Y16019I232J113*
G01*
X10033Y16019D01*
X10813Y15225D01*
G74*
D01*
G03X10717Y14979I404J298*
G01*
G74*
D01*
G03X10357Y15409I500J52*
G01*
X10357Y15409D01*
X9591Y16189D01*
D02*
G37*
G36*
X9357Y15409D02*
X9357Y15409D01*
X9240Y15528D01*
X9240Y15528D01*
X8591Y16189D01*
G74*
D01*
G03X8717Y16399I374J368*
G01*
G74*
D01*
G03X8985Y16087I500J158*
G01*
G74*
D01*
G03X9033Y16019I232J113*
G01*
X9033Y16019D01*
X9240Y15807D01*
X9240Y15807D01*
X9813Y15225D01*
G74*
D01*
G03X9717Y14979I404J298*
G01*
G74*
D01*
G03X9357Y15409I500J52*
G01*
D02*
G37*
G36*
X11441Y15700D02*
G75*
D01*
G03X11517Y15517I259J0*
G01*
X11517Y15517D01*
X11811Y15223D01*
G74*
D01*
G03X11717Y14979I406J296*
G01*
G74*
D01*
G03X11357Y15409I500J52*
G01*
X11357Y15409D01*
X10591Y16189D01*
G74*
D01*
G03X10713Y16387I374J368*
G01*
G75*
D01*
G03X11113Y16047I400J65*
G01*
X11113Y16047D01*
X11321Y16047D01*
G74*
D01*
G03X11441Y16065I0J405*
G01*
X11441Y16065D01*
X11441Y15700D01*
D02*
G37*
G36*
X12401Y8459D02*
G74*
D01*
G03X12717Y8874I184J468*
G01*
G74*
D01*
G03X13033Y8459I500J53*
G01*
X13033Y8459D01*
X12401Y8459D01*
D02*
G37*
G36*
X13717Y8874D02*
G74*
D01*
G03X14033Y8459I500J53*
G01*
X14033Y8459D01*
X13401Y8459D01*
G74*
D01*
G03X13717Y8874I184J468*
G01*
D02*
G37*
G36*
X15033Y8459D02*
X15033Y8459D01*
X14401Y8459D01*
G74*
D01*
G03X14717Y8874I184J468*
G01*
G74*
D01*
G03X15033Y8459I500J53*
G01*
D02*
G37*
G36*
X15717Y8874D02*
G74*
D01*
G03X16033Y8459I500J53*
G01*
X16033Y8459D01*
X15401Y8459D01*
G74*
D01*
G03X15717Y8874I184J468*
G01*
D02*
G37*
G36*
X16717Y8874D02*
G74*
D01*
G03X17033Y8459I500J53*
G01*
X17033Y8459D01*
X16401Y8459D01*
G74*
D01*
G03X16717Y8874I184J468*
G01*
D02*
G37*
G36*
X17717Y8874D02*
G74*
D01*
G03X18033Y8459I500J53*
G01*
X18033Y8459D01*
X17401Y8459D01*
G74*
D01*
G03X17717Y8874I184J468*
G01*
D02*
G37*
G36*
X18401Y8459D02*
X18401Y8459D01*
X19033Y8459D01*
G74*
D01*
G02X18717Y8874I184J468*
G01*
G74*
D01*
G02X18401Y8459I500J53*
G01*
D02*
G37*
G36*
X11632Y8643D02*
G74*
D01*
G03X11717Y8874I415J284*
G01*
G74*
D01*
G03X12033Y8459I500J53*
G01*
X12033Y8459D01*
X11810Y8459D01*
X11632Y8643D01*
D02*
G37*
G54D11*
X9144Y6976D02*
G74*
D01*
G03X8935Y7184I209J0*
G01*
X8266Y7184D01*
G75*
D01*
G03X8057Y6976I0J-208*
G01*
X8057Y6459D01*
X6663Y6459D01*
X6663Y6523D01*
G74*
D01*
G03X6455Y6732I208J0*
G01*
X5786Y6732D01*
G75*
D01*
G03X5577Y6523I0J-209*
G01*
X5577Y6130D01*
G75*
D01*
G03X5786Y5921I209J0*
G01*
X6455Y5921D01*
G74*
D01*
G03X6544Y5941I0J209*
G01*
X8057Y5941D01*
X8057Y5677D01*
G75*
D01*
G03X8266Y5468I209J0*
G01*
X8935Y5468D01*
G75*
D01*
G03X9144Y5677I0J209*
G01*
X9144Y5941D01*
X9700Y5941D01*
G74*
D01*
G03X9894Y6029I0J259*
G01*
X10585Y6029D01*
G75*
D01*
G03X10794Y6238I0J209*
G01*
X10794Y6907D01*
G74*
D01*
G03X10585Y7116I209J0*
G01*
X9601Y7116D01*
G75*
D01*
G03X9392Y6907I0J-209*
G01*
X9392Y6459D01*
X9144Y6459D01*
X9144Y6976D01*
X12717Y8979D02*
G75*
D01*
G03X11717Y8979I-500J-52*
G01*
G75*
D01*
G03X10717Y8979I-500J-52*
G01*
G75*
D01*
G03X9717Y8979I-500J-52*
G01*
G75*
D01*
G03X8717Y8979I-500J-52*
G01*
G75*
D01*
G03X7717Y8979I-500J-52*
G01*
G75*
D01*
G03X7717Y8874I-500J-52*
G01*
G75*
D01*
G03X8717Y8874I500J53*
G01*
G75*
D01*
G03X9717Y8874I500J53*
G01*
G75*
D01*
G03X10717Y8874I500J53*
G01*
G74*
D01*
G03X11114Y8435I500J53*
G01*
X11514Y8020D01*
G74*
D01*
G03X11609Y7958I186J180*
G01*
G75*
D01*
G03X11700Y7941I91J242*
G01*
X14857Y7941D01*
G74*
D01*
G03X14767Y7883I93J241*
G01*
X14517Y7633D01*
G75*
D01*
G03X14441Y7450I183J-183*
G01*
X14441Y6307D01*
X14093Y5959D01*
X10402Y5959D01*
G75*
D01*
G03X10335Y5950I0J-259*
G01*
G74*
D01*
G03X10292Y5934I67J250*
G01*
X9601Y5934D01*
G75*
D01*
G03X9392Y5726I0J-208*
G01*
X9392Y5057D01*
G75*
D01*
G03X9417Y4959I209J0*
G01*
X5993Y4959D01*
X5993Y4959D01*
G74*
D01*
G03X6081Y5016I94J241*
G01*
X6455Y5016D01*
G75*
D01*
G03X6663Y5224I0J208*
G01*
X6663Y5618D01*
G74*
D01*
G03X6455Y5826I208J0*
G01*
X5786Y5826D01*
G75*
D01*
G03X5577Y5618I0J-208*
G01*
X5577Y5459D01*
X5368Y5459D01*
X5368Y5651D01*
G74*
D01*
G03X5159Y5860I209J0*
G01*
X4037Y5860D01*
G75*
D01*
G03X3959Y5844I0J-209*
G01*
X3959Y6769D01*
G75*
D01*
G03X4037Y6754I78J193*
G01*
X5159Y6754D01*
G75*
D01*
G03X5368Y6962I0J208*
G01*
X5368Y7454D01*
G74*
D01*
G03X5159Y7663I209J0*
G01*
X4037Y7663D01*
G75*
D01*
G03X3959Y7648I0J-209*
G01*
X3959Y7700D01*
G74*
D01*
G03X3883Y7883I259J0*
G01*
X3425Y8340D01*
G75*
D01*
G03X3208Y9189I-387J354*
G01*
G75*
D01*
G03X3547Y9589I-66J400*
G01*
X3547Y9798D01*
G74*
D01*
G03X3431Y10083I405J0*
G01*
G75*
D01*
G03X3459Y10200I-231J117*
G01*
X3459Y18593D01*
X3581Y18715D01*
X3807Y18941D01*
X17093Y18941D01*
X17319Y18715D01*
X17517Y18517D01*
G74*
D01*
G03X17542Y18495I183J183*
G01*
X17542Y18129D01*
G75*
D01*
G03X17751Y17920I209J0*
G01*
X18873Y17920D01*
G75*
D01*
G03X19081Y18129I0J209*
G01*
X19081Y18621D01*
G74*
D01*
G03X18959Y18811I208J0*
G01*
X18959Y20843D01*
X19057Y20941D01*
X29593Y20941D01*
X29941Y20593D01*
X29941Y7307D01*
X29593Y6959D01*
X29574Y6959D01*
G75*
D01*
G03X29416Y6905I0J-259*
G01*
X27307Y6905D01*
G75*
D01*
G03X27098Y6697I0J-208*
G01*
X27098Y4512D01*
G75*
D01*
G03X27307Y4303I209J0*
G01*
X29649Y4303D01*
G75*
D01*
G03X29858Y4512I0J209*
G01*
X29858Y6495D01*
G74*
D01*
G03X29883Y6517I158J205*
G01*
X30383Y7017D01*
G75*
D01*
G03X30459Y7200I-183J183*
G01*
X30459Y20700D01*
G74*
D01*
G03X30383Y20883I259J0*
G01*
X29883Y21383D01*
G74*
D01*
G03X29754Y21453I183J183*
G01*
G75*
D01*
G03X29700Y21459I-54J-253*
G01*
X18950Y21459D01*
G75*
D01*
G03X18862Y21443I0J-259*
G01*
G74*
D01*
G03X18767Y21383I88J243*
G01*
X18689Y21305D01*
X18517Y21133D01*
G75*
D01*
G03X18441Y20950I183J-183*
G01*
X18441Y18829D01*
X18223Y18829D01*
X18170Y18883D01*
G74*
D01*
G03X17987Y18959I183J183*
G01*
X17807Y18959D01*
X17383Y19383D01*
G74*
D01*
G03X17254Y19453I183J183*
G01*
G75*
D01*
G03X17200Y19459I-54J-253*
G01*
X3700Y19459D01*
G75*
D01*
G03X3625Y19448I0J-259*
G01*
G74*
D01*
G03X3517Y19383I75J248*
G01*
X3017Y18883D01*
G75*
D01*
G03X2941Y18699I183J-183*
G01*
X2941Y10307D01*
X2855Y10221D01*
G74*
D01*
G03X2828Y10189I183J183*
G01*
G74*
D01*
G03X2529Y9798I106J391*
G01*
X2529Y9589D01*
G75*
D01*
G03X2868Y9189I405J0*
G01*
G75*
D01*
G03X2826Y8214I170J-495*
G01*
G74*
D01*
G03X2855Y8179I212J148*
G01*
X3441Y7593D01*
X3441Y5293D01*
G74*
D01*
G03X3320Y5429I241J93*
G01*
X3320Y7399D01*
G74*
D01*
G03X3112Y7608I208J0*
G01*
X769Y7608D01*
G75*
D01*
G03X561Y7399I0J-209*
G01*
X561Y5214D01*
G75*
D01*
G03X769Y5006I208J0*
G01*
X2876Y5006D01*
G74*
D01*
G03X2941Y4964I171J194*
G01*
X2941Y1701D01*
G75*
D01*
G03X3017Y1517I259J-1*
G01*
X3517Y1017D01*
G74*
D01*
G03X3625Y952I183J183*
G01*
G75*
D01*
G03X3700Y941I75J248*
G01*
X24700Y941D01*
G75*
D01*
G03X24754Y947I0J259*
G01*
G74*
D01*
G03X24883Y1017I54J253*
G01*
X25383Y1517D01*
G75*
D01*
G03X25459Y1700I-183J183*
G01*
X25459Y4248D01*
X26382Y4248D01*
G75*
D01*
G03X26590Y4457I0J209*
G01*
X26590Y4949D01*
G74*
D01*
G03X26382Y5157I208J0*
G01*
X25260Y5157D01*
G75*
D01*
G03X25051Y4949I0J-208*
G01*
X25051Y4912D01*
G74*
D01*
G03X24941Y4700I149J212*
G01*
X24941Y1807D01*
X24593Y1459D01*
X3807Y1459D01*
X3459Y1807D01*
X3459Y4857D01*
G74*
D01*
G03X3517Y4767I241J93*
G01*
X3767Y4517D01*
G75*
D01*
G03X3950Y4441I183J183*
G01*
X14597Y4441D01*
X14597Y3107D01*
G75*
D01*
G03X14805Y2899I208J0*
G01*
X17148Y2899D01*
G75*
D01*
G03X17356Y3107I0J208*
G01*
X17356Y5293D01*
G74*
D01*
G03X17148Y5501I208J0*
G01*
X14805Y5501D01*
G75*
D01*
G03X14597Y5293I0J-208*
G01*
X14597Y4959D01*
X10769Y4959D01*
G75*
D01*
G03X10794Y5057I-184J98*
G01*
X10794Y5441D01*
X14200Y5441D01*
G75*
D01*
G03X14254Y5447I0J259*
G01*
G74*
D01*
G03X14383Y5517I54J253*
G01*
X14883Y6017D01*
G75*
D01*
G03X14959Y6200I-183J183*
G01*
X14959Y7343D01*
X15057Y7441D01*
X15317Y7441D01*
G75*
D01*
G03X15433Y6503I283J-441*
G01*
G75*
D01*
G03X16011Y5941I267J-303*
G01*
X17593Y5941D01*
X17941Y5593D01*
X17941Y5509D01*
G74*
D01*
G03X17864Y5348I132J161*
G01*
X17864Y4856D01*
G75*
D01*
G03X18073Y4647I209J0*
G01*
X19195Y4647D01*
G75*
D01*
G03X19403Y4856I0J209*
G01*
X19403Y5348D01*
G74*
D01*
G03X19195Y5556I208J0*
G01*
X18459Y5556D01*
X18459Y5700D01*
G74*
D01*
G03X18383Y5883I259J0*
G01*
X17883Y6383D01*
G74*
D01*
G03X17754Y6453I183J183*
G01*
G75*
D01*
G03X17700Y6459I-54J-253*
G01*
X16011Y6459D01*
G74*
D01*
G03X15885Y6560I311J259*
G01*
G75*
D01*
G03X15883Y7441I-285J440*
G01*
X16317Y7441D01*
G74*
D01*
G03X16110Y7186I283J441*
G01*
X16414Y7186D01*
X16414Y7441D01*
X16786Y7441D01*
X16786Y7186D01*
X16942Y7186D01*
G74*
D01*
G03X17017Y7017I258J14*
G01*
X17091Y6944D01*
X17091Y6896D01*
G75*
D01*
G03X17496Y6491I405J0*
G01*
X17704Y6491D01*
G75*
D01*
G03X18109Y6896I0J405*
G01*
X18109Y7104D01*
G74*
D01*
G03X17704Y7509I405J0*
G01*
X17496Y7509D01*
G75*
D01*
G03X17452Y7507I0J-405*
G01*
G74*
D01*
G03X17383Y7633I252J57*
G01*
X17133Y7883D01*
G74*
D01*
G03X17043Y7941I183J183*
G01*
X23100Y7941D01*
G74*
D01*
G03X23283Y8017I0J259*
G01*
X24083Y8817D01*
G75*
D01*
G03X24159Y9000I-183J183*
G01*
X24159Y14593D01*
X25283Y15717D01*
G75*
D01*
G03X25359Y15900I-183J183*
G01*
X25359Y18400D01*
G74*
D01*
G03X25283Y18583I259J0*
G01*
X25151Y18715D01*
X25151Y18715D01*
X23683Y20183D01*
G74*
D01*
G03X23507Y20259I183J183*
G01*
X23500Y20259D01*
X21607Y20259D01*
X21607Y20462D01*
G74*
D01*
G03X21399Y20670I208J0*
G01*
X20730Y20670D01*
G75*
D01*
G03X20521Y20462I0J-208*
G01*
X20521Y19478D01*
G75*
D01*
G03X20730Y19269I209J0*
G01*
X21399Y19269D01*
G75*
D01*
G03X21607Y19478I0J209*
G01*
X21607Y19741D01*
X23393Y19741D01*
X24841Y18293D01*
X24841Y16007D01*
X23717Y14883D01*
G75*
D01*
G03X23641Y14700I183J-183*
G01*
X23641Y9107D01*
X22993Y8459D01*
X21401Y8459D01*
G75*
D01*
G03X21720Y8941I-184J468*
G01*
X22700Y8941D01*
G75*
D01*
G03X22754Y8947I0J259*
G01*
G74*
D01*
G03X22883Y9017I54J253*
G01*
X23132Y9266D01*
X23383Y9517D01*
G75*
D01*
G03X23459Y9700I-183J183*
G01*
X23459Y15941D01*
X23498Y15941D01*
G75*
D01*
G03X23608Y15966I0J259*
G01*
X24299Y15966D01*
G75*
D01*
G03X24507Y16174I0J208*
G01*
X24507Y16843D01*
G74*
D01*
G03X24299Y17052I208J0*
G01*
X23315Y17052D01*
G75*
D01*
G03X23106Y16843I0J-209*
G01*
X23106Y16441D01*
G74*
D01*
G03X22941Y16200I94J241*
G01*
X22941Y9807D01*
X22593Y9459D01*
X21217Y9459D01*
G75*
D01*
G03X21057Y9403I0J-259*
G01*
G75*
D01*
G03X21033Y8459I160J-476*
G01*
X20401Y8459D01*
G74*
D01*
G03X20687Y8748I184J468*
G01*
X20396Y8748D01*
X20396Y8459D01*
X20039Y8459D01*
X20039Y8748D01*
X19747Y8748D01*
G74*
D01*
G03X20033Y8459I470J179*
G01*
X19401Y8459D01*
G75*
D01*
G03X18717Y8979I-184J468*
G01*
G75*
D01*
G03X17717Y8979I-500J-52*
G01*
G75*
D01*
G03X16717Y8979I-500J-52*
G01*
G75*
D01*
G03X15717Y8979I-500J-52*
G01*
G75*
D01*
G03X14717Y8979I-500J-52*
G01*
G75*
D01*
G03X13717Y8979I-500J-52*
G01*
G74*
D01*
G03X13356Y9410I500J52*
G01*
X12883Y9883D01*
G74*
D01*
G03X12793Y9941I183J183*
G01*
X13900Y9941D01*
G74*
D01*
G03X14159Y10193I0J259*
G01*
X14280Y10314D01*
G75*
D01*
G03X14001Y10767I120J386*
G01*
X13693Y10459D01*
X10511Y10459D01*
G75*
D01*
G03X9876Y9959I-311J-259*
G01*
X5328Y9959D01*
X5328Y10161D01*
G74*
D01*
G03X5120Y10370I208J0*
G01*
X4136Y10370D01*
G75*
D01*
G03X3927Y10161I0J-209*
G01*
X3927Y9492D01*
G75*
D01*
G03X4136Y9284I209J0*
G01*
X5120Y9284D01*
G74*
D01*
G03X5322Y9441I0J208*
G01*
X12593Y9441D01*
X12768Y9266D01*
X12811Y9223D01*
G74*
D01*
G03X12717Y8979I406J296*
G01*
X9717Y14874D02*
G75*
D01*
G03X10717Y14874I500J53*
G01*
G75*
D01*
G03X11717Y14874I500J53*
G01*
G75*
D01*
G03X12717Y14874I500J53*
G01*
G75*
D01*
G03X13717Y14874I500J53*
G01*
G75*
D01*
G03X14717Y14874I500J53*
G01*
G75*
D01*
G03X15717Y14874I500J53*
G01*
G75*
D01*
G03X16717Y14874I500J53*
G01*
G75*
D01*
G03X17717Y14874I500J53*
G01*
G75*
D01*
G03X18717Y14874I500J53*
G01*
G75*
D01*
G03X19717Y14874I500J53*
G01*
G75*
D01*
G03X20717Y14874I500J53*
G01*
G75*
D01*
G03X20717Y14979I500J53*
G01*
G75*
D01*
G03X19717Y14979I-500J-52*
G01*
G75*
D01*
G03X18717Y14979I-500J-52*
G01*
G75*
D01*
G03X17717Y14979I-500J-52*
G01*
G75*
D01*
G03X16717Y14979I-500J-52*
G01*
G75*
D01*
G03X15717Y14979I-500J-52*
G01*
G75*
D01*
G03X14717Y14979I-500J-52*
G01*
G75*
D01*
G03X13717Y14979I-500J-52*
G01*
G75*
D01*
G03X12717Y14979I-500J-52*
G01*
G74*
D01*
G03X12356Y15410I500J52*
G01*
X11959Y15807D01*
X11959Y16557D01*
G74*
D01*
G03X11700Y16815I259J0*
G01*
X11696Y16815D01*
G74*
D01*
G03X11321Y17066I375J154*
G01*
X11113Y17066D01*
G75*
D01*
G03X10713Y16726I0J-405*
G01*
G75*
D01*
G03X9717Y16714I-496J-169*
G01*
G75*
D01*
G03X8717Y16714I-500J-157*
G01*
G75*
D01*
G03X7717Y16714I-500J-157*
G01*
G75*
D01*
G03X6717Y16714I-500J-157*
G01*
G75*
D01*
G03X5941Y16111I-500J-157*
G01*
X5941Y15701D01*
G75*
D01*
G03X6017Y15517I259J-1*
G01*
X6517Y15017D01*
G74*
D01*
G03X6625Y14952I183J183*
G01*
G75*
D01*
G03X6700Y14941I75J248*
G01*
X6715Y14941D01*
G75*
D01*
G03X7717Y14874I502J-14*
G01*
G75*
D01*
G03X8717Y14874I500J53*
G01*
G75*
D01*
G03X9717Y14874I500J53*
G01*
X13200Y18059D02*
X5300Y18059D01*
G75*
D01*
G03X5225Y18048I0J-259*
G01*
G74*
D01*
G03X5117Y17983I75J248*
G01*
X4617Y17483D01*
G75*
D01*
G03X4541Y17299I183J-183*
G01*
X4541Y12600D01*
G75*
D01*
G03X4617Y12417I259J0*
G01*
X6297Y10737D01*
G75*
D01*
G03X6663Y11103I403J-37*
G01*
X5059Y12707D01*
X5059Y17193D01*
X5407Y17541D01*
X13093Y17541D01*
X13344Y17290D01*
G75*
D01*
G03X13527Y17215I183J183*
G01*
X14275Y17215D01*
X14275Y16381D01*
G75*
D01*
G03X14483Y16172I208J0*
G01*
X16826Y16172D01*
G75*
D01*
G03X17034Y16381I0J209*
G01*
X17034Y18566D01*
G74*
D01*
G03X16826Y18774I208J0*
G01*
X14483Y18774D01*
G75*
D01*
G03X14275Y18566I0J-208*
G01*
X14275Y17732D01*
X13634Y17732D01*
X13383Y17983D01*
G74*
D01*
G03X13215Y18058I183J183*
G01*
G75*
D01*
G03X13200Y18059I-15J-258*
G01*
X18700Y15941D02*
X19700Y15941D01*
G74*
D01*
G03X19950Y16133I0J259*
G01*
X20169Y16133D01*
G75*
D01*
G03X20377Y16341I0J208*
G01*
X20377Y16735D01*
G74*
D01*
G03X20199Y16941I208J0*
G01*
X21593Y16941D01*
X21774Y16760D01*
G74*
D01*
G03X21946Y16588I206J34*
G01*
X22017Y16517D01*
G75*
D01*
G03X22432Y16586I183J183*
G01*
X22649Y16586D01*
G75*
D01*
G03X22857Y16794I0J208*
G01*
X22857Y17441D01*
X23106Y17441D01*
X23106Y17355D01*
G75*
D01*
G03X23315Y17147I209J0*
G01*
X24299Y17147D01*
G75*
D01*
G03X24507Y17355I0J208*
G01*
X24507Y18024D01*
G74*
D01*
G03X24299Y18233I208J0*
G01*
X23315Y18233D01*
G75*
D01*
G03X23106Y18024I0J-209*
G01*
X23106Y17959D01*
X22857Y17959D01*
X22857Y18093D01*
G74*
D01*
G03X22649Y18302I208J0*
G01*
X21980Y18302D01*
G75*
D01*
G03X21771Y18093I0J-209*
G01*
X21771Y17449D01*
G74*
D01*
G03X21754Y17453I71J249*
G01*
G75*
D01*
G03X21700Y17459I-54J-253*
G01*
X20377Y17459D01*
X20377Y17641D01*
G74*
D01*
G03X20169Y17849I208J0*
G01*
X19499Y17849D01*
G75*
D01*
G03X19291Y17641I0J-208*
G01*
X19291Y17247D01*
G75*
D01*
G03X19499Y17038I208J0*
G01*
X19873Y17038D01*
X19895Y17017D01*
G74*
D01*
G03X20044Y16944I183J183*
G01*
X19499Y16944D01*
G75*
D01*
G03X19291Y16735I0J-209*
G01*
X19291Y16459D01*
X19081Y16459D01*
X19081Y16818D01*
G74*
D01*
G03X18873Y17026I208J0*
G01*
X17751Y17026D01*
G75*
D01*
G03X17542Y16818I0J-208*
G01*
X17542Y16326D01*
G75*
D01*
G03X17751Y16117I209J0*
G01*
X18455Y16117D01*
G75*
D01*
G03X18700Y15941I245J83*
G01*
X20396Y9397D02*
X20396Y9105D01*
X20687Y9105D01*
G74*
D01*
G03X20396Y9397I470J178*
G01*
X20039Y9397D02*
G74*
D01*
G03X19747Y9105I178J470*
G01*
X20039Y9105D01*
X20039Y9397D01*
X20169Y18755D02*
X19959Y18755D01*
X19959Y19269D01*
X20218Y19269D01*
G75*
D01*
G03X20426Y19478I0J209*
G01*
X20426Y20462D01*
G74*
D01*
G03X20218Y20670I208J0*
G01*
X19549Y20670D01*
G75*
D01*
G03X19340Y20462I0J-208*
G01*
X19340Y19478D01*
G75*
D01*
G03X19441Y19299I209J0*
G01*
X19441Y18746D01*
G74*
D01*
G03X19291Y18546I58J200*
G01*
X19291Y18152D01*
G75*
D01*
G03X19499Y17944I208J0*
G01*
X20169Y17944D01*
G75*
D01*
G03X20377Y18152I0J208*
G01*
X20377Y18546D01*
G74*
D01*
G03X20169Y18755I208J0*
G01*
X28104Y8931D02*
X28104Y9441D01*
X28359Y9441D01*
G75*
D01*
G03X28561Y9284I202J51*
G01*
X29545Y9284D01*
G75*
D01*
G03X29754Y9492I0J208*
G01*
X29754Y10161D01*
G74*
D01*
G03X29545Y10370I209J0*
G01*
X28561Y10370D01*
G75*
D01*
G03X28352Y10161I0J-209*
G01*
X28352Y9959D01*
X28104Y9959D01*
X28104Y10230D01*
G74*
D01*
G03X27895Y10439I209J0*
G01*
X27226Y10439D01*
G75*
D01*
G03X27017Y10230I0J-209*
G01*
X27017Y9459D01*
X25623Y9459D01*
X25623Y9778D01*
G74*
D01*
G03X25415Y9986I208J0*
G01*
X24746Y9986D01*
G75*
D01*
G03X24537Y9778I0J-208*
G01*
X24537Y9384D01*
G75*
D01*
G03X24746Y9175I209J0*
G01*
X24942Y9175D01*
G74*
D01*
G03X24971Y9081I258J25*
G01*
X24746Y9081D01*
G75*
D01*
G03X24537Y8872I0J-209*
G01*
X24537Y8478D01*
G75*
D01*
G03X24746Y8270I209J0*
G01*
X24941Y8270D01*
X24941Y6700D01*
G75*
D01*
G03X25051Y6488I259J0*
G01*
X25051Y6260D01*
G75*
D01*
G03X25260Y6051I209J0*
G01*
X26382Y6051D01*
G74*
D01*
G03X26441Y6060I0J209*
G01*
X26441Y6057D01*
X26343Y5959D01*
X24793Y5959D01*
X24793Y6165D01*
G74*
D01*
G03X24584Y6374I209J0*
G01*
X23892Y6374D01*
G74*
D01*
G03X23700Y6459I192J174*
G01*
X21459Y6459D01*
X21459Y6626D01*
G75*
D01*
G03X21475Y6716I-243J90*
G01*
X21475Y6758D01*
G75*
D01*
G03X20949Y6763I-259J456*
G01*
G75*
D01*
G03X20941Y6699I251J-63*
G01*
X20941Y6200D01*
G75*
D01*
G03X20992Y6047I259J0*
G01*
G74*
D01*
G03X20889Y5959I208J347*
G01*
X20662Y5959D01*
G74*
D01*
G03X20454Y6157I208J10*
G01*
X19784Y6157D01*
G75*
D01*
G03X19576Y5949I0J-208*
G01*
X19576Y5555D01*
G75*
D01*
G03X19784Y5347I208J0*
G01*
X20454Y5347D01*
G74*
D01*
G03X20628Y5441I0J208*
G01*
X20889Y5441D01*
G75*
D01*
G03X21524Y5941I311J259*
G01*
X23391Y5941D01*
X23391Y5496D01*
G75*
D01*
G03X23600Y5287I209J0*
G01*
X24584Y5287D01*
G74*
D01*
G03X24785Y5441I0J209*
G01*
X26450Y5441D01*
G75*
D01*
G03X26481Y5443I0J259*
G01*
G74*
D01*
G03X26633Y5517I31J257*
G01*
X26883Y5767D01*
G75*
D01*
G03X26959Y5950I-183J183*
G01*
X26959Y7593D01*
X27307Y7941D01*
X28700Y7941D01*
G74*
D01*
G03X28940Y8103I0J259*
G01*
X29545Y8103D01*
G75*
D01*
G03X29754Y8311I0J208*
G01*
X29754Y8980D01*
G74*
D01*
G03X29545Y9189I209J0*
G01*
X28561Y9189D01*
G75*
D01*
G03X28352Y8980I0J-209*
G01*
X28352Y8459D01*
X27200Y8459D01*
G75*
D01*
G03X27125Y8448I0J-259*
G01*
G74*
D01*
G03X27017Y8383I75J248*
G01*
X26517Y7883D01*
G75*
D01*
G03X26441Y7699I183J-183*
G01*
X26441Y6952D01*
G74*
D01*
G03X26382Y6960I59J200*
G01*
X25459Y6960D01*
X25459Y8275D01*
G75*
D01*
G03X25623Y8478I-44J203*
G01*
X25623Y8872D01*
G74*
D01*
G03X25611Y8941I208J0*
G01*
X27017Y8941D01*
X27017Y8931D01*
G75*
D01*
G03X27226Y8723I209J0*
G01*
X27895Y8723D01*
G75*
D01*
G03X28104Y8931I0J208*
G01*
X28199Y15670D02*
X28138Y15731D01*
X28138Y15731D01*
X27982Y15887D01*
X28138Y16043D01*
X28199Y16104D01*
G75*
D01*
G03X28199Y16470I-183J183*
G01*
X28138Y16531D01*
X28138Y16531D01*
X27799Y16869D01*
G74*
D01*
G03X27682Y16937I183J182*
G01*
G75*
D01*
G03X27357Y16686I-66J-250*
G01*
X27357Y16503D01*
G75*
D01*
G03X27033Y16104I-141J-216*
G01*
X27250Y15887D01*
X27033Y15670D01*
G75*
D01*
G03X26980Y15382I183J-183*
G01*
G75*
D01*
G03X27216Y15228I236J105*
G01*
X27357Y15228D01*
X27357Y14887D01*
G75*
D01*
G03X27875Y14887I259J0*
G01*
X27875Y15228D01*
X28016Y15228D01*
G75*
D01*
G03X28199Y15670I0J259*
G01*
X19195Y2844D02*
G75*
D01*
G03X19403Y3052I0J208*
G01*
X19403Y3441D01*
X19878Y3441D01*
G75*
D01*
G03X19970Y3458I0J259*
G01*
G74*
D01*
G03X20061Y3517I92J242*
G01*
X20080Y3536D01*
X20441Y3536D01*
X20441Y3021D01*
X19834Y3021D01*
G75*
D01*
G03X19625Y2813I0J-208*
G01*
X19625Y1828D01*
G75*
D01*
G03X19834Y1620I209J0*
G01*
X20503Y1620D01*
G75*
D01*
G03X20711Y1828I0J208*
G01*
X20711Y2442D01*
G74*
D01*
G03X20806Y2464I11J258*
G01*
X20806Y1828D01*
G75*
D01*
G03X21015Y1620I209J0*
G01*
X21684Y1620D01*
G75*
D01*
G03X21893Y1828I0J208*
G01*
X21893Y2441D01*
X22389Y2441D01*
G75*
D01*
G03X22389Y2959I311J259*
G01*
X21833Y2959D01*
G74*
D01*
G03X21684Y3021I149J146*
G01*
X21015Y3021D01*
G75*
D01*
G03X20959Y3013I0J-208*
G01*
X20959Y3593D01*
X21163Y3797D01*
G75*
D01*
G03X21524Y4441I37J403*
G01*
X22056Y4441D01*
X22056Y4197D01*
G75*
D01*
G03X22265Y3988I209J0*
G01*
X22934Y3988D01*
G75*
D01*
G03X23143Y4197I0J209*
G01*
X23143Y4441D01*
X23391Y4441D01*
X23391Y4315D01*
G75*
D01*
G03X23600Y4106I209J0*
G01*
X24584Y4106D01*
G75*
D01*
G03X24793Y4315I0J209*
G01*
X24793Y4984D01*
G74*
D01*
G03X24584Y5193I209J0*
G01*
X23600Y5193D01*
G75*
D01*
G03X23391Y4984I0J-209*
G01*
X23391Y4959D01*
X23143Y4959D01*
X23143Y5496D01*
G74*
D01*
G03X22934Y5704I209J0*
G01*
X22265Y5704D01*
G75*
D01*
G03X22056Y5496I0J-208*
G01*
X22056Y4959D01*
X20662Y4959D01*
X20662Y5043D01*
G74*
D01*
G03X20454Y5252I208J0*
G01*
X19784Y5252D01*
G75*
D01*
G03X19576Y5043I0J-209*
G01*
X19576Y4650D01*
G75*
D01*
G03X19784Y4441I208J0*
G01*
X20454Y4441D01*
G74*
D01*
G03X20464Y4441I0J209*
G01*
X20876Y4441D01*
G75*
D01*
G03X20797Y4163I324J-241*
G01*
X20662Y4028D01*
X20662Y4138D01*
G74*
D01*
G03X20454Y4346I208J0*
G01*
X19784Y4346D01*
G75*
D01*
G03X19576Y4138I0J-208*
G01*
X19576Y3959D01*
X19035Y3959D01*
G75*
D01*
G03X18941Y3941I0J-259*
G01*
G74*
D01*
G03X18852Y3883I94J241*
G01*
X18723Y3753D01*
X18073Y3753D01*
G75*
D01*
G03X17864Y3544I0J-209*
G01*
X17864Y3052D01*
G75*
D01*
G03X18073Y2844I209J0*
G01*
X19195Y2844D01*
X20020Y8927D02*
G75*
D01*
G03X20020Y8927I197J0*
G01*
X17090Y6814D02*
X16786Y6814D01*
X16786Y6510D01*
G74*
D01*
G03X17090Y6814I186J490*
G01*
X16414Y6510D02*
X16414Y6814D01*
X16110Y6814D01*
G74*
D01*
G03X16414Y6510I490J186*
G01*
X16425Y7000D02*
G75*
D01*
G03X16425Y7000I175J0*
G01*
X5060Y7942D02*
G75*
D01*
G03X5073Y7941I13J258*
G01*
X5093Y7941D01*
X5441Y7593D01*
X5441Y7232D01*
G75*
D01*
G03X5580Y7003I259J0*
G01*
G75*
D01*
G03X5786Y6827I206J32*
G01*
X6455Y6827D01*
G75*
D01*
G03X6663Y7035I0J208*
G01*
X6663Y7429D01*
G74*
D01*
G03X6455Y7637I208J0*
G01*
X5959Y7637D01*
X5959Y7700D01*
G74*
D01*
G03X5883Y7883I259J0*
G01*
X5383Y8383D01*
G74*
D01*
G03X5328Y8425I183J183*
G01*
X5328Y8980D01*
G74*
D01*
G03X5120Y9189I208J0*
G01*
X4136Y9189D01*
G75*
D01*
G03X3927Y8980I0J-209*
G01*
X3927Y8311D01*
G75*
D01*
G03X4136Y8103I209J0*
G01*
X4805Y8103D01*
X4890Y8017D01*
G74*
D01*
G03X5060Y7942I183J183*
G01*
X25941Y11360D02*
X25941Y11011D01*
G75*
D01*
G03X26459Y11011I259J-311*
G01*
X26459Y11357D01*
X26645Y11357D01*
G75*
D01*
G03X26854Y11565I0J208*
G01*
X26854Y12550D01*
G74*
D01*
G03X26645Y12758I209J0*
G01*
X25976Y12758D01*
G75*
D01*
G03X25767Y12550I0J-208*
G01*
X25767Y11565D01*
G75*
D01*
G03X25941Y11360I209J0*
G01*
X24586Y11932D02*
G74*
D01*
G03X24441Y11700I114J232*
G01*
X24441Y10700D01*
G75*
D01*
G03X24537Y10499I259J0*
G01*
X24537Y10289D01*
G75*
D01*
G03X24746Y10081I209J0*
G01*
X25415Y10081D01*
G75*
D01*
G03X25623Y10289I0J208*
G01*
X25623Y10683D01*
G74*
D01*
G03X25415Y10892I208J0*
G01*
X25040Y10892D01*
G74*
D01*
G03X24959Y10942I174J192*
G01*
X24959Y11357D01*
X25464Y11357D01*
G75*
D01*
G03X25672Y11565I0J208*
G01*
X25672Y12550D01*
G74*
D01*
G03X25464Y12758I208J0*
G01*
X24795Y12758D01*
G75*
D01*
G03X24586Y12550I0J-208*
G01*
X24586Y11932D01*
X20397Y6711D02*
G74*
D01*
G03X20718Y7033I77J398*
G01*
X20397Y7033D01*
X20397Y6711D01*
X20718Y7394D02*
G74*
D01*
G03X20397Y7716I398J76*
G01*
X20397Y7394D01*
X20718Y7394D01*
X20035Y7716D02*
G74*
D01*
G03X19714Y7394I77J398*
G01*
X20035Y7394D01*
X20035Y7716D01*
X19714Y7033D02*
G74*
D01*
G03X20035Y6711I398J76*
G01*
X20035Y7033D01*
X19714Y7033D01*
X20020Y7214D02*
G75*
D01*
G03X20020Y7214I196J0*
G01*
X208Y22195D02*
X31292Y22195D01*
X31292Y234D01*
X208Y234D01*
X208Y22195D01*
X11632Y8643D02*
G74*
D01*
G03X11717Y8874I415J284*
G01*
G74*
D01*
G03X12033Y8459I500J53*
G01*
X11810Y8459D01*
X11632Y8643D01*
X12401Y8459D02*
G74*
D01*
G03X12717Y8874I184J468*
G01*
G74*
D01*
G03X13033Y8459I500J53*
G01*
X12401Y8459D01*
X13717Y8874D02*
G74*
D01*
G03X14033Y8459I500J53*
G01*
X13401Y8459D01*
G74*
D01*
G03X13717Y8874I184J468*
G01*
X15033Y8459D02*
X14401Y8459D01*
G74*
D01*
G03X14717Y8874I184J468*
G01*
G74*
D01*
G03X15033Y8459I500J53*
G01*
X15717Y8874D02*
G74*
D01*
G03X16033Y8459I500J53*
G01*
X15401Y8459D01*
G74*
D01*
G03X15717Y8874I184J468*
G01*
X16717Y8874D02*
G74*
D01*
G03X17033Y8459I500J53*
G01*
X16401Y8459D01*
G74*
D01*
G03X16717Y8874I184J468*
G01*
X17717Y8874D02*
G74*
D01*
G03X18033Y8459I500J53*
G01*
X17401Y8459D01*
G74*
D01*
G03X17717Y8874I184J468*
G01*
X18401Y8459D02*
X19033Y8459D01*
G74*
D01*
G02X18717Y8874I184J468*
G01*
G74*
D01*
G02X18401Y8459I500J53*
G01*
X6985Y16087D02*
G74*
D01*
G02X6717Y16399I232J470*
G01*
G74*
D01*
G02X6459Y16091I500J158*
G01*
X6459Y15807D01*
X6807Y15459D01*
X7200Y15459D01*
G75*
D01*
G02X7283Y15445I0J-259*
G01*
G74*
D01*
G02X7348Y15412I83J245*
G01*
G74*
D01*
G02X7717Y14979I131J485*
G01*
G74*
D01*
G02X7813Y15225I500J52*
G01*
X7033Y16019D01*
G74*
D01*
G02X6985Y16087I184J181*
G01*
X7591Y16189D02*
X8357Y15409D01*
G74*
D01*
G02X8717Y14979I140J482*
G01*
G74*
D01*
G02X8813Y15225I500J52*
G01*
X8033Y16019D01*
G74*
D01*
G02X7985Y16087I184J181*
G01*
G74*
D01*
G02X7717Y16399I232J470*
G01*
G74*
D01*
G02X7591Y16189I500J158*
G01*
X9357Y15409D02*
X9240Y15528D01*
X9240Y15528D01*
X8591Y16189D01*
G74*
D01*
G03X8717Y16399I374J368*
G01*
G74*
D01*
G03X8985Y16087I500J158*
G01*
G74*
D01*
G03X9033Y16019I232J113*
G01*
X9240Y15807D01*
X9240Y15807D01*
X9813Y15225D01*
G74*
D01*
G03X9717Y14979I404J298*
G01*
G74*
D01*
G03X9357Y15409I500J52*
G01*
X9591Y16189D02*
G74*
D01*
G03X9717Y16399I374J368*
G01*
G74*
D01*
G03X9985Y16087I500J158*
G01*
G74*
D01*
G03X10033Y16019I232J113*
G01*
X10813Y15225D01*
G74*
D01*
G03X10717Y14979I404J298*
G01*
G74*
D01*
G03X10357Y15409I500J52*
G01*
X9591Y16189D01*
X11441Y15700D02*
G75*
D01*
G03X11517Y15517I259J0*
G01*
X11811Y15223D01*
G74*
D01*
G03X11717Y14979I406J296*
G01*
G74*
D01*
G03X11357Y15409I500J52*
G01*
X10591Y16189D01*
G74*
D01*
G03X10713Y16387I374J368*
G01*
G75*
D01*
G03X11113Y16047I400J65*
G01*
X11321Y16047D01*
G74*
D01*
G03X11441Y16065I0J405*
G01*
X11441Y15700D01*
X3700Y1200D02*
X3200Y1700D01*
X24700Y1200D02*
X3700Y1200D01*
X25200Y1700D02*
X24700Y1200D01*
X3200Y1700D02*
X3200Y5200D01*
X25200Y4700D02*
X25200Y1700D01*
X20168Y2700D02*
X20168Y2320D01*
X20700Y3700D02*
X20700Y2700D01*
X20168Y2700D01*
X21349Y2320D02*
X21349Y2700D01*
X22700Y2700D01*
X19035Y3700D02*
X18634Y3298D01*
X15976Y4700D02*
X15976Y4200D01*
X19878Y3700D02*
X19035Y3700D01*
X20119Y3941D02*
X19878Y3700D01*
X21200Y4200D02*
X20700Y3700D01*
X3047Y5200D02*
X1941Y6307D01*
X3200Y5200D02*
X3047Y5200D01*
X3700Y7200D02*
X3700Y4950D01*
X3950Y4700D01*
X15976Y4700D01*
X5899Y5200D02*
X4598Y5200D01*
X4598Y5405D01*
X6120Y5421D02*
X5899Y5200D01*
X18634Y5102D02*
X18298Y5102D01*
X18200Y5200D01*
X18200Y5700D01*
X22599Y4700D02*
X20200Y4700D01*
X20200Y4846D01*
X20119Y4846D01*
X24092Y4700D02*
X22599Y4700D01*
X22599Y4846D01*
X22599Y4700D01*
X24092Y4650D02*
X24092Y4700D01*
X25821Y4700D02*
X25200Y4700D01*
X25821Y4703D02*
X25821Y4700D01*
X14200Y5700D02*
X10402Y5700D01*
X10093Y5391D01*
X14700Y6200D02*
X14200Y5700D01*
X18200Y5700D02*
X17700Y6200D01*
X20119Y5752D02*
X20200Y5752D01*
X20200Y5700D01*
X21200Y5700D01*
X24092Y5831D02*
X23700Y5831D01*
X23700Y6200D01*
X26450Y5700D02*
X24092Y5700D01*
X24092Y5831D01*
X26700Y5950D02*
X26450Y5700D01*
X26700Y7700D02*
X26700Y5950D01*
X28478Y5604D02*
X29574Y6700D01*
X8600Y6200D02*
X6200Y6200D01*
X6200Y6326D01*
X6120Y6326D01*
X9700Y6200D02*
X8600Y6200D01*
X8600Y6326D01*
X8600Y6200D01*
X10093Y6572D02*
X9700Y6572D01*
X9700Y6200D01*
X14700Y7450D02*
X14700Y6200D01*
X17700Y6200D02*
X15700Y6200D01*
X21200Y6700D02*
X21200Y6200D01*
X23700Y6200D02*
X21200Y6200D01*
X21216Y7214D02*
X21216Y6716D01*
X21200Y6700D01*
X25821Y6700D02*
X25200Y6700D01*
X25200Y8675D01*
X25821Y6506D02*
X25821Y6700D01*
X29700Y6700D02*
X30200Y7200D01*
X29574Y6700D02*
X29700Y6700D01*
X4598Y7200D02*
X3700Y7200D01*
X3700Y7700D01*
X4598Y7208D02*
X4598Y7200D01*
X6120Y7200D02*
X5700Y7232D01*
X5700Y7700D01*
X6120Y7232D02*
X6120Y7200D01*
X14950Y7700D02*
X14700Y7450D01*
X17600Y7000D02*
X17400Y7000D01*
X17200Y7200D01*
X17200Y7450D01*
X16950Y7700D01*
X20200Y7214D02*
X20216Y7214D01*
X30200Y7200D02*
X30200Y20700D01*
X3700Y7700D02*
X3038Y8362D01*
X3038Y8694D01*
X5073Y8200D02*
X4628Y8646D01*
X5200Y8200D02*
X5073Y8200D01*
X5700Y7700D02*
X5200Y8200D01*
X11700Y8200D02*
X11217Y8700D01*
X11700Y8200D02*
X23100Y8200D01*
X16950Y7700D02*
X14950Y7700D01*
X23100Y8200D02*
X23900Y9000D01*
X27200Y8200D02*
X26700Y7700D01*
X28700Y8200D02*
X27200Y8200D01*
X28700Y8646D02*
X28700Y8200D01*
X11217Y8717D02*
X11217Y8927D01*
X11217Y8700D02*
X11217Y8717D01*
X13217Y8927D02*
X13217Y9183D01*
X21217Y9200D02*
X21217Y8927D01*
X21217Y8717D02*
X21200Y8700D01*
X21217Y8927D02*
X21217Y8717D01*
X23900Y9000D02*
X23900Y14700D01*
X25200Y8675D02*
X25080Y8675D01*
X29053Y8646D02*
X28700Y8646D01*
X3038Y10038D02*
X3038Y9694D01*
X12700Y9700D02*
X4628Y9700D01*
X4628Y9827D01*
X13217Y9183D02*
X12700Y9700D01*
X22700Y9200D02*
X21217Y9200D01*
X23200Y9700D02*
X22700Y9200D01*
X23200Y16200D02*
X23200Y9700D01*
X27560Y9200D02*
X25200Y9200D01*
X25200Y9581D01*
X25080Y9581D01*
X29053Y9700D02*
X27560Y9700D01*
X27560Y9581D01*
X27560Y9200D01*
X29053Y9827D02*
X29053Y9700D01*
X3200Y18700D02*
X3200Y10200D01*
X3038Y10038D01*
X4800Y12600D02*
X6700Y10700D01*
X10200Y10200D02*
X13900Y10200D01*
X13800Y10200D02*
X14300Y10700D01*
X14500Y10700D01*
X24700Y11700D02*
X24700Y10700D01*
X24866Y10700D01*
X25080Y10486D01*
X26200Y12057D02*
X26200Y10700D01*
X25129Y11700D02*
X24700Y11700D01*
X25129Y12057D02*
X25129Y11700D01*
X26310Y12057D02*
X26200Y12057D01*
X4800Y17300D02*
X4800Y12600D01*
X6700Y15200D02*
X6200Y15700D01*
X7217Y15183D02*
X7200Y15200D01*
X7217Y14927D02*
X7217Y15183D01*
X7200Y15200D02*
X6700Y15200D01*
X8217Y15183D02*
X7217Y16200D01*
X9217Y15183D02*
X8217Y16200D01*
X8217Y14927D02*
X8217Y15183D01*
X9217Y14927D02*
X9217Y15183D01*
X10217Y15183D02*
X9217Y16200D01*
X11217Y15183D02*
X10217Y16200D01*
X10217Y14927D02*
X10217Y15183D01*
X11217Y14927D02*
X11217Y15183D01*
X12217Y15183D02*
X11700Y15700D01*
X12217Y14927D02*
X12217Y15183D01*
X23900Y14700D02*
X25100Y15900D01*
X6200Y15700D02*
X6200Y16200D01*
X6217Y16217D02*
X6217Y16557D01*
X6200Y16200D02*
X6217Y16217D01*
X7217Y16200D02*
X7217Y16557D01*
X8217Y16200D02*
X8217Y16557D01*
X9217Y16200D02*
X9217Y16557D01*
X10217Y16200D02*
X10217Y16557D01*
X11700Y15700D02*
X11700Y16557D01*
X19700Y16200D02*
X18700Y16200D01*
X18700Y16572D01*
X19700Y16538D02*
X19700Y16200D01*
X23807Y16509D02*
X23498Y16200D01*
X23200Y16200D01*
X25100Y15900D02*
X25100Y18400D01*
X11700Y16557D02*
X11217Y16557D01*
X18700Y16572D02*
X18312Y16572D01*
X19834Y16538D02*
X19700Y16538D01*
X22314Y17200D02*
X22200Y16700D01*
X21700Y17200D01*
X5300Y17800D02*
X4800Y17300D01*
X13200Y17800D02*
X5300Y17800D01*
X15654Y17473D02*
X13527Y17473D01*
X13200Y17800D01*
X20078Y17200D02*
X19834Y17444D01*
X21700Y17200D02*
X20078Y17200D01*
X22314Y17700D02*
X22314Y17444D01*
X22314Y17200D01*
X23807Y17700D02*
X22314Y17700D01*
X23807Y17690D02*
X23807Y17700D01*
X18312Y18375D02*
X17987Y18700D01*
X18700Y18375D02*
X18312Y18375D01*
X18700Y20950D02*
X18700Y18375D01*
X19700Y19700D02*
X19700Y18349D01*
X19834Y18349D01*
X25100Y18400D02*
X23500Y20000D01*
X3700Y19200D02*
X3200Y18700D01*
X17200Y19200D02*
X3700Y19200D01*
X17700Y18700D02*
X17200Y19200D01*
X17987Y18700D02*
X17700Y18700D01*
X19883Y19970D02*
X19883Y19700D01*
X19700Y19700D01*
X23500Y20000D02*
X21100Y20000D01*
X21064Y19970D02*
X21064Y20200D01*
X18950Y21200D02*
X18700Y20950D01*
X30200Y20700D02*
X29700Y21200D01*
X18950Y21200D01*
X27616Y16687D02*
X27616Y14887D01*
X27216Y15487D02*
X28016Y15487D01*
X27216Y16287D01*
X27216Y15487D02*
X28016Y16287D01*
X27616Y16687D01*
G54D12*
X-100Y-74D02*
X-100Y2184D01*
X-100Y-74D02*
X3070Y-74D01*
X31601Y-74D02*
X28431Y-74D01*
X31601Y-74D02*
X31601Y2184D01*
X31601Y22503D02*
X31601Y20245D01*
X31601Y22503D02*
X28431Y22503D01*
X-100Y22503D02*
X3070Y22503D01*
X-100Y22503D02*
X-100Y20245D01*
X-2069Y-74D02*
X-6006Y-74D01*
X-4037Y-2043D02*
X-4037Y1894D01*
X-5513Y-74D02*
G75*
D01*
G02X-5513Y-74I1476J0*
G01*
X33569Y-74D02*
X37506Y-74D01*
X35538Y-2043D02*
X35538Y1894D01*
X34062Y-74D02*
G75*
D01*
G02X34062Y-74I1476J0*
G01*
X35046Y-74D02*
G75*
D01*
G02X35046Y-74I492J0*
G01*
X-2069Y22503D02*
X-6006Y22503D01*
X-4037Y20535D02*
X-4037Y24472D01*
X-5513Y22503D02*
G75*
D01*
G02X-5513Y22503I1476J0*
G01*
X-5021Y22503D02*
G75*
D01*
G02X-5021Y22503I984J0*
G01*
X-4529Y22503D02*
G75*
D01*
G02X-4529Y22503I492J0*
G01*
G54D13*
X22700Y2700D03*
X21200Y4200D03*
X21200Y5700D03*
X15700Y6200D03*
X6700Y10700D03*
X10200Y10200D03*
X14400Y10700D03*
X26200Y10700D03*
G54D14*
X7217Y8927D03*
X8217Y8927D03*
X9217Y8927D03*
X10217Y8927D03*
X11217Y8927D03*
X12217Y8927D03*
X13217Y8927D03*
X14217Y8927D03*
X15217Y8927D03*
X16217Y8927D03*
X17217Y8927D03*
X18217Y8927D03*
X19217Y8927D03*
X20217Y8927D03*
X21217Y8927D03*
X7217Y14927D03*
X8217Y14927D03*
X9217Y14927D03*
X10217Y14927D03*
X11217Y14927D03*
X12217Y14927D03*
X13217Y14927D03*
X14217Y14927D03*
X15217Y14927D03*
X16217Y14927D03*
X17217Y14927D03*
X18217Y14927D03*
X19217Y14927D03*
X20217Y14927D03*
X21217Y14927D03*
G54D15*
X20168Y2320D03*
X21349Y2320D03*
X21064Y19970D03*
X19883Y19970D03*
X26310Y12057D03*
X25129Y12057D03*
G54D16*
X19834Y17444D03*
X19834Y16538D03*
X19834Y18349D03*
X25080Y9581D03*
X25080Y8675D03*
X25080Y10486D03*
X6120Y6326D03*
X6120Y5421D03*
X6120Y7232D03*
X20119Y4846D03*
X20119Y3941D03*
X20119Y5752D03*
G54D17*
X22314Y17444D03*
X27560Y9581D03*
X8600Y6326D03*
X22599Y4846D03*
G54D18*
X20216Y7214D03*
X3038Y9694D03*
X11217Y16557D03*
X17600Y7000D03*
G54D19*
X20112Y7110D02*
X20320Y7110D01*
X20320Y7318D01*
X20112Y7318D01*
X20112Y7110D01*D02*
X2934Y9590D02*
X3142Y9590D01*
X3142Y9798D01*
X2934Y9798D01*
X2934Y9590D01*D02*
X11113Y16453D02*
X11321Y16453D01*
X11321Y16661D01*
X11113Y16661D01*
X11113Y16453D01*D02*
X17496Y6896D02*
X17704Y6896D01*
X17704Y7104D01*
X17496Y7104D01*
X17496Y6896D01*D02*
G54D20*
X21216Y7214D03*
X3038Y8694D03*
X10217Y16557D03*
X9217Y16557D03*
X7217Y16557D03*
X8217Y16557D03*
X6217Y16557D03*
X16600Y7000D03*
X15600Y7000D03*
G54D21*
X28478Y5604D03*
X1941Y6307D03*
X15654Y17473D03*
X15976Y4200D03*
G54D22*
X25821Y4703D03*
X25821Y6506D03*
X4598Y5405D03*
X4598Y7208D03*
X18312Y16572D03*
X18312Y18375D03*
X18634Y3298D03*
X18634Y5102D03*
G54D23*
X23807Y17690D03*
X23807Y16509D03*
X29053Y8646D03*
X29053Y9827D03*
X4628Y8646D03*
X4628Y9827D03*
X10093Y5391D03*
X10093Y6572D03*
X24092Y4650D03*
X24092Y5831D03*

M02*
