M48
INCH,TZ
VER,1
FMAT,2
DETECT,ON
ATC,ON
T1C0.0236
T2C0.0394
T3C0.0392
T4C0.0350
%
T1
X22700Y2700
X21200Y4200
Y5700
X15700Y6200
X6700Y10700
X10200Y10200
X14400Y10700
X26200
T2
X7217Y8927
X8217
X9217
X10217
X11217
X12217
X13217
X14217
X15217
X16217
X17217
X18217
X19217
X20217
X21217
X7217Y14927
X8217
X9217
X10217
X11217
X12217
X13217
X14217
X15217
X16217
X17217
X18217
X19217
X20217
X21217
T3
X20216Y7214
X3038Y9694
X11217Y16557
X17600Y7000
T4
X21216Y7214
X3038Y8694
X10217Y16557
X9217
X7217
X8217
X6217
X16600Y7000
X15600
M30
