G04 Generated by Ultiboard 14.2 *
%FSLAX34Y34*%
%MOMM*%

%ADD10C,0.0001*%
%ADD11C,0.2540*%
%ADD12C,0.1270*%
%ADD13C,1.0000*%
%ADD14C,1.6088*%
%ADD15R,0.5291X0.5291*%
%ADD16C,0.9949*%


G04 ColorRGB 0000FF for the following layer *
%LNCopper Bottom*%
%LPD*%
G54D10*
G54D11*
X154940Y50800D02*
X104140Y50800D01*
X96520Y58420D01*
X96520Y104140D01*
X154940Y66040D02*
X154940Y648970D01*
X96520Y104140D02*
X109220Y116840D01*
X127526Y116840D01*
X135890Y125204D02*
X127526Y116840D01*
X135890Y125204D02*
X135890Y580390D01*
X99060Y142240D02*
X109220Y132080D01*
X99060Y142240D02*
X99060Y566420D01*
X109220Y132080D02*
X124460Y132080D01*
X99060Y566420D02*
X86360Y579120D01*
X81280Y579120D01*
X76200Y584200D01*
X135890Y580390D02*
X134620Y581660D01*
X156210Y648970D02*
X165100Y657860D01*
X154940Y648970D02*
X156210Y648970D01*
G54D12*
X-2540Y-2540D02*
X-2540Y71968D01*
X-2540Y-2540D02*
X20468Y-2540D01*
X227540Y-2540D02*
X204532Y-2540D01*
X227540Y-2540D02*
X227540Y71968D01*
X227540Y742540D02*
X227540Y668032D01*
X227540Y742540D02*
X204532Y742540D01*
X-2540Y742540D02*
X20468Y742540D01*
X-2540Y742540D02*
X-2540Y668032D01*
X-52540Y-2540D02*
X-152540Y-2540D01*
X-102540Y-52540D02*
X-102540Y47460D01*
X-140040Y-2540D02*
G75*
D01*
G02X-140040Y-2540I37500J0*
G01*
X277540Y-2540D02*
X377540Y-2540D01*
X327540Y-52540D02*
X327540Y47460D01*
X290040Y-2540D02*
G75*
D01*
G02X290040Y-2540I37500J0*
G01*
X315040Y-2540D02*
G75*
D01*
G02X315040Y-2540I12500J0*
G01*
X-52540Y742540D02*
X-152540Y742540D01*
X-102540Y692540D02*
X-102540Y792540D01*
X-140040Y742540D02*
G75*
D01*
G02X-140040Y742540I37500J0*
G01*
X-127540Y742540D02*
G75*
D01*
G02X-127540Y742540I25000J0*
G01*
X-115040Y742540D02*
G75*
D01*
G02X-115040Y742540I12500J0*
G01*
G54D13*
X154940Y50800D03*
X154940Y66040D03*
X124460Y132080D03*
X134620Y581660D03*
X165100Y657860D03*
G54D14*
X177800Y558800D03*
X177800Y584200D03*
X177800Y533400D03*
X76200Y584200D03*
G54D15*
X177800Y609600D03*
X76200Y558800D03*
G54D16*
X175155Y606955D02*
X180445Y606955D01*
X180445Y612245D01*
X175155Y612245D01*
X175155Y606955D01*D02*
X73555Y556155D02*
X78845Y556155D01*
X78845Y561445D01*
X73555Y561445D01*
X73555Y556155D01*D02*

M02*
