G04 Generated by Ultiboard 14.2 *
%FSLAX24Y24*%
%MOIN*%

%ADD10C,0.0001*%
%ADD11C,0.0100*%
%ADD12C,0.0050*%
%ADD13C,0.0394*%
%ADD14C,0.0591*%
%ADD15R,0.0208X0.0208*%
%ADD16C,0.0392*%
%ADD17C,0.0633*%


G04 ColorRGB 0000FF for the following layer *
%LNCopper Bottom*%
%LPD*%
G54D10*
G36*
X208Y234D02*
X208Y234D01*
X208Y22195D01*
X31292Y22195D01*
X31292Y234D01*
X208Y234D01*
D02*
G37*
%LPC*%
G36*
X22200Y941D02*
G75*
D01*
G03X22254Y947I0J259*
G01*
G74*
D01*
G03X22383Y1017I54J253*
G01*
X22383Y1017D01*
X22883Y1517D01*
G75*
D01*
G03X22959Y1700I-183J183*
G01*
X22959Y1700D01*
X22959Y2389D01*
G75*
D01*
G03X22959Y3011I-259J311*
G01*
X22959Y3011D01*
X22959Y7700D01*
G75*
D01*
G03X22441Y7700I-259J0*
G01*
X22441Y7700D01*
X22441Y3011D01*
G75*
D01*
G03X22441Y2389I259J-311*
G01*
X22441Y2389D01*
X22441Y1807D01*
X22093Y1459D01*
X3907Y1459D01*
X2459Y2907D01*
X2459Y12293D01*
X2807Y12641D01*
X8000Y12641D01*
X9240Y11401D01*
X9240Y11401D01*
X10061Y10580D01*
G75*
D01*
G03X9941Y9889I139J-380*
G01*
X9941Y9889D01*
X9941Y9347D01*
G74*
D01*
G03X9717Y8979I276J420*
G01*
G75*
D01*
G03X8717Y8979I-500J-52*
G01*
G75*
D01*
G03X7717Y8979I-500J-52*
G01*
G75*
D01*
G03X6959Y9358I-500J-52*
G01*
X6959Y9358D01*
X6959Y10389D01*
G75*
D01*
G03X6441Y10389I-259J311*
G01*
X6441Y10389D01*
X6441Y6701D01*
G75*
D01*
G03X6517Y6517I259J-1*
G01*
X6517Y6517D01*
X7017Y6017D01*
G74*
D01*
G03X7125Y5952I183J183*
G01*
G75*
D01*
G03X7200Y5941I75J248*
G01*
X7200Y5941D01*
X15389Y5941D01*
G75*
D01*
G03X15885Y6560I311J259*
G01*
G75*
D01*
G03X15308Y7435I-285J440*
G01*
G74*
D01*
G03X15285Y7444I108J235*
G01*
G75*
D01*
G03X15200Y7459I-85J-244*
G01*
X15200Y7459D01*
X7807Y7459D01*
X7459Y7807D01*
X7459Y8486D01*
G74*
D01*
G03X7717Y8874I242J441*
G01*
G75*
D01*
G03X8717Y8874I500J53*
G01*
G75*
D01*
G03X9717Y8874I500J53*
G01*
G74*
D01*
G03X9978Y8484I500J53*
G01*
G75*
D01*
G03X10457Y8484I239J99*
G01*
G74*
D01*
G03X10717Y8874I240J443*
G01*
G75*
D01*
G03X11717Y8874I500J53*
G01*
G75*
D01*
G03X12717Y8874I500J53*
G01*
G75*
D01*
G03X13717Y8874I500J53*
G01*
G75*
D01*
G03X14717Y8874I500J53*
G01*
G75*
D01*
G03X15717Y8874I500J53*
G01*
G75*
D01*
G03X16717Y8874I500J53*
G01*
G75*
D01*
G03X17717Y8874I500J53*
G01*
G75*
D01*
G03X18717Y8874I500J53*
G01*
G75*
D01*
G03X18717Y8979I500J53*
G01*
G75*
D01*
G03X17717Y8979I-500J-52*
G01*
G75*
D01*
G03X16717Y8979I-500J-52*
G01*
G75*
D01*
G03X15717Y8979I-500J-52*
G01*
G75*
D01*
G03X14717Y8979I-500J-52*
G01*
G75*
D01*
G03X13717Y8979I-500J-52*
G01*
G75*
D01*
G03X12717Y8979I-500J-52*
G01*
G75*
D01*
G03X11995Y9378I-500J-52*
G01*
X11995Y9378D01*
X9240Y12132D01*
X9240Y12132D01*
X8290Y13083D01*
G74*
D01*
G03X8107Y13159I183J183*
G01*
X8107Y13159D01*
X2700Y13159D01*
G75*
D01*
G03X2517Y13083I0J-259*
G01*
X2517Y13083D01*
X2017Y12583D01*
G75*
D01*
G03X1941Y12400I183J-183*
G01*
X1941Y12400D01*
X1941Y2800D01*
G75*
D01*
G03X2017Y2617I259J0*
G01*
X2017Y2617D01*
X3617Y1017D01*
G74*
D01*
G03X3703Y960I183J183*
G01*
G75*
D01*
G03X3800Y941I97J240*
G01*
X3800Y941D01*
X22200Y941D01*
D02*
G37*
G36*
X9717Y16714D02*
G75*
D01*
G03X8717Y16714I-500J-157*
G01*
G75*
D01*
G03X7717Y16714I-500J-157*
G01*
G75*
D01*
G03X6717Y16714I-500J-157*
G01*
G75*
D01*
G03X6717Y16399I-500J-157*
G01*
G75*
D01*
G03X7717Y16399I500J158*
G01*
G75*
D01*
G03X8717Y16399I500J158*
G01*
G75*
D01*
G03X9717Y16399I500J158*
G01*
G75*
D01*
G03X10713Y16387I500J158*
G01*
G75*
D01*
G03X11113Y16047I400J65*
G01*
X11113Y16047D01*
X11321Y16047D01*
G75*
D01*
G03X11727Y16452I0J405*
G01*
X11727Y16452D01*
X11727Y16661D01*
G74*
D01*
G03X11321Y17066I406J0*
G01*
X11321Y17066D01*
X11113Y17066D01*
G75*
D01*
G03X10713Y16726I0J-405*
G01*
G75*
D01*
G03X9717Y16714I-496J-169*
G01*
D02*
G37*
G36*
X9717Y14979D02*
G75*
D01*
G03X8717Y14979I-500J-52*
G01*
G75*
D01*
G03X7717Y14979I-500J-52*
G01*
G75*
D01*
G03X7717Y14874I-500J-52*
G01*
G75*
D01*
G03X8717Y14874I500J53*
G01*
G75*
D01*
G03X9717Y14874I500J53*
G01*
G75*
D01*
G03X10717Y14874I500J53*
G01*
G75*
D01*
G03X11717Y14874I500J53*
G01*
G75*
D01*
G03X12717Y14874I500J53*
G01*
G75*
D01*
G03X13717Y14874I500J53*
G01*
G75*
D01*
G03X14717Y14874I500J53*
G01*
G75*
D01*
G03X15717Y14874I500J53*
G01*
G75*
D01*
G03X16717Y14874I500J53*
G01*
G75*
D01*
G03X17717Y14874I500J53*
G01*
G75*
D01*
G03X18717Y14874I500J53*
G01*
G75*
D01*
G03X19717Y14874I500J53*
G01*
G75*
D01*
G03X20717Y14874I500J53*
G01*
G75*
D01*
G03X20717Y14979I500J53*
G01*
G75*
D01*
G03X19717Y14979I-500J-52*
G01*
G75*
D01*
G03X18717Y14979I-500J-52*
G01*
G75*
D01*
G03X17717Y14979I-500J-52*
G01*
G75*
D01*
G03X16717Y14979I-500J-52*
G01*
G75*
D01*
G03X15717Y14979I-500J-52*
G01*
G75*
D01*
G03X14717Y14979I-500J-52*
G01*
G75*
D01*
G03X13717Y14979I-500J-52*
G01*
G75*
D01*
G03X12717Y14979I-500J-52*
G01*
G75*
D01*
G03X11717Y14979I-500J-52*
G01*
G75*
D01*
G03X10717Y14979I-500J-52*
G01*
G75*
D01*
G03X9717Y14979I-500J-52*
G01*
D02*
G37*
G36*
X20396Y9397D02*
X20396Y9397D01*
X20396Y9105D01*
X20687Y9105D01*
G74*
D01*
G03X20396Y9397I470J178*
G01*
D02*
G37*
G36*
X20039Y9397D02*
G74*
D01*
G03X19747Y9105I178J470*
G01*
X19747Y9105D01*
X20039Y9105D01*
X20039Y9397D01*
D02*
G37*
G36*
X21476Y8495D02*
G75*
D01*
G03X20959Y8495I-259J432*
G01*
X20959Y8495D01*
X20959Y7670D01*
G75*
D01*
G03X20917Y6783I257J-456*
G01*
X20917Y6783D01*
X20593Y6459D01*
X18307Y6459D01*
X18061Y6704D01*
G75*
D01*
G03X18109Y6896I-357J192*
G01*
X18109Y6896D01*
X18109Y7104D01*
G74*
D01*
G03X17704Y7509I405J0*
G01*
X17704Y7509D01*
X17496Y7509D01*
G75*
D01*
G03X17091Y7104I0J-405*
G01*
X17091Y7104D01*
X17091Y6896D01*
G75*
D01*
G03X17496Y6491I405J0*
G01*
X17496Y6491D01*
X17544Y6491D01*
X18017Y6017D01*
G74*
D01*
G03X18116Y5955I183J183*
G01*
G75*
D01*
G03X18200Y5941I84J245*
G01*
X18200Y5941D01*
X20700Y5941D01*
G75*
D01*
G03X20729Y5943I0J259*
G01*
G74*
D01*
G03X20883Y6017I29J257*
G01*
X20883Y6017D01*
X21399Y6533D01*
G75*
D01*
G03X21475Y6716I-183J183*
G01*
X21475Y6716D01*
X21475Y6758D01*
G75*
D01*
G03X21476Y7669I-259J456*
G01*
X21476Y7669D01*
X21476Y8495D01*
D02*
G37*
G36*
X3208Y9189D02*
G75*
D01*
G03X3547Y9589I-66J400*
G01*
X3547Y9589D01*
X3547Y9798D01*
G74*
D01*
G03X3142Y10203I405J0*
G01*
X3142Y10203D01*
X2934Y10203D01*
G75*
D01*
G03X2529Y9798I0J-405*
G01*
X2529Y9798D01*
X2529Y9589D01*
G75*
D01*
G03X2868Y9189I405J0*
G01*
G75*
D01*
G03X3208Y9189I170J-495*
G01*
D02*
G37*
G36*
X25828Y10859D02*
X25828Y10859D01*
X14772Y10859D01*
G75*
D01*
G03X14587Y10341I-372J-159*
G01*
X14587Y10341D01*
X26013Y10341D01*
G75*
D01*
G03X25828Y10859I187J359*
G01*
D02*
G37*
G36*
X20020Y8927D02*
G75*
D01*
G03X20020Y8927I197J0*
G01*
D02*
G37*
G36*
X20397Y6711D02*
G74*
D01*
G03X20718Y7033I77J398*
G01*
X20718Y7033D01*
X20397Y7033D01*
X20397Y6711D01*
D02*
G37*
G36*
X20020Y7214D02*
G75*
D01*
G03X20020Y7214I196J0*
G01*
D02*
G37*
G36*
X19714Y7033D02*
G74*
D01*
G03X20035Y6711I398J76*
G01*
X20035Y6711D01*
X20035Y7033D01*
X19714Y7033D01*
D02*
G37*
G36*
X20718Y7394D02*
G74*
D01*
G03X20397Y7716I398J76*
G01*
X20397Y7716D01*
X20397Y7394D01*
X20718Y7394D01*
D02*
G37*
G36*
X20035Y7716D02*
G74*
D01*
G03X19714Y7394I77J398*
G01*
X19714Y7394D01*
X20035Y7394D01*
X20035Y7716D01*
D02*
G37*
G36*
X20687Y8748D02*
X20687Y8748D01*
X20396Y8748D01*
X20396Y8456D01*
G74*
D01*
G03X20687Y8748I179J471*
G01*
D02*
G37*
G36*
X20039Y8456D02*
X20039Y8456D01*
X20039Y8748D01*
X19747Y8748D01*
G74*
D01*
G03X20039Y8456I470J179*
G01*
D02*
G37*
G36*
X16425Y7000D02*
G75*
D01*
G03X16425Y7000I175J0*
G01*
D02*
G37*
G36*
X16414Y6510D02*
X16414Y6510D01*
X16414Y6814D01*
X16110Y6814D01*
G74*
D01*
G03X16414Y6510I490J186*
G01*
D02*
G37*
G36*
X17090Y6814D02*
X17090Y6814D01*
X16786Y6814D01*
X16786Y6510D01*
G74*
D01*
G03X17090Y6814I186J490*
G01*
D02*
G37*
G36*
X16110Y7186D02*
X16110Y7186D01*
X16414Y7186D01*
X16414Y7490D01*
G74*
D01*
G03X16110Y7186I186J490*
G01*
D02*
G37*
G36*
X16786Y7490D02*
X16786Y7490D01*
X16786Y7186D01*
X17090Y7186D01*
G74*
D01*
G03X16786Y7490I490J186*
G01*
D02*
G37*
G36*
X20941Y5389D02*
X20941Y5389D01*
X20941Y4511D01*
G75*
D01*
G03X21459Y4511I259J-311*
G01*
X21459Y4511D01*
X21459Y5389D01*
G75*
D01*
G03X20941Y5389I-259J311*
G01*
D02*
G37*
%LPD*%
G36*
X7700Y6941D02*
X7700Y6941D01*
X15079Y6941D01*
G74*
D01*
G03X15433Y6503I521J59*
G01*
G74*
D01*
G03X15389Y6459I267J303*
G01*
X15389Y6459D01*
X7307Y6459D01*
X6959Y6807D01*
X6959Y7607D01*
G74*
D01*
G03X7017Y7517I241J93*
G01*
X7017Y7517D01*
X7517Y7017D01*
G74*
D01*
G03X7625Y6952I183J183*
G01*
G75*
D01*
G03X7700Y6941I75J248*
G01*
D02*
G37*
G36*
X10717Y8979D02*
G74*
D01*
G03X10459Y9368I500J52*
G01*
X10459Y9368D01*
X10459Y9889D01*
G74*
D01*
G03X10580Y10061I259J311*
G01*
X10580Y10061D01*
X11212Y9429D01*
G74*
D01*
G03X10717Y8979I5J502*
G01*
D02*
G37*
G54D11*
X7700Y6941D02*
X15079Y6941D01*
G74*
D01*
G03X15433Y6503I521J59*
G01*
G74*
D01*
G03X15389Y6459I267J303*
G01*
X7307Y6459D01*
X6959Y6807D01*
X6959Y7607D01*
G74*
D01*
G03X7017Y7517I241J93*
G01*
X7517Y7017D01*
G74*
D01*
G03X7625Y6952I183J183*
G01*
G75*
D01*
G03X7700Y6941I75J248*
G01*
X22200Y941D02*
G75*
D01*
G03X22254Y947I0J259*
G01*
G74*
D01*
G03X22383Y1017I54J253*
G01*
X22883Y1517D01*
G75*
D01*
G03X22959Y1700I-183J183*
G01*
X22959Y2389D01*
G75*
D01*
G03X22959Y3011I-259J311*
G01*
X22959Y7700D01*
G75*
D01*
G03X22441Y7700I-259J0*
G01*
X22441Y3011D01*
G75*
D01*
G03X22441Y2389I259J-311*
G01*
X22441Y1807D01*
X22093Y1459D01*
X3907Y1459D01*
X2459Y2907D01*
X2459Y12293D01*
X2807Y12641D01*
X8000Y12641D01*
X9240Y11401D01*
X9240Y11401D01*
X10061Y10580D01*
G75*
D01*
G03X9941Y9889I139J-380*
G01*
X9941Y9347D01*
G74*
D01*
G03X9717Y8979I276J420*
G01*
G75*
D01*
G03X8717Y8979I-500J-52*
G01*
G75*
D01*
G03X7717Y8979I-500J-52*
G01*
G75*
D01*
G03X6959Y9358I-500J-52*
G01*
X6959Y10389D01*
G75*
D01*
G03X6441Y10389I-259J311*
G01*
X6441Y6701D01*
G75*
D01*
G03X6517Y6517I259J-1*
G01*
X7017Y6017D01*
G74*
D01*
G03X7125Y5952I183J183*
G01*
G75*
D01*
G03X7200Y5941I75J248*
G01*
X15389Y5941D01*
G75*
D01*
G03X15885Y6560I311J259*
G01*
G75*
D01*
G03X15308Y7435I-285J440*
G01*
G74*
D01*
G03X15285Y7444I108J235*
G01*
G75*
D01*
G03X15200Y7459I-85J-244*
G01*
X7807Y7459D01*
X7459Y7807D01*
X7459Y8486D01*
G74*
D01*
G03X7717Y8874I242J441*
G01*
G75*
D01*
G03X8717Y8874I500J53*
G01*
G75*
D01*
G03X9717Y8874I500J53*
G01*
G74*
D01*
G03X9978Y8484I500J53*
G01*
G75*
D01*
G03X10457Y8484I239J99*
G01*
G74*
D01*
G03X10717Y8874I240J443*
G01*
G75*
D01*
G03X11717Y8874I500J53*
G01*
G75*
D01*
G03X12717Y8874I500J53*
G01*
G75*
D01*
G03X13717Y8874I500J53*
G01*
G75*
D01*
G03X14717Y8874I500J53*
G01*
G75*
D01*
G03X15717Y8874I500J53*
G01*
G75*
D01*
G03X16717Y8874I500J53*
G01*
G75*
D01*
G03X17717Y8874I500J53*
G01*
G75*
D01*
G03X18717Y8874I500J53*
G01*
G75*
D01*
G03X18717Y8979I500J53*
G01*
G75*
D01*
G03X17717Y8979I-500J-52*
G01*
G75*
D01*
G03X16717Y8979I-500J-52*
G01*
G75*
D01*
G03X15717Y8979I-500J-52*
G01*
G75*
D01*
G03X14717Y8979I-500J-52*
G01*
G75*
D01*
G03X13717Y8979I-500J-52*
G01*
G75*
D01*
G03X12717Y8979I-500J-52*
G01*
G75*
D01*
G03X11995Y9378I-500J-52*
G01*
X9240Y12132D01*
X9240Y12132D01*
X8290Y13083D01*
G74*
D01*
G03X8107Y13159I183J183*
G01*
X2700Y13159D01*
G75*
D01*
G03X2517Y13083I0J-259*
G01*
X2017Y12583D01*
G75*
D01*
G03X1941Y12400I183J-183*
G01*
X1941Y2800D01*
G75*
D01*
G03X2017Y2617I259J0*
G01*
X3617Y1017D01*
G74*
D01*
G03X3703Y960I183J183*
G01*
G75*
D01*
G03X3800Y941I97J240*
G01*
X22200Y941D01*
X9717Y16714D02*
G75*
D01*
G03X8717Y16714I-500J-157*
G01*
G75*
D01*
G03X7717Y16714I-500J-157*
G01*
G75*
D01*
G03X6717Y16714I-500J-157*
G01*
G75*
D01*
G03X6717Y16399I-500J-157*
G01*
G75*
D01*
G03X7717Y16399I500J158*
G01*
G75*
D01*
G03X8717Y16399I500J158*
G01*
G75*
D01*
G03X9717Y16399I500J158*
G01*
G75*
D01*
G03X10713Y16387I500J158*
G01*
G75*
D01*
G03X11113Y16047I400J65*
G01*
X11321Y16047D01*
G75*
D01*
G03X11727Y16452I0J405*
G01*
X11727Y16661D01*
G74*
D01*
G03X11321Y17066I406J0*
G01*
X11113Y17066D01*
G75*
D01*
G03X10713Y16726I0J-405*
G01*
G75*
D01*
G03X9717Y16714I-496J-169*
G01*
X9717Y14979D02*
G75*
D01*
G03X8717Y14979I-500J-52*
G01*
G75*
D01*
G03X7717Y14979I-500J-52*
G01*
G75*
D01*
G03X7717Y14874I-500J-52*
G01*
G75*
D01*
G03X8717Y14874I500J53*
G01*
G75*
D01*
G03X9717Y14874I500J53*
G01*
G75*
D01*
G03X10717Y14874I500J53*
G01*
G75*
D01*
G03X11717Y14874I500J53*
G01*
G75*
D01*
G03X12717Y14874I500J53*
G01*
G75*
D01*
G03X13717Y14874I500J53*
G01*
G75*
D01*
G03X14717Y14874I500J53*
G01*
G75*
D01*
G03X15717Y14874I500J53*
G01*
G75*
D01*
G03X16717Y14874I500J53*
G01*
G75*
D01*
G03X17717Y14874I500J53*
G01*
G75*
D01*
G03X18717Y14874I500J53*
G01*
G75*
D01*
G03X19717Y14874I500J53*
G01*
G75*
D01*
G03X20717Y14874I500J53*
G01*
G75*
D01*
G03X20717Y14979I500J53*
G01*
G75*
D01*
G03X19717Y14979I-500J-52*
G01*
G75*
D01*
G03X18717Y14979I-500J-52*
G01*
G75*
D01*
G03X17717Y14979I-500J-52*
G01*
G75*
D01*
G03X16717Y14979I-500J-52*
G01*
G75*
D01*
G03X15717Y14979I-500J-52*
G01*
G75*
D01*
G03X14717Y14979I-500J-52*
G01*
G75*
D01*
G03X13717Y14979I-500J-52*
G01*
G75*
D01*
G03X12717Y14979I-500J-52*
G01*
G75*
D01*
G03X11717Y14979I-500J-52*
G01*
G75*
D01*
G03X10717Y14979I-500J-52*
G01*
G75*
D01*
G03X9717Y14979I-500J-52*
G01*
X20396Y9397D02*
X20396Y9105D01*
X20687Y9105D01*
G74*
D01*
G03X20396Y9397I470J178*
G01*
X20039Y9397D02*
G74*
D01*
G03X19747Y9105I178J470*
G01*
X20039Y9105D01*
X20039Y9397D01*
X21476Y8495D02*
G75*
D01*
G03X20959Y8495I-259J432*
G01*
X20959Y7670D01*
G75*
D01*
G03X20917Y6783I257J-456*
G01*
X20593Y6459D01*
X18307Y6459D01*
X18061Y6704D01*
G75*
D01*
G03X18109Y6896I-357J192*
G01*
X18109Y7104D01*
G74*
D01*
G03X17704Y7509I405J0*
G01*
X17496Y7509D01*
G75*
D01*
G03X17091Y7104I0J-405*
G01*
X17091Y6896D01*
G75*
D01*
G03X17496Y6491I405J0*
G01*
X17544Y6491D01*
X18017Y6017D01*
G74*
D01*
G03X18116Y5955I183J183*
G01*
G75*
D01*
G03X18200Y5941I84J245*
G01*
X20700Y5941D01*
G75*
D01*
G03X20729Y5943I0J259*
G01*
G74*
D01*
G03X20883Y6017I29J257*
G01*
X21399Y6533D01*
G75*
D01*
G03X21475Y6716I-183J183*
G01*
X21475Y6758D01*
G75*
D01*
G03X21476Y7669I-259J456*
G01*
X21476Y8495D01*
X3208Y9189D02*
G75*
D01*
G03X3547Y9589I-66J400*
G01*
X3547Y9798D01*
G74*
D01*
G03X3142Y10203I405J0*
G01*
X2934Y10203D01*
G75*
D01*
G03X2529Y9798I0J-405*
G01*
X2529Y9589D01*
G75*
D01*
G03X2868Y9189I405J0*
G01*
G75*
D01*
G03X3208Y9189I170J-495*
G01*
X25828Y10859D02*
X14772Y10859D01*
G75*
D01*
G03X14587Y10341I-372J-159*
G01*
X26013Y10341D01*
G75*
D01*
G03X25828Y10859I187J359*
G01*
X20020Y8927D02*
G75*
D01*
G03X20020Y8927I197J0*
G01*
X20397Y6711D02*
G74*
D01*
G03X20718Y7033I77J398*
G01*
X20397Y7033D01*
X20397Y6711D01*
X20020Y7214D02*
G75*
D01*
G03X20020Y7214I196J0*
G01*
X19714Y7033D02*
G74*
D01*
G03X20035Y6711I398J76*
G01*
X20035Y7033D01*
X19714Y7033D01*
X20718Y7394D02*
G74*
D01*
G03X20397Y7716I398J76*
G01*
X20397Y7394D01*
X20718Y7394D01*
X20035Y7716D02*
G74*
D01*
G03X19714Y7394I77J398*
G01*
X20035Y7394D01*
X20035Y7716D01*
X20687Y8748D02*
X20396Y8748D01*
X20396Y8456D01*
G74*
D01*
G03X20687Y8748I179J471*
G01*
X20039Y8456D02*
X20039Y8748D01*
X19747Y8748D01*
G74*
D01*
G03X20039Y8456I470J179*
G01*
X16425Y7000D02*
G75*
D01*
G03X16425Y7000I175J0*
G01*
X16414Y6510D02*
X16414Y6814D01*
X16110Y6814D01*
G74*
D01*
G03X16414Y6510I490J186*
G01*
X17090Y6814D02*
X16786Y6814D01*
X16786Y6510D01*
G74*
D01*
G03X17090Y6814I186J490*
G01*
X16110Y7186D02*
X16414Y7186D01*
X16414Y7490D01*
G74*
D01*
G03X16110Y7186I186J490*
G01*
X16786Y7490D02*
X16786Y7186D01*
X17090Y7186D01*
G74*
D01*
G03X16786Y7490I490J186*
G01*
X20941Y5389D02*
X20941Y4511D01*
G75*
D01*
G03X21459Y4511I259J-311*
G01*
X21459Y5389D01*
G75*
D01*
G03X20941Y5389I-259J311*
G01*
X208Y234D02*
X208Y22195D01*
X31292Y22195D01*
X31292Y234D01*
X208Y234D01*
X10717Y8979D02*
G74*
D01*
G03X10459Y9368I500J52*
G01*
X10459Y9889D01*
G74*
D01*
G03X10580Y10061I259J311*
G01*
X11212Y9429D01*
G74*
D01*
G03X10717Y8979I5J502*
G01*
X3800Y1200D02*
X2200Y2800D01*
X22200Y1200D02*
X3800Y1200D01*
X22700Y1700D02*
X22200Y1200D01*
X22700Y1700D02*
X22700Y7700D01*
X2200Y2800D02*
X2200Y12400D01*
X21200Y5700D02*
X21200Y4200D01*
X15700Y6200D02*
X7200Y6200D01*
X6700Y6700D01*
X6700Y10700D01*
X18200Y6200D02*
X17600Y6800D01*
X17600Y7000D01*
X20700Y6200D02*
X18200Y6200D01*
X21216Y6716D02*
X20700Y6200D01*
X21216Y7214D02*
X21216Y6716D01*
X7700Y7200D02*
X7200Y7700D01*
X15200Y7200D02*
X7700Y7200D01*
X15400Y7000D02*
X15200Y7200D01*
X15600Y7000D02*
X15400Y7000D01*
X16700Y7450D02*
X16700Y7200D01*
X16600Y7100D01*
X16600Y7000D01*
X16950Y7700D02*
X16700Y7450D01*
X20216Y7214D02*
X20200Y7214D01*
X20200Y7700D01*
X20217Y8927D02*
X20217Y7215D01*
X21217Y8927D02*
X21217Y7215D01*
X7200Y7700D02*
X7200Y8700D01*
X20200Y7700D02*
X16950Y7700D01*
X7217Y8717D02*
X7217Y8927D01*
X7200Y8700D02*
X7217Y8717D01*
X8107Y12900D02*
X12080Y8927D01*
X10217Y8583D02*
X10217Y9183D01*
X12080Y8927D02*
X12217Y8927D01*
X10200Y9200D02*
X10217Y9183D01*
X10200Y10200D02*
X10200Y9200D01*
X26100Y10600D02*
X14300Y10600D01*
X26100Y10600D02*
X26200Y10700D01*
X2200Y12400D02*
X2700Y12900D01*
X8107Y12900D01*
G54D12*
X-100Y-74D02*
X-100Y2184D01*
X-100Y-74D02*
X3070Y-74D01*
X31601Y-74D02*
X28431Y-74D01*
X31601Y-74D02*
X31601Y2184D01*
X31601Y22503D02*
X31601Y20245D01*
X31601Y22503D02*
X28431Y22503D01*
X-100Y22503D02*
X3070Y22503D01*
X-100Y22503D02*
X-100Y20245D01*
X-2069Y-74D02*
X-6006Y-74D01*
X-4037Y-2043D02*
X-4037Y1894D01*
X-5513Y-74D02*
G75*
D01*
G02X-5513Y-74I1476J0*
G01*
X33569Y-74D02*
X37506Y-74D01*
X35538Y-2043D02*
X35538Y1894D01*
X34062Y-74D02*
G75*
D01*
G02X34062Y-74I1476J0*
G01*
X35046Y-74D02*
G75*
D01*
G02X35046Y-74I492J0*
G01*
X-2069Y22503D02*
X-6006Y22503D01*
X-4037Y20535D02*
X-4037Y24472D01*
X-5513Y22503D02*
G75*
D01*
G02X-5513Y22503I1476J0*
G01*
X-5021Y22503D02*
G75*
D01*
G02X-5021Y22503I984J0*
G01*
X-4529Y22503D02*
G75*
D01*
G02X-4529Y22503I492J0*
G01*
G54D13*
X22700Y2700D03*
X21200Y4200D03*
X21200Y5700D03*
X15700Y6200D03*
X6700Y10700D03*
X10200Y10200D03*
X14400Y10700D03*
X26200Y10700D03*
G54D14*
X7217Y8927D03*
X8217Y8927D03*
X9217Y8927D03*
X10217Y8927D03*
X11217Y8927D03*
X12217Y8927D03*
X13217Y8927D03*
X14217Y8927D03*
X15217Y8927D03*
X16217Y8927D03*
X17217Y8927D03*
X18217Y8927D03*
X19217Y8927D03*
X20217Y8927D03*
X21217Y8927D03*
X7217Y14927D03*
X8217Y14927D03*
X9217Y14927D03*
X10217Y14927D03*
X11217Y14927D03*
X12217Y14927D03*
X13217Y14927D03*
X14217Y14927D03*
X15217Y14927D03*
X16217Y14927D03*
X17217Y14927D03*
X18217Y14927D03*
X19217Y14927D03*
X20217Y14927D03*
X21217Y14927D03*
G54D15*
X20216Y7214D03*
X3038Y9694D03*
X11217Y16557D03*
X17600Y7000D03*
G54D16*
X20112Y7110D02*
X20320Y7110D01*
X20320Y7318D01*
X20112Y7318D01*
X20112Y7110D01*D02*
X2934Y9590D02*
X3142Y9590D01*
X3142Y9798D01*
X2934Y9798D01*
X2934Y9590D01*D02*
X11113Y16453D02*
X11321Y16453D01*
X11321Y16661D01*
X11113Y16661D01*
X11113Y16453D01*D02*
X17496Y6896D02*
X17704Y6896D01*
X17704Y7104D01*
X17496Y7104D01*
X17496Y6896D01*D02*
G54D17*
X21216Y7214D03*
X3038Y8694D03*
X10217Y16557D03*
X9217Y16557D03*
X7217Y16557D03*
X8217Y16557D03*
X6217Y16557D03*
X16600Y7000D03*
X15600Y7000D03*

M02*
